<svg width="70" height="70" viewBox="0 0 70 70" fill="none" xmlns="http://www.w3.org/2000/svg">
<path d="M0 0H70V54C70 62.8366 62.8366 70 54 70H0V0Z" fill="#F8DEDA"/>
<path d="M39.1298 28.8691L43.0691 36.3707L47.1062 28.8691H53.2108L46.9945 39.5976L53.3784 50.3261H47.3018L43.0691 42.9084L38.9063 50.3261H32.7598L39.1298 39.5976L32.9833 28.8691H39.1298Z" fill="#EE6046"/>
<path d="M18.3404 28.6909L23.2576 39.5088C23.496 40.0333 26.6351 27.2704 28.1748 20.8234C27.9125 19.7744 48.3899 19.9492 58.6614 20.1677C61.2839 21.479 59.7541 23.3366 58.6614 24.1015H31.4529C29.1582 32.5154 24.5033 49.5399 24.241 50.3267C23.9788 51.1134 23.6947 50.6545 23.5854 50.3267L15.7179 32.2969H11.7842C11.3471 32.0783 10.4074 31.379 10.1451 30.33C9.88285 29.281 11.1285 28.8002 11.7842 28.6909H18.3404Z" fill="#EE6046"/>
</svg>
