<svg width="70" height="70" viewBox="0 0 70 70" fill="none" xmlns="http://www.w3.org/2000/svg">
<path d="M0 0H70V54C70 62.8366 62.8366 70 54 70H0V0Z" fill="#C4F9C3"/>
<path fill-rule="evenodd" clip-rule="evenodd" d="M35.3608 37.4624C32.2999 32.1506 32.2678 20.5052 56.6262 16.4174C54.9054 32.9797 41.7323 37.3484 35.3608 37.4624ZM48.5076 25.6828C47.8388 25.4859 47.568 25.1836 47.2911 24.8443C47.745 24.4143 48.1639 23.9866 48.5665 23.5756C49.2315 22.8966 49.8521 22.2629 50.5132 21.7389C51.6266 20.8563 52.6084 20.2012 53.3824 19.8663C54.1564 19.5313 54.0143 19.0277 53.1764 19.3904C52.3385 19.753 51.3138 20.4425 50.191 21.3325C49.8892 21.5718 49.5839 21.8046 49.2741 22.0409C48.4549 22.6656 47.6048 23.3138 46.707 24.1665C46.6553 24.1566 46.5938 24.2266 46.5403 24.2875C46.4946 24.3396 46.4547 24.385 46.4317 24.3681C46.3658 24.3199 46.3156 24.2509 46.2814 24.1528C46.2087 23.944 46.2178 23.6276 46.3094 23.2289C46.4901 22.4422 46.9523 21.4969 47.329 20.863C47.7058 20.2291 47.2715 19.9449 46.8833 20.5981C46.495 21.2512 46.0022 22.25 45.804 23.1128C45.7062 23.5389 45.6699 23.9735 45.7917 24.3233C45.8548 24.5044 45.9617 24.6665 46.125 24.7863C46.1584 24.8107 46.1933 24.8329 46.2299 24.8528C45.7976 25.2688 45.4353 25.6418 45.0491 26.0394C44.8563 26.238 44.6575 26.4426 44.4411 26.6617C44.3261 26.5391 44.1902 26.4118 44.0472 26.2779C43.7006 25.9534 43.3129 25.5903 43.0827 25.1614C42.894 24.8099 42.7637 24.4689 42.7221 24.1656C42.6809 23.8656 42.7283 23.6212 42.8707 23.4303C43.0131 23.2395 42.702 22.7893 42.4551 23.1202C42.2082 23.4512 42.1548 23.8452 42.2084 24.2361C42.2616 24.6238 42.4216 25.0263 42.6258 25.4066C42.9817 26.0695 43.4949 26.7078 43.9139 27.1526C43.3483 27.7301 42.813 28.2603 42.2973 28.7711C41.3554 29.704 40.4787 30.5723 39.6023 31.5459C39.5356 31.4878 39.4274 31.4849 39.3162 31.4819C39.1571 31.4777 38.9916 31.4733 38.9316 31.3068C38.8159 30.9858 38.8012 30.6147 38.7846 30.1949C38.782 30.1295 38.7794 30.0628 38.7763 29.995C38.7308 28.9903 38.8772 27.883 39.027 27.1718C39.1767 26.4606 38.6753 26.3253 38.5196 27.0649C38.3638 27.8046 38.2103 28.9575 38.2583 30.0185C38.2823 30.5485 38.3571 31.0692 38.5153 31.5081C38.6342 31.838 38.8064 32.138 39.0536 32.3555C38.2206 33.2867 37.4737 34.1427 36.8539 34.8689L37.2483 35.2055C37.8852 34.4593 38.6576 33.5746 39.5205 32.6115C40.7805 33.0157 43.6051 33.4752 46.1474 32.4292C46.1474 32.4292 48.2019 31.0231 45.9501 31.9496C43.8438 32.8163 41.8888 32.2541 40.6004 31.8835C40.5113 31.8579 40.4255 31.8332 40.343 31.81C40.6616 31.4567 40.9652 31.1165 41.2643 30.7814C42.2014 29.7315 43.0932 28.7323 44.2586 27.5417C44.5824 27.9071 45.0777 28.3313 45.6987 28.636C46.4631 29.011 47.4287 29.2091 48.4955 28.8779C49.5623 28.5467 49.2558 28.0988 48.3417 28.3826C47.4277 28.6664 46.5998 28.5004 45.9271 28.1704C45.3557 27.8901 44.9039 27.4946 44.623 27.1708C45.3161 26.4685 46.014 25.778 46.7035 25.1169C47.0455 25.524 47.6052 25.9577 48.3612 26.1802C49.283 26.4516 50.4745 26.4027 51.8875 25.6481C53.3005 24.8934 52.9501 24.4927 51.6432 25.1907C50.3364 25.8886 49.2847 25.9116 48.5076 25.6828Z" fill="#0C9D09"/>
<path fill-rule="evenodd" clip-rule="evenodd" d="M29.9895 43.1347C33.5393 38.1364 34.6734 26.5463 10.8112 20.1717C10.9568 36.8225 23.6574 42.4182 29.9895 43.1347ZM18.0166 30.1637C18.7011 30.031 18.9992 29.7557 19.307 29.4441C18.8958 28.973 18.5193 28.5076 18.1574 28.0603C17.5597 27.3215 17.0018 26.6319 16.3933 26.0477C15.3684 25.0637 14.4529 24.3187 13.7141 23.9119C12.9754 23.5052 13.1644 23.0174 13.9642 23.4577C14.764 23.898 15.7189 24.6814 16.7524 25.6736C17.0303 25.9404 17.3122 26.2011 17.5982 26.4656C18.3546 27.165 19.1395 27.8908 19.9527 28.8246C20.0051 28.8197 20.0596 28.8951 20.1071 28.9608C20.1477 29.017 20.1832 29.066 20.2076 29.0514C20.2777 29.0096 20.3343 28.9456 20.3776 28.8512C20.4697 28.6503 20.4906 28.3344 20.4372 27.9288C20.3318 27.1286 19.9611 26.1438 19.646 25.4771C19.3309 24.8104 19.7901 24.5685 20.1148 25.2555C20.4395 25.9425 20.8357 26.9834 20.9513 27.8611C21.0084 28.2945 21.0033 28.7306 20.849 29.0673C20.769 29.2416 20.6473 29.3929 20.4734 29.4967C20.4378 29.5179 20.4009 29.5366 20.3627 29.553C20.7536 30.008 21.079 30.4137 21.4259 30.8461C21.599 31.0619 21.7775 31.2845 21.9722 31.5231C22.0983 31.4119 22.2457 31.298 22.4006 31.1783C22.7764 30.888 23.1967 30.5632 23.4665 30.158C23.6876 29.826 23.8496 29.4988 23.9197 29.2009C23.9891 28.906 23.9651 28.6582 23.8414 28.4548C23.7177 28.2513 24.07 27.8326 24.2845 28.1854C24.499 28.5382 24.5149 28.9356 24.4245 29.3196C24.3348 29.7006 24.1374 30.0861 23.8981 30.4454C23.4812 31.0716 22.9098 31.6585 22.4506 32.0616C22.959 32.69 23.4417 33.2685 23.9068 33.8259C24.7562 34.8437 25.5467 35.7911 26.327 36.8433C26.399 36.7917 26.5069 36.7991 26.618 36.8066C26.7768 36.8175 26.9419 36.8288 27.0174 36.6687C27.163 36.36 27.2127 35.992 27.2689 35.5757C27.2777 35.5108 27.2866 35.4447 27.2961 35.3775C27.4365 34.3816 27.3956 33.2654 27.3138 32.5432C27.232 31.8211 27.7439 31.7338 27.829 32.4849C27.9141 33.236 27.9578 34.3982 27.8096 35.4499C27.7355 35.9752 27.6118 36.4865 27.4128 36.9085C27.2632 37.2257 27.0634 37.508 26.7967 37.7012C27.5378 38.707 28.2004 39.6298 28.7487 40.4115L28.3241 40.7092C27.7608 39.9061 27.0756 38.9523 26.3077 37.9118C25.015 38.195 22.1596 38.3851 19.7278 37.1032C19.7278 37.1032 17.8155 35.5089 19.9696 36.6445C21.9844 37.7065 23.9838 37.3318 25.3015 37.0849C25.3926 37.0678 25.4804 37.0514 25.5648 37.036C25.281 36.6542 25.0109 36.2868 24.7449 35.9249C23.9114 34.7911 23.1181 33.7119 22.0706 32.4163C21.7137 32.7494 21.1805 33.1249 20.5334 33.3694C19.7369 33.6704 18.7569 33.7762 17.7263 33.3456C16.6956 32.9149 17.0431 32.4981 17.9262 32.8671C18.8093 33.2362 19.6492 33.1492 20.3501 32.8844C20.9455 32.6594 21.4326 32.3084 21.7429 32.0127C21.1194 31.2479 20.49 30.4944 19.8662 29.7711C19.4871 30.144 18.8889 30.5227 18.1153 30.6728C17.1719 30.8557 15.9904 30.6942 14.6552 29.8092C13.3199 28.9243 13.7067 28.5586 14.9416 29.377C16.1766 30.1955 17.2213 30.3179 18.0166 30.1637Z" fill="#0C9D09"/>
<path fill-rule="evenodd" clip-rule="evenodd" d="M31.9688 50.8713C31.0159 44.8153 35.1612 33.9325 59.3658 38.8498C51.8213 53.694 37.9576 53.0492 31.9688 50.8713ZM48.4652 44.5883C47.9114 44.1647 47.7671 43.7855 47.6302 43.3694C48.2081 43.1307 48.7525 42.8817 49.2757 42.6423C50.1399 42.2469 50.9464 41.8778 51.7515 41.6256C53.1073 41.2009 54.2587 40.9415 55.1013 40.9062C55.9439 40.871 55.9919 40.35 55.0797 40.3882C54.1675 40.4263 52.9637 40.7025 51.5964 41.1308C51.2289 41.246 50.8604 41.3539 50.4865 41.4633C49.4978 41.7528 48.4718 42.0532 47.3279 42.5272C47.2832 42.4995 47.2007 42.5428 47.129 42.5804C47.0676 42.6126 47.014 42.6408 46.9986 42.6168C46.9545 42.5481 46.9323 42.4657 46.9356 42.3618C46.9426 42.1409 47.0645 41.8488 47.2929 41.5094C47.7437 40.8398 48.514 40.123 49.093 39.6664C49.672 39.2098 49.3685 38.7887 48.7719 39.2593C48.1753 39.7298 47.3571 40.4855 46.8628 41.2199C46.6187 41.5825 46.429 41.9753 46.4173 42.3454C46.4112 42.5371 46.4529 42.7268 46.5624 42.8971C46.5848 42.932 46.6095 42.9652 46.6365 42.9969C46.0838 43.2302 45.6118 43.4485 45.1087 43.6813C44.8575 43.7974 44.5986 43.9172 44.3181 44.0442C44.2547 43.8885 44.1734 43.7209 44.088 43.5447C43.8808 43.1175 43.649 42.6395 43.5879 42.1566C43.5377 41.7608 43.5384 41.3957 43.6083 41.0977C43.6774 40.8029 43.8093 40.5917 44.0106 40.4646C44.212 40.3375 44.083 39.8057 43.7338 40.0261C43.3847 40.2465 43.1935 40.5952 43.1034 40.9793C43.0141 41.3603 43.0192 41.7934 43.0734 42.2217C43.168 42.9681 43.4182 43.748 43.6499 44.3134C42.9149 44.6497 42.2251 44.9527 41.5605 45.2447C40.3467 45.7779 39.2171 46.2741 38.0499 46.8688C38.0084 46.7906 37.9085 46.7491 37.8057 46.7065C37.6586 46.6455 37.5057 46.5821 37.5094 46.4051C37.5165 46.0639 37.6359 45.7123 37.7709 45.3144C37.7919 45.2524 37.8134 45.1893 37.8348 45.1249C38.1526 44.1707 38.6862 43.1894 39.081 42.5792C39.4758 41.969 39.0563 41.6629 38.6456 42.2975C38.235 42.9322 37.6784 43.9534 37.3428 44.961C37.1752 45.4645 37.0583 45.9774 37.0486 46.4438C37.0414 46.7944 37.0945 47.1362 37.2473 47.4279C36.1358 47.9985 35.1317 48.5297 34.2927 48.9855L34.5403 49.4412C35.4023 48.9728 36.4405 48.4239 37.5914 47.8342C38.6227 48.6633 41.0948 50.105 43.8431 50.04C43.8431 50.04 46.2652 49.464 43.8308 49.5216C41.5539 49.5755 39.9304 48.3496 38.8605 47.5418C38.7866 47.486 38.7153 47.4321 38.6466 47.3808C39.0707 47.1653 39.4761 46.9566 39.8754 46.751C41.1266 46.1069 42.3174 45.4939 43.8322 44.8002C44.0035 45.2574 44.3137 45.831 44.7842 46.3381C45.3634 46.9622 46.1937 47.4933 47.3084 47.5666C48.423 47.6399 48.2975 47.112 47.3424 47.0492C46.3873 46.9864 45.674 46.5346 45.1643 45.9854C44.7314 45.5188 44.4515 44.9876 44.3054 44.5847C45.2042 44.1775 46.1033 43.7831 46.9839 43.4132C47.1573 43.9159 47.5242 44.5214 48.1501 45.0002C48.9134 45.584 50.0432 45.9655 51.6328 45.7677C53.2225 45.5698 53.039 45.0701 51.5688 45.2531C50.0986 45.4361 49.1086 45.0805 48.4652 44.5883Z" fill="#0C9D09"/>
</svg>
