<svg width="70" height="70" viewBox="0 0 70 70" fill="none" xmlns="http://www.w3.org/2000/svg">
<path d="M0 0H70V54C70 62.8366 62.8366 70 54 70H0V0Z" fill="#DDCDFF"/>
<g clip-path="url(#clip0_198_3839)">
<path fill-rule="evenodd" clip-rule="evenodd" d="M20.5202 22.4639L33.1777 18.8867C33.728 18.9784 34.6636 19.4921 34.0032 20.8129C33.3428 22.1337 32.4439 21.9135 32.0771 21.6384L35.379 33.4705C43.5422 35.2132 58.1626 41.3403 51.3386 51.9066C47.2111 55.4838 43.1534 56.7637 38.4058 57.9603C31.436 59.7171 24.4263 61.357 21.3457 59.6113C13.0907 54.9335 16.3927 48.0543 26.2986 36.2222L22.9966 24.6652H21.0705C19.5296 24.6652 20.0616 23.1977 20.5202 22.4639ZM24.3724 23.5643L26.0234 29.3428L32.077 27.6918L30.1508 21.9133L24.3724 23.5643Z" fill="#803F91"/>
<ellipse cx="24.6471" cy="12.0074" rx="1.65099" ry="1.651" fill="#803F91"/>
<ellipse cx="27.9493" cy="15.3096" rx="1.10066" ry="1.10066" fill="#803F91"/>
</g>
<defs>
<clipPath id="clip0_198_3839">
<rect width="50" height="50" fill="white" transform="translate(10 10)"/>
</clipPath>
</defs>
</svg>
