<svg width="70" height="70" viewBox="0 0 70 70" fill="none" xmlns="http://www.w3.org/2000/svg">
<path d="M0 0H70V54C70 62.8366 62.8366 70 54 70H0V0Z" fill="#FD6A00"/>
<g clip-path="url(#clip0_198_5830)">
<rect opacity="0.7" x="-14.167" y="10" width="98.4848" height="16.6667" fill="#131930"/>
<rect opacity="0.53" x="-14.167" y="26.667" width="98.4848" height="16.6667" fill="#D9D9D9"/>
<rect x="-14.167" y="43.333" width="98.4848" height="16.6667" fill="white"/>
<path d="M30.9998 29.8066C31.9865 29.8066 32.8487 30.0022 33.5865 30.3933C34.3243 30.7844 34.8932 31.3355 35.2932 32.0466C35.7021 32.7489 35.9065 33.5622 35.9065 34.4866C35.9065 35.4022 35.7021 36.2155 35.2932 36.9266C34.8932 37.6378 34.3198 38.1889 33.5732 38.58C32.8354 38.9711 31.9776 39.1666 30.9998 39.1666H27.4932V29.8066H30.9998ZM30.8532 37.1933C31.7154 37.1933 32.3865 36.9578 32.8665 36.4866C33.3465 36.0155 33.5865 35.3489 33.5865 34.4866C33.5865 33.6244 33.3465 32.9533 32.8665 32.4733C32.3865 31.9933 31.7154 31.7533 30.8532 31.7533H29.7732V37.1933H30.8532Z" fill="white"/>
<path d="M39.4607 31.6333V33.5266H42.514V35.2866H39.4607V37.34H42.914V39.1666H37.1807V29.8066H42.914V31.6333H39.4607Z" fill="white"/>
</g>
<defs>
<clipPath id="clip0_198_5830">
<path d="M10 26C10 17.1634 17.1634 10 26 10H60V60H10V26Z" fill="white"/>
</clipPath>
</defs>
</svg>
