<svg width="70" height="70" viewBox="0 0 70 70" fill="none" xmlns="http://www.w3.org/2000/svg">
<path d="M0 0H70V54C70 62.8366 62.8366 70 54 70H0V0Z" fill="#FF5738"/>
<g clip-path="url(#clip0_198_5628)">
<g opacity="0.5">
<rect x="30.9131" y="12" width="7" height="47" fill="white"/>
<rect x="62.9131" y="32" width="7" height="57" transform="rotate(90 62.9131 32)" fill="white"/>
<rect width="2.2523" height="76.2116" transform="matrix(0.50147 0.865175 -0.866872 0.498531 67.0654 15.6523)" fill="white"/>
<rect width="2.2523" height="75.8582" transform="matrix(-0.501471 0.865175 0.866872 0.498531 2.2832 15.7402)" fill="white"/>
</g>
<path d="M28.6413 31.9596V34.2316H32.3053V36.3436H28.6413V38.8076H32.7853V40.9996H25.9053V29.7676H32.7853V31.9596H28.6413Z" fill="white"/>
<path d="M40.0015 31.9756C41.0469 31.9756 41.8789 32.3169 42.4975 32.9996C43.1269 33.6716 43.4415 34.5996 43.4415 35.7836V40.9996H40.7215V36.1516C40.7215 35.5542 40.5669 35.0902 40.2575 34.7596C39.9482 34.4289 39.5322 34.2636 39.0095 34.2636C38.4869 34.2636 38.0709 34.4289 37.7615 34.7596C37.4522 35.0902 37.2975 35.5542 37.2975 36.1516V40.9996H34.5615V32.0716H37.2975V33.2556C37.5749 32.8609 37.9482 32.5516 38.4175 32.3276C38.8869 32.0929 39.4149 31.9756 40.0015 31.9756Z" fill="white"/>
</g>
<defs>
<clipPath id="clip0_198_5628">
<rect width="50" height="50" fill="white" transform="translate(10 10)"/>
</clipPath>
</defs>
</svg>
