<svg width="27" height="26" viewBox="0 0 27 26" fill="none" xmlns="http://www.w3.org/2000/svg">
<path fill-rule="evenodd" clip-rule="evenodd" d="M11.2364 1.49903C12.2146 -0.482754 15.0406 -0.482746 16.0188 1.49903L18.6333 6.79565L24.4821 7.65053C26.6685 7.97011 27.5399 10.6577 25.957 12.1995L21.727 16.3195L22.725 22.1385C23.0986 24.317 20.8118 25.9783 18.8555 24.9495L13.6276 22.2002L8.39972 24.9495C6.44337 25.9783 4.15658 24.317 4.53023 22.1385L5.52825 16.3195L1.29821 12.1995C-0.284711 10.6577 0.586715 7.97011 2.77315 7.65053L8.62193 6.79565L11.2364 1.49903ZM13.6276 2.67936L11.0131 7.97598C10.625 8.76224 9.87521 9.30746 9.0076 9.43428L3.15883 10.2892L7.38887 14.4092C8.01787 15.0219 8.30497 15.9049 8.15654 16.7703L7.15852 22.5893L12.3864 19.84C13.1634 19.4313 14.0918 19.4313 14.8688 19.84L20.0967 22.5893L19.0987 16.7703C18.9503 15.9049 19.2374 15.0219 19.8664 14.4092L24.0964 10.2892L18.2476 9.43428C17.38 9.30746 16.6302 8.76224 16.2421 7.97598L13.6276 2.67936Z" fill="#F8991D"/>
</svg>
