<svg width="70" height="70" viewBox="0 0 70 70" fill="none" xmlns="http://www.w3.org/2000/svg">
<path d="M0 0H70V54C70 62.8366 62.8366 70 54 70H0V0Z" fill="#C7EBFF"/>
<circle cx="35" cy="35" r="23.8095" stroke="#0B6CA2" stroke-width="2.38095"/>
<path d="M41.746 19.1272C45.2381 16.5875 49.8148 19.1272 51.6666 20.7145L54.0476 20.3177L58.8095 29.0479C58.2804 29.3124 57.2222 30.3971 57.2222 32.6193C57.2222 34.8415 53.5185 36.1907 51.6666 36.5875C51.2698 37.2489 50.3174 38.651 49.6825 38.9685C48.8888 39.3653 50.873 40.159 50.4761 42.9367C50.0793 45.7145 47.6984 46.5082 46.1111 48.0955C44.8412 49.3653 45.8465 52.3283 46.5079 53.651L46.9047 55.2383C46.3756 55.5029 45 56.032 43.7301 56.032C42.1428 56.032 40.1587 49.6828 38.5714 49.286C36.9841 48.8891 35.7936 42.5399 37.3809 40.9526C38.9682 39.3653 46.5079 35.7939 48.0952 35.3971C49.6825 35.0002 48.8888 38.9685 49.6825 38.1748C50.4761 37.3812 50.873 36.9844 50.873 35.7939C50.873 34.6034 51.6666 34.6034 53.6507 33.8098C54.6031 33.4923 53.2539 31.5611 52.4603 30.6352C51.5343 32.0902 49.6825 34.3653 49.6825 31.8256C49.6825 29.286 44.3915 26.2701 41.746 25.0796C41.4814 24.9473 40.9523 24.286 40.9523 22.6986C40.9523 21.7954 41.4663 21.2776 42.0556 20.9991C40.3659 21.2936 38.9608 21.1528 41.746 19.1272Z" fill="#0B6CA2"/>
<path fill-rule="evenodd" clip-rule="evenodd" d="M21.1111 22.6986C21.746 21.4288 19.7883 20.0531 18.7301 19.524L15.9523 20.7145L11.1904 31.032L13.1746 43.7304C14.365 45.8468 17.3015 50.3177 19.5238 51.2701C21.1984 51.9878 21.7192 51.4074 22.3905 50.6594C22.8327 50.1666 23.3401 49.6011 24.2857 49.286C26.2674 48.6254 24.4004 42.7415 23.4898 39.8717C23.3064 39.2936 23.1617 38.8378 23.0952 38.5717C22.8674 37.6604 23.9475 37.4031 25.4345 37.0488C26.5375 36.786 27.8645 36.4699 29.0476 35.7939C30.8647 34.7556 28.7762 31.6795 27.1143 29.2317C26.2356 27.9376 25.4761 26.819 25.4761 26.2701C25.4761 25.3482 24.9408 25.3633 24.2587 25.3825C23.7663 25.3963 23.1975 25.4123 22.6984 25.0796C22.1315 24.7017 22.4644 24.3237 22.7973 23.9458C23.1636 23.5301 23.5298 23.1144 22.6984 22.6986C21.7216 22.2102 21.0453 22.9241 20.8546 23.1755C20.9044 23.0931 20.989 22.9428 21.1111 22.6986ZM21.1111 31.8256C21.5079 29.8415 18.7301 29.8415 16.746 30.6352C16.0846 30.1061 14.9206 29.524 15.5555 31.4288C16.0473 32.9042 17.1487 33.0082 17.7264 33.0628C18.081 33.0962 18.2383 33.1111 17.9365 33.4129C17.5281 33.8213 17.2248 33.5993 17.1347 33.6659C17.0496 33.7288 17.1543 34.0485 17.5396 35.3971C18.3333 38.1748 20.7142 33.8098 21.1111 31.8256Z" fill="#0B6CA2"/>
<path d="M37.778 19.5234C36.1907 19.8409 32.0901 15.1583 30.2383 12.7774L36.5875 11.5869C36.1907 11.9837 35.9526 12.8568 38.1748 13.1742C40.9526 13.571 42.5399 16.7456 40.9526 15.952C39.6827 15.3171 39.3653 15.6874 39.3653 15.952C39.4975 17.0102 39.3653 19.206 37.778 19.5234Z" fill="#0B6CA2"/>
</svg>
