<svg width="70" height="70" viewBox="0 0 70 70" fill="none" xmlns="http://www.w3.org/2000/svg">
<path d="M0 0H70V54C70 62.8366 62.8366 70 54 70H0V0Z" fill="#F9D0CA"/>
<g clip-path="url(#clip0_198_4087)">
<path d="M35.3242 22.1444C35.5295 22.1444 35.7264 22.0621 35.8716 21.9156C36.0167 21.7691 36.0983 21.5704 36.0983 21.3632V16.4473H36.8506C37.0559 16.4473 37.2528 16.365 37.398 16.2184C37.5431 16.0719 37.6247 15.8732 37.6247 15.666V10.9785C37.6247 10.7713 37.5431 10.5726 37.398 10.4261C37.2528 10.2796 37.0559 10.1973 36.8506 10.1973H33.7545C33.5492 10.1973 33.3523 10.2796 33.2071 10.4261C33.062 10.5726 32.9804 10.7713 32.9804 10.9785V15.666C32.9804 15.8732 33.062 16.0719 33.2071 16.2184C33.3523 16.365 33.5492 16.4473 33.7545 16.4473H34.5502V21.3632C34.5502 21.5704 34.6317 21.7691 34.7769 21.9156C34.9221 22.0621 35.1189 22.1444 35.3242 22.1444ZM34.5285 11.7598H36.0766V14.8848H34.5285V11.7598ZM17.9144 59.9113C18.0041 59.9598 18.1024 59.9898 18.2037 59.9995C18.3049 60.0093 18.4071 59.9985 18.5042 59.968C18.6014 59.9375 18.6915 59.8877 18.7694 59.8216C18.8472 59.7556 18.9113 59.6745 18.9578 59.5832L25.6022 46.8129C28.6175 48.3453 31.9467 49.1426 35.3227 49.141C38.7502 49.141 42.2009 48.316 45.1747 46.8129L51.6442 59.5832C51.7401 59.7662 51.9037 59.9035 52.0994 59.9653C52.2951 60.0271 52.5071 60.0082 52.6892 59.9129C52.8709 59.8162 53.0073 59.6507 53.0685 59.4528C53.1297 59.2549 53.1108 59.0405 53.0158 58.8566L47.8025 45.0457C49.3571 44.1208 49.3664 44.0257 50.6472 42.7426C51.372 42.0096 51.7791 41.0164 51.7791 39.9809C51.7791 38.9453 51.372 37.9521 50.6472 37.2191C49.1843 35.7426 46.6315 35.7457 45.1747 37.2191C44.4425 37.9582 44.11 37.7769 43.257 38.3238L39.9267 31.4094C41.3401 30.2703 41.4717 29.2379 41.4717 27.2754C41.4717 23.8535 38.713 21.0676 35.3211 21.0676C31.9293 21.0676 29.1752 23.8535 29.1752 27.2769C29.1752 29.2379 28.9679 29.8915 30.3782 31.0306L26.9691 38.3238C26.1101 37.7747 26.1937 37.9438 25.4722 37.2207C24.0092 35.7441 21.4564 35.7473 19.9997 37.2207C19.2749 37.9536 18.8678 38.9469 18.8678 39.9824C18.8678 41.018 19.2749 42.0112 19.9997 42.7441C21.2748 44.0217 21.6343 44.1235 23.1812 45.0457L17.5893 58.8566C17.5418 58.9474 17.5126 59.0467 17.5033 59.1489C17.4939 59.2511 17.5047 59.3541 17.5349 59.4521C17.5651 59.5501 17.6142 59.6411 17.6793 59.7199C17.7444 59.7987 17.8243 59.8638 17.9144 59.9113ZM22.7351 37.6379C23.3559 37.6379 23.9396 37.8816 24.3792 38.3238C27.2989 41.2707 31.1846 42.3942 35.3242 42.3942C39.4638 42.3942 43.3526 41.2707 46.2723 38.3238C47.1486 37.4379 48.6796 37.441 49.5558 38.3238C49.9908 38.7635 50.2351 39.3595 50.2351 39.9809C50.2351 40.6022 49.9908 41.1982 49.5558 41.6379C47.6904 43.5282 45.4721 45.0266 43.0293 46.0462C40.5865 47.0659 37.9677 47.5867 35.3242 47.5785C32.6812 47.5871 30.0627 47.0664 27.6204 46.0467C25.1781 45.027 22.9604 43.5285 21.0957 41.6379C20.7722 41.3099 20.5521 40.8927 20.463 40.4387C20.374 39.9847 20.42 39.5143 20.5952 39.0867C20.7705 38.659 21.0672 38.2933 21.448 38.0355C21.8288 37.7777 22.2766 37.6393 22.7351 37.6379ZM30.7233 27.2769C30.7233 24.716 32.7869 22.6316 35.3242 22.6316C37.8615 22.6316 39.9267 24.716 39.9267 27.2769C39.9267 29.8379 37.8615 31.9223 35.3242 31.9223C32.7869 31.9223 30.7233 29.8363 30.7233 27.2769ZM32.8241 32.9363C33.6097 33.2953 34.4618 33.4822 35.3242 33.4848C36.2128 33.4848 36.4332 33.2801 37.1964 32.9363L41.4314 39.9051C39.5277 40.8454 37.436 41.3337 35.3165 41.3326C33.197 41.3315 31.1059 40.8411 29.2031 39.8988L32.8241 32.9363Z" fill="#C06700"/>
<path d="M24.3792 38.3238C23.9396 37.8816 23.3559 37.6379 22.7351 37.6379C22.2766 37.6393 21.8288 37.7777 21.448 38.0355C21.0672 38.2933 20.7705 38.659 20.5952 39.0867C20.42 39.5143 20.374 39.9847 20.463 40.4387C20.5521 40.8927 20.7722 41.3099 21.0957 41.6379L24.3792 38.3238Z" fill="#C06700"/>
<path d="M49.5558 38.3238C48.6796 37.441 47.1486 37.4379 46.2723 38.3238L49.5558 41.6379C49.9908 41.1982 50.2351 40.6022 50.2351 39.9809C50.2351 39.3595 49.9908 38.7635 49.5558 38.3238Z" fill="#C06700"/>
</g>
<defs>
<clipPath id="clip0_198_4087">
<rect width="50" height="50" fill="white" transform="translate(10 10)"/>
</clipPath>
</defs>
</svg>
