<svg width="70" height="70" viewBox="0 0 70 70" fill="none" xmlns="http://www.w3.org/2000/svg">
<path d="M0 0H70V54C70 62.8366 62.8366 70 54 70H0V0Z" fill="#F5F17E"/>
<path d="M48.6387 18.4113C48.6389 12.7079 44.3832 14.2057 43.0287 16.0752M43.0287 16.0752H26.6664M43.0287 16.0752C41.9347 17.5856 41.741 20.9327 45.3666 21.9105M46.7693 10C48.2653 10 49.8859 11.5576 50.5093 12.3364C54.6233 18.6916 50.9764 21.5265 48.6387 22.1496C47.306 22.2415 46.2284 22.1429 45.3666 21.9105M46.7693 10C45.2733 10 29.9391 10 22.459 10M46.7693 10H22.459M22.459 10C21.524 10.3115 19.467 11.215 18.719 12.3364C17.784 13.7383 14.9789 18.8787 20.589 22.1496C21.868 22.8953 22.9582 23.09 23.8613 22.9221M26.6664 16.0752C25.2638 14.2056 20.5888 13.2712 21.0563 18.4113M26.6664 16.0752C27.8324 17.6296 26.9195 22.3539 23.8613 22.9221M23.8613 22.9221V49.2523M23.8613 49.2523H45.3666M23.8613 49.2523C23.0821 49.0966 21.6173 49.7196 21.9913 53.4579M45.3666 49.2523V21.9105M45.3666 49.2523C45.9899 48.9408 47.2366 49.3458 47.2366 53.4579M47.2366 53.4579H21.9913M47.2366 53.4579C48.1716 53.3022 50.0416 54.3925 50.0416 60H19.1863C19.1863 55.514 21.0563 53.7695 21.9913 53.4579" stroke="#979221" stroke-width="2"/>
<rect x="27.5001" y="24.3516" width="1.85185" height="20.3704" rx="0.925926" stroke="#979221" stroke-width="0.925926"/>
<rect x="33.0557" y="22.5001" width="2.77778" height="22.2222" rx="1.38889" stroke="#979221" stroke-width="0.925926"/>
<rect x="39.5372" y="24.3516" width="1.85185" height="20.3704" rx="0.925926" stroke="#979221" stroke-width="0.925926"/>
</svg>
