<svg width="70" height="70" viewBox="0 0 70 70" fill="none" xmlns="http://www.w3.org/2000/svg">
<path d="M0 0H70V54C70 62.8366 62.8366 70 54 70H0V0Z" fill="#AFD9FF"/>
<path d="M55.8485 15H14.6364C12.6364 15 11 16.6364 11 18.6364V44.0909C11 46.0909 12.6364 47.7273 14.6364 47.7273H27.9697V50.2727C27.9091 50.5152 27.4242 51.1818 27.1818 51.4848C26.5152 52.3333 25.8485 53.1818 26.3333 54.1515C26.5152 54.5758 27 55 27.9697 55H41.9091C42.5152 55 43.9091 55 44.3939 53.9091C44.8788 52.8182 44.0303 51.9697 43.303 51.1818C43.0606 50.8788 42.6364 50.4545 42.5152 50.2121V47.7273H55.8485C57.8485 47.7273 59.4848 46.0909 59.4848 44.0909V18.6364C59.4848 16.6364 57.8485 15 55.8485 15ZM29.3636 52.5758C29.9091 51.9091 30.3939 51.1212 30.3939 50.2727V47.7273H40.0909V50.2727C40.0909 51.1212 40.697 51.9091 41.303 52.5758H29.3636ZM57.0606 44.0909C57.0606 44.7576 56.5152 45.303 55.8485 45.303H14.6364C13.9697 45.303 13.4242 44.7576 13.4242 44.0909V40.4545H57.0606V44.0909ZM57.0606 38.0303H13.4242V18.6364C13.4242 17.9697 13.9697 17.4242 14.6364 17.4242H55.8485C56.5152 17.4242 57.0606 17.9697 57.0606 18.6364V38.0303Z" fill="#002C55"/>
<path d="M18.6543 25.4546V24.5722H20.4191V30.7577H19.4434V25.4546H18.6543Z" fill="#002C55"/>
<path d="M21.748 27.5843C21.748 26.6058 21.912 25.8421 22.2401 25.2934C22.5738 24.7391 23.1451 24.4619 23.954 24.4619C24.7629 24.4619 25.3314 24.7391 25.6595 25.2934C25.9932 25.8421 26.1601 26.6058 26.1601 27.5843C26.1601 28.5742 25.9932 29.3492 25.6595 29.9092C25.3314 30.4635 24.7629 30.7407 23.954 30.7407C23.1451 30.7407 22.5738 30.4635 22.2401 29.9092C21.912 29.3492 21.748 28.5742 21.748 27.5843ZM25.2098 27.5843C25.2098 27.1262 25.1787 26.7387 25.1164 26.4219C25.0599 26.1051 24.9411 25.8478 24.7601 25.6498C24.5791 25.4462 24.3104 25.3443 23.954 25.3443C23.5976 25.3443 23.329 25.4462 23.148 25.6498C22.9669 25.8478 22.8453 26.1051 22.7831 26.4219C22.7265 26.7387 22.6983 27.1262 22.6983 27.5843C22.6983 28.0595 22.7265 28.4583 22.7831 28.7807C22.8397 29.1031 22.9585 29.3633 23.1395 29.5613C23.3261 29.7593 23.5976 29.8583 23.954 29.8583C24.3104 29.8583 24.5791 29.7593 24.7601 29.5613C24.9467 29.3633 25.0684 29.1031 25.1249 28.7807C25.1815 28.4583 25.2098 28.0595 25.2098 27.5843Z" fill="#002C55"/>
<path d="M27.0563 25.4546V24.5722H28.8211V30.7577H27.8454V25.4546H27.0563Z" fill="#002C55"/>
<path d="M30.1499 27.5843C30.1499 26.6058 30.314 25.8421 30.6421 25.2934C30.9758 24.7391 31.5471 24.4619 32.356 24.4619C33.1649 24.4619 33.7334 24.7391 34.0615 25.2934C34.3952 25.8421 34.5621 26.6058 34.5621 27.5843C34.5621 28.5742 34.3952 29.3492 34.0615 29.9092C33.7334 30.4635 33.1649 30.7407 32.356 30.7407C31.5471 30.7407 30.9758 30.4635 30.6421 29.9092C30.314 29.3492 30.1499 28.5742 30.1499 27.5843ZM33.6118 27.5843C33.6118 27.1262 33.5806 26.7387 33.5184 26.4219C33.4619 26.1051 33.3431 25.8478 33.1621 25.6498C32.9811 25.4462 32.7124 25.3443 32.356 25.3443C31.9996 25.3443 31.731 25.4462 31.5499 25.6498C31.3689 25.8478 31.2473 26.1051 31.1851 26.4219C31.1285 26.7387 31.1002 27.1262 31.1002 27.5843C31.1002 28.0595 31.1285 28.4583 31.1851 28.7807C31.2417 29.1031 31.3604 29.3633 31.5415 29.5613C31.7281 29.7593 31.9996 29.8583 32.356 29.8583C32.7124 29.8583 32.9811 29.7593 33.1621 29.5613C33.3487 29.3633 33.4703 29.1031 33.5269 28.7807C33.5835 28.4583 33.6118 28.0595 33.6118 27.5843Z" fill="#002C55"/>
<path d="M35.4583 25.4546V24.5722H37.2231V30.7577H36.2474V25.4546H35.4583Z" fill="#002C55"/>
<path d="M38.5519 27.5843C38.5519 26.6058 38.716 25.8421 39.0441 25.2934C39.3778 24.7391 39.9491 24.4619 40.758 24.4619C41.5669 24.4619 42.1354 24.7391 42.4634 25.2934C42.7972 25.8421 42.9641 26.6058 42.9641 27.5843C42.9641 28.5742 42.7972 29.3492 42.4634 29.9092C42.1354 30.4635 41.5669 30.7407 40.758 30.7407C39.9491 30.7407 39.3778 30.4635 39.0441 29.9092C38.716 29.3492 38.5519 28.5742 38.5519 27.5843ZM42.0137 27.5843C42.0137 27.1262 41.9826 26.7387 41.9204 26.4219C41.8638 26.1051 41.7451 25.8478 41.5641 25.6498C41.383 25.4462 41.1144 25.3443 40.758 25.3443C40.4016 25.3443 40.1329 25.4462 39.9519 25.6498C39.7709 25.8478 39.6493 26.1051 39.5871 26.4219C39.5305 26.7387 39.5022 27.1262 39.5022 27.5843C39.5022 28.0595 39.5305 28.4583 39.5871 28.7807C39.6436 29.1031 39.7624 29.3633 39.9434 29.5613C40.1301 29.7593 40.4016 29.8583 40.758 29.8583C41.1144 29.8583 41.383 29.7593 41.5641 29.5613C41.7507 29.3633 41.8723 29.1031 41.9289 28.7807C41.9855 28.4583 42.0137 28.0595 42.0137 27.5843Z" fill="#002C55"/>
<path d="M43.8603 25.4546V24.5722H45.6251V30.7577H44.6494V25.4546H43.8603Z" fill="#002C55"/>
<path d="M46.9539 27.5843C46.9539 26.6058 47.118 25.8421 47.446 25.2934C47.7798 24.7391 48.3511 24.4619 49.16 24.4619C49.9689 24.4619 50.5374 24.7391 50.8654 25.2934C51.1992 25.8421 51.366 26.6058 51.366 27.5843C51.366 28.5742 51.1992 29.3492 50.8654 29.9092C50.5374 30.4635 49.9689 30.7407 49.16 30.7407C48.3511 30.7407 47.7798 30.4635 47.446 29.9092C47.118 29.3492 46.9539 28.5742 46.9539 27.5843ZM50.4157 27.5843C50.4157 27.1262 50.3846 26.7387 50.3224 26.4219C50.2658 26.1051 50.1471 25.8478 49.966 25.6498C49.785 25.4462 49.5163 25.3443 49.16 25.3443C48.8036 25.3443 48.5349 25.4462 48.3539 25.6498C48.1729 25.8478 48.0513 26.1051 47.9891 26.4219C47.9325 26.7387 47.9042 27.1262 47.9042 27.5843C47.9042 28.0595 47.9325 28.4583 47.9891 28.7807C48.0456 29.1031 48.1644 29.3633 48.3454 29.5613C48.5321 29.7593 48.8036 29.8583 49.16 29.8583C49.5163 29.8583 49.785 29.7593 49.966 29.5613C50.1527 29.3633 50.2743 29.1031 50.3309 28.7807C50.3875 28.4583 50.4157 28.0595 50.4157 27.5843Z" fill="#002C55"/>
</svg>
