<svg width="70" height="70" viewBox="0 0 70 70" fill="none" xmlns="http://www.w3.org/2000/svg">
<path d="M0 0H70V54C70 62.8366 62.8366 70 54 70H0V0Z" fill="#FFDFBA"/>
<path d="M37.6709 32.5443C39.3526 29.8734 43.9031 24.6502 48.6514 25.125" stroke="#D78528" stroke-width="1.18709" stroke-linecap="round"/>
<path d="M39.4521 37.6195C41.1339 34.9486 45.6843 29.7254 50.4327 30.2002" stroke="#D78528" stroke-width="1.18709" stroke-linecap="round"/>
<path d="M41.2334 42.6957C42.9151 40.0248 47.4656 34.8016 52.2139 35.2764" stroke="#D78528" stroke-width="1.18709" stroke-linecap="round"/>
<path d="M32.0327 26.9053C25.1476 22.8692 15.1167 27.2021 10.9619 29.8731L19.5683 53.3181C24.0792 49.7568 35.6928 50.6471 40.9358 51.5374C42.1229 48.6884 53.4991 42.6343 59.0388 39.9633C58.8014 38.5388 53.598 23.9376 51.026 16.8151C41.2919 15.8654 34.3079 23.1462 32.0327 26.9053Z" stroke="#D78528" stroke-width="1.78063"/>
<path d="M17.1943 34.622C20.261 33.1381 27.4033 30.8233 31.4393 33.4349" stroke="#D78528" stroke-width="1.18709" stroke-linecap="round"/>
<path d="M19.2715 40.2558C22.3381 38.7719 29.4804 36.4571 33.5165 39.0687" stroke="#D78528" stroke-width="1.18709" stroke-linecap="round"/>
<path d="M21.3496 45.8906C24.4162 44.4067 31.5585 42.0919 35.5946 44.7035" stroke="#D78528" stroke-width="1.18709" stroke-linecap="round"/>
<path d="M32.0322 26.0156L40.9354 51.5381" stroke="#D78528" stroke-width="1.18709"/>
</svg>
