<svg width="242" height="139" viewBox="0 0 242 139" fill="none" xmlns="http://www.w3.org/2000/svg">
<g clip-path="url(#clip0_101_107647)">
<rect x="108" y="60" width="134" height="28" rx="8" fill="white"/>
<path d="M121.317 82.831C121.317 84.7027 120.679 86.0846 119.402 86.9767C118.125 87.8688 116.402 88.3149 114.233 88.3149C113.376 88.3149 112.519 88.2274 111.661 88.0525C110.804 87.895 110.061 87.7201 109.431 87.5277V84.9301C109.589 84.9826 109.816 85.0788 110.113 85.2187C110.411 85.3586 110.769 85.4898 111.189 85.6123C111.609 85.7522 112.09 85.8747 112.632 85.9796C113.175 86.0846 113.787 86.1371 114.469 86.1371C114.994 86.1371 115.501 86.0933 115.991 86.0059C116.498 85.9009 116.944 85.726 117.329 85.4811C117.714 85.2537 118.02 84.9476 118.247 84.5627C118.475 84.1779 118.588 83.6969 118.588 83.1196C118.588 82.5774 118.475 82.1226 118.247 81.7552C118.037 81.3704 117.775 81.038 117.46 80.7581C117.128 80.4958 116.761 80.2684 116.358 80.0759C115.956 79.866 115.562 79.6561 115.177 79.4462C114.583 79.1663 113.935 78.8515 113.236 78.5016C112.536 78.1518 111.889 77.7582 111.294 77.3209C110.699 76.8661 110.201 76.3588 109.799 75.7991C109.414 75.2218 109.221 74.5571 109.221 73.8049C109.221 72.1082 109.799 70.8574 110.953 70.0528C112.125 69.2481 113.621 68.8458 115.44 68.8458C115.877 68.8458 116.323 68.8808 116.778 68.9508C117.233 69.0207 117.67 69.0995 118.09 69.1869C118.51 69.2744 118.895 69.3618 119.244 69.4493C119.594 69.5193 119.883 69.5718 120.11 69.6067V72.1256C119.76 71.9682 119.148 71.7671 118.274 71.5222C117.399 71.2598 116.393 71.1023 115.256 71.0499C114.277 71.0499 113.481 71.2685 112.868 71.7058C112.274 72.1431 111.976 72.7816 111.976 73.6212C111.976 73.9886 112.055 74.3122 112.212 74.5921C112.387 74.872 112.606 75.1256 112.868 75.353C113.148 75.5804 113.463 75.7903 113.813 75.9827C114.18 76.1751 114.556 76.3763 114.941 76.5862L116.935 77.5308C117.355 77.7932 117.81 78.0556 118.3 78.318C118.807 78.5629 119.279 78.869 119.717 79.2363C120.154 79.6211 120.521 80.1022 120.819 80.6794C121.116 81.2392 121.282 81.9564 121.317 82.831ZM135.103 79.1838H132.584C132.584 78.8515 132.54 78.5279 132.453 78.213C132.365 77.8981 132.208 77.6095 131.98 77.3471C131.77 77.1022 131.473 76.9011 131.088 76.7436C130.703 76.5862 130.222 76.5075 129.645 76.5075C128.491 76.5075 127.537 76.8661 126.785 77.5833C126.033 78.3005 125.657 79.3325 125.657 80.6794C125.657 81.3966 125.736 82.0963 125.893 82.7785C126.05 83.4432 126.348 84.038 126.785 84.5627C127.205 85.0875 127.8 85.5161 128.569 85.8484C129.339 86.1633 130.327 86.3207 131.534 86.3207C131.622 86.3207 131.788 86.3032 132.033 86.2683C132.278 86.2333 132.549 86.1808 132.846 86.1108C133.161 86.0234 133.485 85.9272 133.817 85.8222C134.149 85.6997 134.456 85.5598 134.735 85.4024V87.2916C133.913 87.6939 133.074 87.965 132.217 88.105C131.377 88.2449 130.555 88.2799 129.75 88.2099C128.945 88.1399 128.185 87.9825 127.467 87.7376C126.768 87.4927 126.173 87.1779 125.683 86.793C124.948 86.2333 124.336 85.4549 123.846 84.4578C123.374 83.4607 123.138 82.3325 123.138 81.073C123.138 79.1139 123.706 77.5395 124.844 76.3501C125.998 75.1431 127.625 74.5396 129.724 74.5396C131.281 74.5396 132.566 74.9069 133.581 75.6416C134.596 76.3763 135.103 77.557 135.103 79.1838Z" fill="white"/>
<ellipse cx="71.9785" cy="73.637" rx="51.8379" ry="51.6351" fill="white"/>
<ellipse cx="72" cy="73.5" rx="39" ry="38.5" fill="#D0EEFF" fill-opacity="0.5"/>
<ellipse cx="5.37861" cy="81.3571" rx="5.37861" ry="5.35714" fill="white"/>
<ellipse cx="8.48218" cy="41.4643" rx="4.48218" ry="4.46429" fill="#FFA135"/>
<ellipse cx="25.0917" cy="120.935" rx="2.09168" ry="1.93452" fill="#4599F9"/>
<ellipse cx="2.39049" cy="2.38095" rx="2.39049" ry="2.38095" transform="matrix(-1 0 0 1 16.7812 22)" fill="#7CD0FF"/>
<ellipse cx="1.19525" cy="1.19048" rx="1.19525" ry="1.19048" transform="matrix(-1 0 0 1 8.39062 28)" fill="white"/>
<ellipse cx="42.2878" cy="133.07" rx="5.0798" ry="5.05952" fill="#FFEFD8"/>
<ellipse cx="139.54" cy="106.53" rx="2.5399" ry="2.52976" fill="#4599F9"/>
<ellipse cx="155.988" cy="105.976" rx="2.98812" ry="2.97619" fill="white"/>
<ellipse cx="141.988" cy="97.9762" rx="2.98812" ry="2.97619" fill="white"/>
<ellipse cx="155.39" cy="27.381" rx="2.39049" ry="2.38095" fill="#FF7F68"/>
<ellipse cx="137.735" cy="36.7202" rx="3.73515" ry="3.72024" fill="white"/>
<ellipse cx="133.735" cy="18.7202" rx="3.73515" ry="3.72024" fill="white"/>
<mask id="mask0_101_107647" style="mask-type:alpha" maskUnits="userSpaceOnUse" x="1" y="50" width="27" height="26">
<ellipse cx="14.0335" cy="62.9514" rx="12.9983" ry="12.9475" fill="#80641B"/>
</mask>
<g mask="url(#mask0_101_107647)">
<ellipse cx="14.0335" cy="62.9514" rx="12.9983" ry="12.9475" fill="#FFD568"/>
<path d="M6.67689 69.7288C10.6295 62.1873 17.1644 58.9185 19.7599 58.2466C11.7599 62.1834 7.40811 68.5035 6.49902 70.8158L6.67689 69.7288Z" fill="#6C5D36"/>
<path d="M21.499 57.6141C13.9733 59.875 9.58856 64.7485 8.33691 66.9027C8.82306 64.7581 9.55866 63.0595 10.4476 61.7248L10.6492 63.543L11.3211 60.5798C11.9209 59.8937 12.5673 59.3355 13.2381 58.886C13.3453 58.8142 13.1477 59.321 12.9408 59.849L12.6057 60.9343C12.7891 60.8326 14.278 58.2795 14.4634 58.1921C15.0675 57.9074 15.6801 57.6969 16.2861 57.5479C16.43 57.5126 15.3086 59.5597 15.4515 59.5311L16.3865 58.4737C16.8261 57.921 17.2743 57.3557 17.3883 57.3406C18.9611 57.1324 20.424 57.3029 21.499 57.6141C20.608 58.6486 19.7128 59.5888 18.8301 60.4402C18.7739 60.4944 18.1059 60.5635 17.4472 60.6321L16.1235 60.8157C15.9835 60.9476 18.2191 61.0181 18.08 61.1456C17.6198 61.5673 17.1645 61.9649 16.7164 62.3391C16.5722 62.4596 14.3293 62.795 14.1867 62.9106L15.0527 62.9713C15.4985 62.9728 15.9347 62.9747 15.8666 63.0283C15.3314 63.4496 14.8095 63.8366 14.3053 64.191C14.237 64.239 13.5391 64.2675 12.8582 64.2958L11.5187 64.3928C11.3315 64.5204 13.5383 64.7154 13.3567 64.8339C11.3134 66.1671 9.64322 66.9243 8.69265 67.2189C11.9021 61.9857 18.5675 58.6352 21.499 57.6141Z" fill="#6C5D36"/>
</g>
<mask id="mask1_101_107647" style="mask-type:alpha" maskUnits="userSpaceOnUse" x="10" y="81" width="29" height="29">
<ellipse cx="24.3548" cy="95.2987" rx="14.3548" ry="14.2987" fill="#FF806A"/>
</mask>
<g mask="url(#mask1_101_107647)">
<ellipse cx="24.3548" cy="95.2987" rx="14.3548" ry="14.2987" fill="#FFDFBA"/>
<path d="M23.2686 94.3714C22.585 93.2901 20.7354 91.1755 18.8053 91.3677" stroke="#D78528" stroke-width="0.480589" stroke-linecap="round"/>
<path d="M22.5449 96.4271C21.8614 95.3458 20.0117 93.2312 18.0817 93.4234" stroke="#D78528" stroke-width="0.480589" stroke-linecap="round"/>
<path d="M21.8213 98.4818C21.1377 97.4004 19.2881 95.2859 17.358 95.4781" stroke="#D78528" stroke-width="0.480589" stroke-linecap="round"/>
<path d="M25.5604 92.0893C28.3589 90.4552 32.4362 92.2095 34.125 93.2909L30.6268 102.783C28.7932 101.341 24.0726 101.702 21.9415 102.062C21.459 100.909 16.8349 98.4576 14.5831 97.3762C14.6796 96.7995 16.7947 90.8877 17.8401 88.004C21.7967 87.6195 24.6355 90.5673 25.5604 92.0893Z" stroke="#D78528" stroke-width="0.720884"/>
<path d="M31.5918 95.2134C30.3453 94.6127 27.4422 93.6755 25.8016 94.7328" stroke="#D78528" stroke-width="0.480589" stroke-linecap="round"/>
<path d="M30.748 97.4947C29.5015 96.8939 26.5984 95.9568 24.9579 97.0141" stroke="#D78528" stroke-width="0.480589" stroke-linecap="round"/>
<path d="M29.9033 99.7759C28.6568 99.1752 25.7537 98.238 24.1131 99.2953" stroke="#D78528" stroke-width="0.480589" stroke-linecap="round"/>
<path d="M25.5605 91.7285L21.9417 102.061" stroke="#D78528" stroke-width="0.480589"/>
</g>
<mask id="mask2_101_107647" style="mask-type:alpha" maskUnits="userSpaceOnUse" x="113" y="87" width="29" height="28">
<ellipse cx="127.05" cy="100.995" rx="14.0502" ry="13.9953" fill="#21D59A"/>
</mask>
<g mask="url(#mask2_101_107647)">
<ellipse cx="127.05" cy="100.995" rx="14.0502" ry="13.9953" fill="#4599F9"/>
<path d="M134.044 100.996C134.044 104.892 130.873 108.053 126.959 108.053C123.044 108.053 119.873 104.892 119.873 100.996C119.873 97.1003 123.044 93.9397 126.959 93.9397C130.873 93.9397 134.044 97.1003 134.044 100.996Z" stroke="white" stroke-width="0.705587"/>
<path d="M128.965 96.2919C130.004 95.5393 131.366 96.2919 131.917 96.7623L132.625 96.6447L134.042 99.2319C133.885 99.3103 133.57 99.6317 133.57 100.29C133.57 100.949 132.468 101.349 131.917 101.466C131.799 101.662 131.516 102.078 131.327 102.172C131.091 102.289 131.681 102.525 131.563 103.348C131.445 104.171 130.736 104.406 130.264 104.877C129.886 105.253 130.185 106.131 130.382 106.523L130.5 106.993C130.343 107.072 129.934 107.229 129.556 107.229C129.083 107.229 128.493 105.347 128.021 105.229C127.549 105.112 127.194 103.23 127.667 102.76C128.139 102.289 130.382 101.231 130.854 101.113C131.327 100.996 131.091 102.172 131.327 101.937C131.563 101.701 131.681 101.584 131.681 101.231C131.681 100.878 131.917 100.878 132.507 100.643C132.791 100.549 132.389 99.9767 132.153 99.7023C131.878 100.133 131.327 100.808 131.327 100.055C131.327 99.3024 129.752 98.4087 128.965 98.0559C128.887 98.0167 128.729 97.8207 128.729 97.3503C128.729 97.0827 128.882 96.9292 129.057 96.8467C128.555 96.9339 128.137 96.8922 128.965 96.2919Z" fill="white"/>
<path fill-rule="evenodd" clip-rule="evenodd" d="M122.826 97.3503C123.015 96.974 122.432 96.5663 122.117 96.4095L121.291 96.7623L119.874 99.8199L120.464 103.583C120.819 104.21 121.692 105.535 122.353 105.817C122.852 106.03 123.007 105.858 123.206 105.636C123.338 105.49 123.489 105.323 123.77 105.229C124.36 105.034 123.804 103.29 123.534 102.439C123.479 102.268 123.436 102.133 123.416 102.054C123.348 101.784 123.67 101.708 124.112 101.603C124.44 101.525 124.835 101.431 125.187 101.231C125.728 100.923 125.106 100.012 124.612 99.2864C124.35 98.9029 124.125 98.5714 124.125 98.4087C124.125 98.1355 123.965 98.14 123.762 98.1457C123.616 98.1498 123.447 98.1545 123.298 98.0559C123.129 97.9439 123.228 97.8319 123.327 97.7199C123.436 97.5967 123.545 97.4735 123.298 97.3503C123.007 97.2056 122.806 97.4171 122.749 97.4916C122.764 97.4672 122.789 97.4227 122.826 97.3503ZM122.826 100.055C122.944 99.4671 122.117 99.4671 121.527 99.7023C121.33 99.5455 120.984 99.373 121.173 99.9375C121.319 100.375 121.647 100.406 121.819 100.422C121.924 100.432 121.971 100.436 121.881 100.525C121.76 100.646 121.669 100.581 121.643 100.6C121.617 100.619 121.648 100.714 121.763 101.113C121.999 101.937 122.708 100.643 122.826 100.055Z" fill="white"/>
<path d="M127.785 96.4096C127.313 96.5037 126.093 95.116 125.542 94.4104L127.431 94.0576C127.313 94.1752 127.242 94.4339 127.903 94.528C128.73 94.6456 129.202 95.5864 128.73 95.3512C128.352 95.163 128.258 95.2728 128.258 95.3512C128.297 95.6648 128.258 96.3155 127.785 96.4096Z" fill="white"/>
</g>
<mask id="mask3_101_107647" style="mask-type:alpha" maskUnits="userSpaceOnUse" x="113" y="30" width="30" height="30">
<path d="M142.434 44.7333C142.434 52.7876 135.878 59.3178 127.791 59.3178C119.704 59.3178 113.149 52.7876 113.149 44.7333C113.149 36.6791 119.704 30.1488 127.791 30.1488C135.878 30.1488 142.434 36.6791 142.434 44.7333Z" fill="#979221" stroke="white" stroke-width="0.297619"/>
</mask>
<g mask="url(#mask3_101_107647)">
<ellipse cx="127.791" cy="44.7333" rx="14.7912" ry="14.7333" fill="#FFA135"/>
<path d="M133.321 38.1093C133.321 35.999 131.746 36.5532 131.245 37.2449M131.245 37.2449H125.191M131.245 37.2449C130.84 37.8037 130.768 39.0422 132.11 39.404M132.629 34.9971C133.182 34.9971 133.782 35.5734 134.013 35.8616C135.535 38.213 134.185 39.2619 133.321 39.4924C132.827 39.5264 132.429 39.49 132.11 39.404M132.629 34.9971C132.075 34.9971 126.402 34.9971 123.634 34.9971M132.629 34.9971H123.634M123.634 34.9971C123.288 35.1123 122.527 35.4466 122.25 35.8616C121.904 36.3802 120.866 38.2822 122.942 39.4924C123.415 39.7683 123.819 39.8404 124.153 39.7783M125.191 37.2449C124.672 36.5531 122.942 36.2074 123.115 38.1093M125.191 37.2449C125.622 37.82 125.284 39.568 124.153 39.7783M124.153 39.7783V49.5204M124.153 49.5204H132.11M124.153 49.5204C123.865 49.4628 123.323 49.6933 123.461 51.0765M132.11 49.5204V39.404M132.11 49.5204C132.34 49.4052 132.802 49.555 132.802 51.0765M132.802 51.0765H123.461M132.802 51.0765C133.148 51.0189 133.84 51.4223 133.84 53.4971H122.423C122.423 51.8373 123.115 51.1918 123.461 51.0765" stroke="white"/>
<rect x="125.928" y="40.8786" width="0.570988" height="6.28086" rx="0.285494" stroke="white" stroke-width="0.285494"/>
<rect x="127.641" y="40.3073" width="0.856482" height="6.85185" rx="0.428241" stroke="white" stroke-width="0.285494"/>
<rect x="129.639" y="40.8786" width="0.570988" height="6.28086" rx="0.285494" stroke="white" stroke-width="0.285494"/>
</g>
<mask id="mask4_101_107647" style="mask-type:alpha" maskUnits="userSpaceOnUse" x="88" y="12" width="26" height="26">
<ellipse cx="100.55" cy="24.501" rx="12.5501" ry="12.501" fill="#FF7F68"/>
</mask>
<g mask="url(#mask4_101_107647)">
<ellipse cx="100.55" cy="24.501" rx="12.5501" ry="12.501" fill="#B5F5B4"/>
<path fill-rule="evenodd" clip-rule="evenodd" d="M100.767 25.3114C99.5217 23.1593 99.5085 18.4411 109.417 16.7851C108.717 23.4954 103.358 25.2653 100.767 25.3114ZM106.114 20.5389C105.842 20.4591 105.732 20.3366 105.619 20.1991C105.804 20.0249 105.974 19.8516 106.138 19.6851C106.409 19.41 106.661 19.1533 106.93 18.941C107.383 18.5834 107.782 18.318 108.097 18.1823C108.412 18.0466 108.354 17.8426 108.013 17.9895C107.673 18.1364 107.256 18.4158 106.799 18.7763C106.676 18.8733 106.552 18.9676 106.426 19.0633C106.093 19.3164 105.747 19.5791 105.382 19.9245C105.361 19.9205 105.336 19.9488 105.314 19.9735C105.295 19.9946 105.279 20.013 105.27 20.0062C105.243 19.9866 105.223 19.9587 105.209 19.9189C105.179 19.8344 105.183 19.7062 105.22 19.5446C105.294 19.2259 105.482 18.8429 105.635 18.5861C105.788 18.3293 105.611 18.2141 105.454 18.4787C105.296 18.7434 105.095 19.148 105.015 19.4976C104.975 19.6702 104.96 19.8463 105.01 19.988C105.035 20.0614 105.079 20.1271 105.145 20.1756C105.159 20.1855 105.173 20.1945 105.188 20.2026C105.012 20.3711 104.865 20.5222 104.708 20.6833C104.629 20.7637 104.548 20.8467 104.46 20.9354C104.413 20.8857 104.358 20.8342 104.3 20.7799C104.159 20.6484 104.001 20.5013 103.908 20.3276C103.831 20.1851 103.778 20.047 103.761 19.9241C103.744 19.8026 103.763 19.7035 103.821 19.6262C103.879 19.5489 103.753 19.3665 103.652 19.5006C103.552 19.6347 103.53 19.7943 103.552 19.9527C103.574 20.1098 103.639 20.2728 103.722 20.4269C103.867 20.6955 104.075 20.9541 104.246 21.1343C104.016 21.3683 103.798 21.5831 103.588 21.79C103.205 22.168 102.849 22.5198 102.492 22.9142C102.465 22.8907 102.421 22.8895 102.376 22.8883C102.311 22.8866 102.244 22.8848 102.219 22.8174C102.172 22.6873 102.166 22.537 102.159 22.3669C102.158 22.3404 102.157 22.3134 102.156 22.2859C102.138 21.8788 102.197 21.4302 102.258 21.1421C102.319 20.8539 102.115 20.7991 102.052 21.0988C101.988 21.3984 101.926 21.8655 101.945 22.2954C101.955 22.5101 101.986 22.7211 102.05 22.8989C102.098 23.0326 102.168 23.1541 102.269 23.2423C101.93 23.6195 101.626 23.9663 101.374 24.2606L101.535 24.3969C101.794 24.0946 102.108 23.7362 102.459 23.346C102.971 23.5098 104.12 23.696 105.154 23.2722C105.154 23.2722 105.99 22.7025 105.074 23.0779C104.217 23.429 103.422 23.2012 102.898 23.051C102.862 23.0407 102.827 23.0306 102.793 23.0212C102.923 22.8781 103.046 22.7403 103.168 22.6045C103.549 22.1792 103.912 21.7743 104.386 21.2919C104.518 21.44 104.719 21.6119 104.972 21.7353C105.283 21.8873 105.675 21.9675 106.109 21.8333C106.543 21.6992 106.419 21.5177 106.047 21.6327C105.675 21.7477 105.338 21.6804 105.065 21.5467C104.832 21.4331 104.648 21.2729 104.534 21.1417C104.816 20.8572 105.1 20.5774 105.38 20.3096C105.52 20.4745 105.747 20.6502 106.055 20.7404C106.43 20.8503 106.914 20.8305 107.489 20.5248C108.064 20.2191 107.921 20.0567 107.39 20.3395C106.858 20.6222 106.43 20.6316 106.114 20.5389Z" fill="#0C9D09"/>
<path fill-rule="evenodd" clip-rule="evenodd" d="M98.5807 27.6095C100.025 25.5845 100.486 20.8887 90.7798 18.3062C90.8389 25.0523 96.0051 27.3193 98.5807 27.6095ZM93.7103 22.3546C93.9888 22.3008 94.11 22.1893 94.2352 22.063C94.068 21.8722 93.9148 21.6836 93.7676 21.5024C93.5245 21.203 93.2976 20.9237 93.05 20.687C92.6332 20.2883 92.2608 19.9865 91.9603 19.8217C91.6598 19.6569 91.7367 19.4593 92.062 19.6377C92.3873 19.816 92.7757 20.1334 93.1961 20.5354C93.3091 20.6435 93.4238 20.7491 93.5402 20.8563C93.8478 21.1396 94.1671 21.4337 94.4979 21.812C94.5192 21.81 94.5414 21.8406 94.5607 21.8672C94.5772 21.89 94.5916 21.9098 94.6016 21.9039C94.6301 21.887 94.6531 21.8611 94.6707 21.8228C94.7082 21.7414 94.7167 21.6134 94.695 21.4491C94.6521 21.1249 94.5013 20.7259 94.3732 20.4558C94.245 20.1857 94.4318 20.0877 94.5639 20.366C94.6959 20.6443 94.857 21.0661 94.9041 21.4217C94.9273 21.5973 94.9252 21.774 94.8625 21.9103C94.8299 21.981 94.7804 22.0423 94.7097 22.0843C94.6952 22.0929 94.6802 22.1005 94.6646 22.1071C94.8237 22.2915 94.956 22.4558 95.0971 22.631C95.1675 22.7185 95.2401 22.8086 95.3193 22.9053C95.3706 22.8602 95.4306 22.8141 95.4936 22.7656C95.6464 22.648 95.8174 22.5164 95.9272 22.3522C96.0171 22.2177 96.083 22.0851 96.1115 21.9644C96.1397 21.845 96.13 21.7446 96.0797 21.6622C96.0293 21.5797 96.1726 21.4101 96.2599 21.553C96.3471 21.696 96.3536 21.8569 96.3168 22.0126C96.2804 22.1669 96.2001 22.3231 96.1027 22.4687C95.9331 22.7224 95.7007 22.9602 95.5139 23.1235C95.7207 23.3781 95.9171 23.6125 96.1062 23.8383C96.4517 24.2506 96.7733 24.6345 97.0907 25.0608C97.12 25.0399 97.1639 25.0428 97.209 25.0459C97.2736 25.0503 97.3408 25.0549 97.3715 24.99C97.4307 24.865 97.451 24.7159 97.4738 24.5472C97.4774 24.5209 97.481 24.4941 97.4849 24.4669C97.542 24.0634 97.5254 23.6112 97.4921 23.3186C97.4588 23.026 97.6671 22.9906 97.7017 23.2949C97.7363 23.5992 97.754 24.0701 97.6937 24.4962C97.6636 24.7091 97.6133 24.9162 97.5323 25.0872C97.4715 25.2157 97.3902 25.3301 97.2817 25.4083C97.5832 25.8158 97.8527 26.1897 98.0757 26.5064L97.903 26.627C97.6739 26.3016 97.3951 25.9152 97.0828 25.4937C96.557 25.6084 95.3955 25.6855 94.4063 25.1661C94.4063 25.1661 93.6285 24.5202 94.5047 24.9802C95.3242 25.4105 96.1375 25.2587 96.6735 25.1586C96.7106 25.1517 96.7463 25.1451 96.7806 25.1389C96.6652 24.9842 96.5553 24.8353 96.4471 24.6887C96.1081 24.2293 95.7854 23.7921 95.3594 23.2672C95.2142 23.4022 94.9973 23.5543 94.7341 23.6534C94.4101 23.7753 94.0114 23.8182 93.5922 23.6437C93.173 23.4692 93.3143 23.3004 93.6735 23.4499C94.0328 23.5994 94.3744 23.5641 94.6595 23.4568C94.9017 23.3657 95.0998 23.2235 95.2261 23.1037C94.9724 22.7938 94.7164 22.4886 94.4627 22.1955C94.3085 22.3466 94.0652 22.5 93.7505 22.5608C93.3667 22.6349 92.8862 22.5695 92.343 22.211C91.7999 21.8525 91.9572 21.7043 92.4595 22.0359C92.9619 22.3675 93.3868 22.4171 93.7103 22.3546Z" fill="#0C9D09"/>
<path fill-rule="evenodd" clip-rule="evenodd" d="M99.3872 30.7436C98.9996 28.2899 100.686 23.8807 110.531 25.873C107.462 31.8873 101.823 31.6261 99.3872 30.7436ZM106.097 28.1977C105.871 28.0261 105.813 27.8724 105.757 27.7038C105.992 27.6071 106.214 27.5062 106.426 27.4092C106.778 27.249 107.106 27.0995 107.433 26.9974C107.985 26.8253 108.453 26.7202 108.796 26.7059C109.139 26.6916 109.158 26.4805 108.787 26.496C108.416 26.5114 107.926 26.6233 107.37 26.7969C107.221 26.8435 107.071 26.8872 106.919 26.9316C106.517 27.0489 106.099 27.1706 105.634 27.3626C105.616 27.3514 105.582 27.3689 105.553 27.3842C105.528 27.3972 105.506 27.4086 105.5 27.3989C105.482 27.3711 105.473 27.3377 105.475 27.2956C105.477 27.2061 105.527 27.0877 105.62 26.9503C105.803 26.6789 106.117 26.3885 106.352 26.2035C106.588 26.0185 106.464 25.8479 106.221 26.0386C105.979 26.2292 105.646 26.5354 105.445 26.8329C105.346 26.9799 105.268 27.139 105.264 27.289C105.261 27.3666 105.278 27.4435 105.323 27.5125C105.332 27.5266 105.342 27.5401 105.353 27.5529C105.128 27.6474 104.936 27.7359 104.731 27.8302C104.629 27.8773 104.524 27.9258 104.41 27.9773C104.384 27.9142 104.351 27.8463 104.316 27.7749C104.232 27.6018 104.138 27.4081 104.113 27.2124C104.092 27.0521 104.093 26.9042 104.121 26.7834C104.149 26.664 104.203 26.5784 104.285 26.5269C104.367 26.4754 104.314 26.2599 104.172 26.3493C104.03 26.4386 103.952 26.5798 103.916 26.7355C103.879 26.8898 103.882 27.0653 103.904 27.2388C103.942 27.5412 104.044 27.8572 104.138 28.0863C103.839 28.2226 103.558 28.3453 103.288 28.4636C102.794 28.6797 102.335 28.8807 101.86 29.1217C101.843 29.09 101.803 29.0732 101.761 29.0559C101.701 29.0312 101.639 29.0055 101.64 28.9338C101.643 28.7956 101.692 28.6531 101.747 28.4919C101.755 28.4668 101.764 28.4412 101.773 28.4151C101.902 28.0285 102.119 27.6309 102.28 27.3837C102.44 27.1365 102.27 27.0124 102.103 27.2696C101.936 27.5267 101.709 27.9404 101.573 28.3487C101.504 28.5527 101.457 28.7605 101.453 28.9495C101.45 29.0915 101.472 29.23 101.534 29.3482C101.082 29.5794 100.673 29.7946 100.332 29.9793L100.433 30.1639C100.783 29.9741 101.206 29.7517 101.674 29.5128C102.093 29.8487 103.099 30.4329 104.217 30.4065C104.217 30.4065 105.202 30.1731 104.212 30.1965C103.285 30.2183 102.625 29.7216 102.19 29.3943C102.16 29.3717 102.131 29.3499 102.103 29.3291C102.275 29.2418 102.44 29.1572 102.603 29.0739C103.112 28.813 103.596 28.5646 104.212 28.2836C104.282 28.4688 104.408 28.7012 104.599 28.9066C104.835 29.1595 105.173 29.3747 105.626 29.4044C106.08 29.4341 106.028 29.2202 105.64 29.1948C105.252 29.1693 104.961 28.9863 104.754 28.7637C104.578 28.5747 104.464 28.3595 104.405 28.1962C104.77 28.0313 105.136 27.8715 105.494 27.7216C105.565 27.9253 105.714 28.1706 105.969 28.3646C106.279 28.6011 106.739 28.7557 107.385 28.6756C108.032 28.5954 107.957 28.3929 107.359 28.4671C106.761 28.5412 106.358 28.3971 106.097 28.1977Z" fill="#0C9D09"/>
</g>
<mask id="mask5_101_107647" style="mask-type:alpha" maskUnits="userSpaceOnUse" x="20" y="21" width="31" height="31">
<ellipse cx="35.2992" cy="36.2393" rx="15.2992" ry="15.2393" fill="#CAF3EE"/>
</mask>
<g mask="url(#mask5_101_107647)">
<ellipse cx="35.2992" cy="36.4952" rx="15.2992" ry="15.2393" fill="#EE6046"/>
<path d="M27.3759 33.192V35.464H31.8968V37.576H27.3759V40.04H32.489V42.232H24V31H32.489V33.192H27.3759Z" fill="white"/>
<path d="M41.393 33.208C42.6828 33.208 43.7093 33.5493 44.4727 34.232C45.2492 34.904 45.6375 35.832 45.6375 37.016V42.232H42.2813V37.384C42.2813 36.7867 42.0905 36.3227 41.7088 35.992C41.3271 35.6613 40.8139 35.496 40.169 35.496C39.5241 35.496 39.0108 35.6613 38.6291 35.992C38.2474 36.3227 38.0566 36.7867 38.0566 37.384V42.232H34.6807V33.304H38.0566V34.488C38.3988 34.0933 38.8594 33.784 39.4385 33.56C40.0176 33.3253 40.6691 33.208 41.393 33.208Z" fill="white"/>
<g opacity="0.5">
<rect x="31.5713" y="20.7441" width="7.19961" height="31.247" fill="white"/>
<rect x="50.8564" y="32.7822" width="7.17087" height="31.3697" transform="rotate(90 50.8564 32.7822)" fill="white"/>
<rect width="2.2523" height="31.3385" transform="matrix(0.50147 0.865175 -0.866872 0.498531 48.1895 27.582)" fill="white"/>
<rect width="2.2523" height="31.3385" transform="matrix(-0.501471 0.865175 0.866872 0.498531 22.1523 27.582)" fill="white"/>
</g>
</g>
<mask id="mask6_101_107647" style="mask-type:alpha" maskUnits="userSpaceOnUse" x="54" y="0" width="31" height="31">
<ellipse cx="69.09" cy="15.031" rx="15.09" ry="15.031" fill="#CAF3EE"/>
</mask>
<g mask="url(#mask6_101_107647)">
<ellipse cx="69.09" cy="15.031" rx="15.09" ry="15.031" fill="#CDD8FF"/>
<path d="M71.6202 15.0323C71.6202 17.9828 71.3233 20.6455 70.8476 22.5633C70.6093 23.5241 70.3295 24.2838 70.0285 24.7972C69.7171 25.3281 69.4321 25.5161 69.2098 25.5161C68.9876 25.5161 68.7025 25.3281 68.3912 24.7972C68.0901 24.2838 67.8103 23.5241 67.572 22.5633C67.0963 20.6455 66.7995 17.9828 66.7995 15.0323C66.7995 12.0818 67.0963 9.41912 67.572 7.50133C67.8103 6.54048 68.0901 5.78078 68.3912 5.2674C68.7025 4.73653 68.9876 4.5485 69.2098 4.5485C69.4321 4.5485 69.7171 4.73653 70.0285 5.2674C70.3295 5.78078 70.6093 6.54048 70.8476 7.50133C71.3233 9.41912 71.6202 12.0818 71.6202 15.0323Z" stroke="#0C40F9" stroke-width="0.505202"/>
<path d="M70.5867 17.1079C68.0895 18.6948 65.6761 19.8777 63.797 20.5098C62.8555 20.8264 62.0619 21.0001 61.4653 21.0234C60.848 21.0476 60.5362 20.909 60.4173 20.7233C60.2984 20.5376 60.3036 20.1976 60.5858 19.6502C60.8585 19.1211 61.3511 18.4774 62.0362 17.7605C63.4036 16.3295 65.4977 14.6481 67.9949 13.0612C70.4921 11.4743 72.9054 10.2914 74.7846 9.65936C75.726 9.34268 76.5196 9.16901 77.1162 9.14569C77.7335 9.12156 78.0453 9.2601 78.1642 9.44579C78.2832 9.63147 78.2779 9.97152 77.9957 10.519C77.7231 11.048 77.2305 11.6917 76.5454 12.4086C75.1779 13.8396 73.0839 15.521 70.5867 17.1079Z" stroke="#0C40F9" stroke-width="0.505202"/>
<path d="M67.8757 17.0759C65.3258 15.5746 63.1755 13.965 61.7599 12.5812C61.0507 11.8879 60.5364 11.2613 60.2458 10.7418C59.9452 10.2042 59.9283 9.86456 60.0408 9.67499C60.1532 9.48542 60.4601 9.33639 61.0779 9.33958C61.6749 9.34267 62.474 9.48935 63.4258 9.77394C65.3254 10.342 67.7778 11.4424 70.3278 12.9437C72.8777 14.4451 75.028 16.0546 76.4436 17.4384C77.1528 18.1317 77.6671 18.7583 77.9577 19.2778C78.2584 19.8154 78.2752 20.155 78.1628 20.3446C78.0503 20.5342 77.7434 20.6832 77.1256 20.68C76.5286 20.6769 75.7295 20.5303 74.7777 20.2457C72.8781 19.6776 70.4257 18.5772 67.8757 17.0759Z" stroke="#0C40F9" stroke-width="0.505202"/>
<ellipse cx="69.0828" cy="15.1588" rx="1.01445" ry="1.0104" fill="#0C40F9"/>
</g>
<mask id="mask7_101_107647" style="mask-type:alpha" maskUnits="userSpaceOnUse" x="40" y="41" width="65" height="66">
<ellipse cx="72.1876" cy="73.8945" rx="31.9669" ry="32.8916" fill="#FFA135"/>
</mask>
<g mask="url(#mask7_101_107647)">
<ellipse cx="72.1875" cy="73.8945" rx="31.9668" ry="32.8916" fill="#FFA135"/>
<path d="M91.4215 99.9632C90.4379 98.9835 86.0937 96.5808 84.0445 95.5019L79.6535 94.4521C76.3748 95.2103 68.9568 97.094 65.5143 98.5636C62.0717 100.033 59.8644 102.558 59.1911 103.637L57.6104 104.512C62.0892 105.824 71.5739 108.606 73.6816 109.236C75.7893 109.866 86.7377 105.241 91.9484 102.85C92.1826 102.296 92.4051 100.943 91.4215 99.9632Z" fill="#49451E"/>
<path d="M91.421 99.9632C90.4374 98.9835 86.0932 96.5808 84.0441 95.5019L79.653 94.4521C78.1707 94.7949 75.8423 95.3677 73.4177 96.0284L73.0664 109.236H73.6812C75.7889 109.866 86.7372 105.241 91.948 102.85C92.1821 102.296 92.4046 100.943 91.421 99.9632Z" fill="#4C4820"/>
<path d="M69.0266 95.4137V97.7754C68.8217 97.8046 68.4119 97.9329 68.4119 98.2128C68.4119 98.3294 68.4347 98.7376 68.4347 98.7376C68.5735 99.2333 68.974 100.19 69.4658 100.05C70.0805 99.8747 72.4517 99.175 73.3299 98.4752C74.2081 97.7754 80.0043 93.6643 80.18 93.4019C80.3205 93.192 80.2385 92.8479 80.18 92.7021H81.6729C81.9364 92.7021 84.0441 95.0639 84.0441 95.4137L83.7806 95.5887C83.3415 95.0639 81.7256 94.8014 78.7748 97.9504C75.0863 101.887 69.817 103.986 69.0266 103.374C68.2363 102.761 66.5282 102.586 66.0649 100.4C66.0649 100.4 65.86 99.633 65.7773 99.175C65.6309 98.067 66.0759 95.7636 69.0266 95.4137Z" fill="#ECDC4B"/>
<path d="M80.005 87.7158V93.4019L80.5319 94.1892L79.3902 95.5013L69.0273 101.012V99.6128V92.0022L79.3902 87.7158H80.005Z" fill="#C98463"/>
<path d="M80.0046 87.7158V93.4014L80.5315 94.1886L79.3898 95.5007L73.418 98.6763L73.9449 90.2525L79.3898 87.7158H80.0046Z" fill="#C37855"/>
<path d="M79.4772 87.6283V87.8032C78.277 88.9113 74.489 91.3548 68.9387 92.2645C62.0008 93.4018 60.3322 91.6522 58.0488 90.0776C56.2222 88.8179 56.4095 84.4207 56.7315 82.3796C57.1706 81.0382 57.8381 78.0232 56.995 76.6935C56.1519 75.3639 55.7069 70.9492 55.5898 68.908L67.8848 66.8086C68.1483 71.7948 75.4374 67.1585 75.8765 67.4209C76.3156 67.6834 75.8765 70.4827 76.0522 71.9698C76.2278 73.4569 79.565 74.5941 79.7407 75.5564C79.8812 76.3261 80.2676 77.4517 80.4432 77.9183C80.2383 77.3642 80.4257 75.9238 82.8144 74.5941C85.8003 72.932 85.8881 76.8685 85.5369 79.8428C85.1856 82.817 82.1118 83.0795 81.5849 82.6421C81.1634 82.2922 80.9994 82.4963 80.9702 82.6421C80.9702 83.4819 79.9749 86.3161 79.4772 87.6283Z" fill="#F4B28E"/>
<path d="M79.477 87.8036C79.6175 87.9436 80.0625 87.8619 80.2674 87.8036H80.4431C85.0098 86.579 88.2592 82.3799 90.1034 71.1828C91.9477 59.9857 85.8002 54.6495 81.936 51.9377C78.0719 49.2259 67.0943 51.9377 65.8648 52.3751C64.6353 52.8125 61.825 51.4128 61.2102 51.9377C60.7184 52.3576 60.8297 53.629 60.9468 54.2121C59.4538 55.2619 57.873 51.1504 56.6435 52.1127C55.6599 52.8825 55.8824 54.7662 56.1166 55.6118C54.7407 55.1161 51.7255 54.4746 50.6717 55.8742C49.3544 57.6238 49.6178 58.1487 51.023 60.5106C52.4281 62.8725 49.1787 65.8467 53.9211 68.5585C57.7149 70.7279 64.8109 68.2961 67.8846 66.8089C68.1481 71.7952 75.4373 67.1589 75.8764 67.4213C76.3155 67.6837 75.8764 70.483 76.052 71.9701C76.2276 73.4572 79.5649 74.5945 79.7405 75.5567C79.881 76.3265 80.2674 77.4521 80.4431 77.9186C80.2381 77.3646 80.4255 75.9241 82.8142 74.5945C85.8002 72.9324 85.888 76.8689 85.5367 79.8431C85.1854 82.8174 82.1117 83.0798 81.5847 82.6424C81.1632 82.2925 80.9993 82.4966 80.97 82.6424C80.97 83.4822 79.9747 86.3165 79.477 87.6286V87.8036Z" fill="#331E2B"/>
<path d="M62.3525 87.3656C63.1722 87.3948 64.8994 86.9632 65.2506 85.0039" stroke="#A44F29" stroke-width="0.349882" stroke-linecap="round"/>
<path d="M66.0405 74.5946C65.5487 74.5246 65.4258 73.4574 65.4258 72.9326C66.5089 72.9326 68.9913 73.0376 70.2559 73.4574C71.5206 73.8773 71.8367 74.682 71.8367 75.0319C70.1096 74.9153 66.5323 74.6645 66.0405 74.5946Z" fill="#2C1527"/>
<path d="M78.7754 98.0386C79.5951 96.9015 81.7437 94.7847 83.7812 95.4145C82.259 96.0851 79.1267 97.5488 78.7754 98.0386Z" fill="#292718"/>
<path d="M79.4774 87.8037C79.6179 87.9437 80.0629 87.8621 80.2678 87.8037H80.4434C85.0101 86.5791 88.2595 82.3801 90.1038 71.1829C91.948 59.9858 85.8885 54.0372 81.9364 51.9379C76.1874 48.8839 66.2187 62.3434 75.8767 67.4214C76.0521 67.5137 75.8767 70.4832 76.0524 71.9703C76.228 73.4574 79.5652 74.5946 79.7409 75.5568C79.8814 76.3266 80.2678 77.4522 80.4434 77.9187C80.2385 77.3647 80.4259 75.9243 82.8146 74.5946C85.8005 72.9325 85.8884 76.869 85.5371 79.8433C85.1858 82.8175 82.112 83.0799 81.5851 82.6426C81.1636 82.2926 80.9996 82.4968 80.9704 82.6426C80.9704 83.4823 79.9751 86.3166 79.4774 87.6288V87.8037Z" fill="#331E2B"/>
<path d="M79.4772 87.6283V87.8032C78.6922 88.5279 74.0323 90.8884 74.0323 90.8884L74.7349 81.3298L75.5252 70.0452C72.8027 71.9698 56.0543 73.3824 55.9145 72.3196C55.7454 71.0334 55.6389 69.7627 55.5898 68.908L67.8848 66.8086C68.1483 71.7948 75.4374 67.1585 75.8765 67.4209C76.3156 67.6834 75.8765 70.4827 76.0522 71.9698C76.2278 73.4569 79.565 74.5941 79.7407 75.5564C79.8812 76.3261 80.2676 77.4517 80.4432 77.9183C80.2383 77.3642 80.4257 75.9238 82.8144 74.5941C85.8003 72.932 85.8882 76.8685 85.5369 79.8428C85.1856 82.817 82.1118 83.0795 81.5849 82.6421C81.1634 82.2922 80.9994 82.4963 80.9702 82.6421C80.9702 83.4818 79.9749 86.3161 79.4772 87.6283Z" fill="#E39D76"/>
<ellipse cx="0.702559" cy="1.10384" rx="0.702559" ry="1.10384" transform="matrix(0.998138 0.0609943 -0.0614725 0.998109 67.2305 77.3936)" fill="#61322D"/>
<path d="M55.9414 73.5451C59.8758 72.8453 59.7177 73.3701 59.8934 73.8075C59.8934 74.3673 59.5128 74.6822 59.3664 74.7697L56.2049 74.8571L55.9414 73.5451Z" fill="#30182C"/>
<ellipse cx="58.8393" cy="78.5305" rx="0.702569" ry="0.962177" fill="#5D282D"/>
<path d="M69.0266 97.7767V95.415C66.0759 95.7649 65.6309 98.0683 65.7773 99.1763C65.86 99.6343 66.0649 100.401 66.0649 100.401L68.4347 98.7389C68.4347 98.7389 68.4119 98.3307 68.4119 98.2141C68.4119 97.9342 68.8217 97.8059 69.0266 97.7767Z" fill="#989433"/>
<path d="M66.0646 100.4L68.4343 98.738C68.4343 98.738 68.9736 100.19 69.4654 100.05C70.0802 99.8751 72.4513 99.1754 73.3295 98.4756V102.1C73.3295 102.1 70.5005 104 69.0263 103.374C65.9675 102.075 66.0646 100.4 66.0646 100.4Z" fill="#EDEA97"/>
<path d="M80.1797 92.7014V93.4012L81.6726 92.7014C81.1106 92.4215 80.4432 92.5848 80.1797 92.7014Z" fill="#989433"/>
</g>
<mask id="mask8_101_107647" style="mask-type:alpha" maskUnits="userSpaceOnUse" x="38" y="107" width="28" height="27">
<ellipse cx="51.5482" cy="120.495" rx="13.5482" ry="13.4952" fill="#FFC440"/>
</mask>
<g mask="url(#mask8_101_107647)">
<ellipse cx="51.5482" cy="120.495" rx="13.5482" ry="13.4952" fill="#FFD3CB"/>
<path d="M53.0004 118.232L54.3686 120.827L55.7707 118.232H57.8908L55.7319 121.944L57.949 125.655H55.8386L54.3686 123.089L52.9228 125.655H50.7881L53.0004 121.944L50.8657 118.232H53.0004Z" fill="#EE6046"/>
<path d="M45.7805 118.171L47.4883 121.913C47.5711 122.094 48.6613 117.679 49.1961 115.449C49.105 115.086 56.2168 115.147 59.7842 115.222C60.695 115.676 60.1637 116.319 59.7842 116.583H50.3346C49.5376 119.494 47.9209 125.383 47.8299 125.655C47.7388 125.927 47.6401 125.768 47.6022 125.655L44.8697 119.418H43.5035C43.3517 119.342 43.0254 119.101 42.9343 118.738C42.8432 118.375 43.2758 118.208 43.5035 118.171H45.7805Z" fill="#EE6046"/>
</g>
<mask id="mask9_101_107647" style="mask-type:alpha" maskUnits="userSpaceOnUse" x="80" y="107" width="29" height="28">
<ellipse cx="94.0442" cy="120.989" rx="14.0442" ry="13.9892" fill="#28BDEA"/>
</mask>
<g mask="url(#mask9_101_107647)">
<ellipse cx="94.0442" cy="120.989" rx="14.0442" ry="13.9892" fill="#BB9BFF"/>
<path fill-rule="evenodd" clip-rule="evenodd" d="M89.678 114.994L95.1068 113.466C95.3429 113.505 95.7441 113.724 95.4609 114.289C95.1777 114.853 94.7921 114.759 94.6348 114.641L96.051 119.696C99.5522 120.441 105.823 123.058 102.896 127.573C101.126 129.101 99.3854 129.648 97.3492 130.159C94.3598 130.909 91.3533 131.61 90.0321 130.864C86.4915 128.866 87.9077 125.927 92.1564 120.872L90.7402 115.935H89.9141C89.2532 115.935 89.4813 115.308 89.678 114.994ZM91.3302 115.464L92.0383 117.933L94.6347 117.227L93.8086 114.759L91.3302 115.464Z" fill="white"/>
<ellipse cx="91.4483" cy="110.527" rx="0.708108" ry="0.705282" fill="white"/>
<ellipse cx="92.8646" cy="111.937" rx="0.472072" ry="0.470188" fill="white"/>
</g>
<path d="M123.616 81.14C122.643 81.14 121.763 80.9733 120.976 80.64C120.203 80.3067 119.589 79.8267 119.136 79.2C118.683 78.5733 118.449 77.8333 118.436 76.98H121.436C121.476 77.5533 121.676 78.0067 122.036 78.34C122.409 78.6733 122.916 78.84 123.556 78.84C124.209 78.84 124.723 78.6867 125.096 78.38C125.469 78.06 125.656 77.6467 125.656 77.14C125.656 76.7267 125.529 76.3867 125.276 76.12C125.023 75.8533 124.703 75.6467 124.316 75.5C123.943 75.34 123.423 75.1667 122.756 74.98C121.849 74.7133 121.109 74.4533 120.536 74.2C119.976 73.9333 119.489 73.54 119.076 73.02C118.676 72.4867 118.476 71.78 118.476 70.9C118.476 70.0733 118.683 69.3533 119.096 68.74C119.509 68.1267 120.089 67.66 120.836 67.34C121.583 67.0067 122.436 66.84 123.396 66.84C124.836 66.84 126.003 67.1933 126.896 67.9C127.803 68.5933 128.303 69.5667 128.396 70.82H125.316C125.289 70.34 125.083 69.9467 124.696 69.64C124.323 69.32 123.823 69.16 123.196 69.16C122.649 69.16 122.209 69.3 121.876 69.58C121.556 69.86 121.396 70.2667 121.396 70.8C121.396 71.1733 121.516 71.4867 121.756 71.74C122.009 71.98 122.316 72.18 122.676 72.34C123.049 72.4867 123.569 72.66 124.236 72.86C125.143 73.1267 125.883 73.3933 126.456 73.66C127.029 73.9267 127.523 74.3267 127.936 74.86C128.349 75.3933 128.556 76.0933 128.556 76.96C128.556 77.7067 128.363 78.4 127.976 79.04C127.589 79.68 127.023 80.1933 126.276 80.58C125.529 80.9533 124.643 81.14 123.616 81.14ZM130.264 75.46C130.264 74.3133 130.497 73.3133 130.964 72.46C131.43 71.5933 132.077 70.9267 132.904 70.46C133.73 69.98 134.677 69.74 135.744 69.74C137.117 69.74 138.25 70.0867 139.144 70.78C140.05 71.46 140.657 72.42 140.964 73.66H137.944C137.784 73.18 137.51 72.8067 137.124 72.54C136.75 72.26 136.284 72.12 135.724 72.12C134.924 72.12 134.29 72.4133 133.824 73C133.357 73.5733 133.124 74.3933 133.124 75.46C133.124 76.5133 133.357 77.3333 133.824 77.92C134.29 78.4933 134.924 78.78 135.724 78.78C136.857 78.78 137.597 78.2733 137.944 77.26H140.964C140.657 78.46 140.05 79.4133 139.144 80.12C138.237 80.8267 137.104 81.18 135.744 81.18C134.677 81.18 133.73 80.9467 132.904 80.48C132.077 80 131.43 79.3333 130.964 78.48C130.497 77.6133 130.264 76.6067 130.264 75.46ZM149.255 69.76C150.095 69.76 150.841 69.9467 151.495 70.32C152.148 70.68 152.655 71.22 153.015 71.94C153.388 72.6467 153.575 73.5 153.575 74.5V81H150.775V74.88C150.775 74 150.555 73.3267 150.115 72.86C149.675 72.38 149.075 72.14 148.315 72.14C147.541 72.14 146.928 72.38 146.475 72.86C146.035 73.3267 145.815 74 145.815 74.88V81H143.015V66.2H145.815V71.3C146.175 70.82 146.655 70.4467 147.255 70.18C147.855 69.9 148.521 69.76 149.255 69.76ZM161.157 81.18C160.091 81.18 159.131 80.9467 158.277 80.48C157.424 80 156.751 79.3267 156.257 78.46C155.777 77.5933 155.537 76.5933 155.537 75.46C155.537 74.3267 155.784 73.3267 156.277 72.46C156.784 71.5933 157.471 70.9267 158.337 70.46C159.204 69.98 160.171 69.74 161.237 69.74C162.304 69.74 163.271 69.98 164.137 70.46C165.004 70.9267 165.684 71.5933 166.177 72.46C166.684 73.3267 166.937 74.3267 166.937 75.46C166.937 76.5933 166.677 77.5933 166.157 78.46C165.651 79.3267 164.957 80 164.077 80.48C163.211 80.9467 162.237 81.18 161.157 81.18ZM161.157 78.74C161.664 78.74 162.137 78.62 162.577 78.38C163.031 78.1267 163.391 77.7533 163.657 77.26C163.924 76.7667 164.057 76.1667 164.057 75.46C164.057 74.4067 163.777 73.6 163.217 73.04C162.671 72.4667 161.997 72.18 161.197 72.18C160.397 72.18 159.724 72.4667 159.177 73.04C158.644 73.6 158.377 74.4067 158.377 75.46C158.377 76.5133 158.637 77.3267 159.157 77.9C159.691 78.46 160.357 78.74 161.157 78.74ZM173.911 81.18C172.845 81.18 171.885 80.9467 171.031 80.48C170.178 80 169.505 79.3267 169.011 78.46C168.531 77.5933 168.291 76.5933 168.291 75.46C168.291 74.3267 168.538 73.3267 169.031 72.46C169.538 71.5933 170.225 70.9267 171.091 70.46C171.958 69.98 172.925 69.74 173.991 69.74C175.058 69.74 176.025 69.98 176.891 70.46C177.758 70.9267 178.438 71.5933 178.931 72.46C179.438 73.3267 179.691 74.3267 179.691 75.46C179.691 76.5933 179.431 77.5933 178.911 78.46C178.405 79.3267 177.711 80 176.831 80.48C175.965 80.9467 174.991 81.18 173.911 81.18ZM173.911 78.74C174.418 78.74 174.891 78.62 175.331 78.38C175.785 78.1267 176.145 77.7533 176.411 77.26C176.678 76.7667 176.811 76.1667 176.811 75.46C176.811 74.4067 176.531 73.6 175.971 73.04C175.425 72.4667 174.751 72.18 173.951 72.18C173.151 72.18 172.478 72.4667 171.931 73.04C171.398 73.6 171.131 74.4067 171.131 75.46C171.131 76.5133 171.391 77.3267 171.911 77.9C172.445 78.46 173.111 78.74 173.911 78.74ZM184.545 66.2V81H181.745V66.2H184.545ZM195.337 72.22V77.58C195.337 77.9533 195.424 78.2267 195.597 78.4C195.784 78.56 196.091 78.64 196.517 78.64H197.817V81H196.057C193.697 81 192.517 79.8533 192.517 77.56V72.22H191.197V69.92H192.517V67.18H195.337V69.92H197.817V72.22H195.337ZM199.111 75.42C199.111 74.3 199.331 73.3067 199.771 72.44C200.225 71.5733 200.831 70.9067 201.591 70.44C202.365 69.9733 203.225 69.74 204.171 69.74C204.998 69.74 205.718 69.9067 206.331 70.24C206.958 70.5733 207.458 70.9933 207.831 71.5V69.92H210.651V81H207.831V79.38C207.471 79.9 206.971 80.3333 206.331 80.68C205.705 81.0133 204.978 81.18 204.151 81.18C203.218 81.18 202.365 80.94 201.591 80.46C200.831 79.98 200.225 79.3067 199.771 78.44C199.331 77.56 199.111 76.5533 199.111 75.42ZM207.831 75.46C207.831 74.78 207.698 74.2 207.431 73.72C207.165 73.2267 206.805 72.8533 206.351 72.6C205.898 72.3333 205.411 72.2 204.891 72.2C204.371 72.2 203.891 72.3267 203.451 72.58C203.011 72.8333 202.651 73.2067 202.371 73.7C202.105 74.18 201.971 74.7533 201.971 75.42C201.971 76.0867 202.105 76.6733 202.371 77.18C202.651 77.6733 203.011 78.0533 203.451 78.32C203.905 78.5867 204.385 78.72 204.891 78.72C205.411 78.72 205.898 78.5933 206.351 78.34C206.805 78.0733 207.165 77.7 207.431 77.22C207.698 76.7267 207.831 76.14 207.831 75.46ZM217.626 81.18C216.719 81.18 215.906 81.02 215.186 80.7C214.466 80.3667 213.893 79.92 213.466 79.36C213.053 78.8 212.826 78.18 212.786 77.5H215.606C215.659 77.9267 215.866 78.28 216.226 78.56C216.599 78.84 217.059 78.98 217.606 78.98C218.139 78.98 218.553 78.8733 218.846 78.66C219.153 78.4467 219.306 78.1733 219.306 77.84C219.306 77.48 219.119 77.2133 218.746 77.04C218.386 76.8533 217.806 76.6533 217.006 76.44C216.179 76.24 215.499 76.0333 214.966 75.82C214.446 75.6067 213.993 75.28 213.606 74.84C213.233 74.4 213.046 73.8067 213.046 73.06C213.046 72.4467 213.219 71.8867 213.566 71.38C213.926 70.8733 214.433 70.4733 215.086 70.18C215.753 69.8867 216.533 69.74 217.426 69.74C218.746 69.74 219.799 70.0733 220.586 70.74C221.373 71.3933 221.806 72.28 221.886 73.4H219.206C219.166 72.96 218.979 72.6133 218.646 72.36C218.326 72.0933 217.893 71.96 217.346 71.96C216.839 71.96 216.446 72.0533 216.166 72.24C215.899 72.4267 215.766 72.6867 215.766 73.02C215.766 73.3933 215.953 73.68 216.326 73.88C216.699 74.0667 217.279 74.26 218.066 74.46C218.866 74.66 219.526 74.8667 220.046 75.08C220.566 75.2933 221.013 75.6267 221.386 76.08C221.773 76.52 221.973 77.1067 221.986 77.84C221.986 78.48 221.806 79.0533 221.446 79.56C221.099 80.0667 220.593 80.4667 219.926 80.76C219.273 81.04 218.506 81.18 217.626 81.18ZM230.844 81L227.084 76.28V81H224.284V66.2H227.084V74.62L230.804 69.92H234.444L229.564 75.48L234.484 81H230.844Z" fill="#4599F9"/>
</g>
<defs>
<clipPath id="clip0_101_107647">
<rect width="242" height="139" fill="white"/>
</clipPath>
</defs>
</svg>
