<svg width="70" height="70" viewBox="0 0 70 70" fill="none" xmlns="http://www.w3.org/2000/svg">
<path d="M0 0H70V54C70 62.8366 62.8366 70 54 70H0V0Z" fill="#BFE8FF"/>
<path d="M30.3125 33.4375H14.6875C13.8587 33.4375 13.0638 33.1083 12.4778 32.5222C11.8917 31.9362 11.5625 31.1413 11.5625 30.3125V14.6875C11.5625 13.8587 11.8917 13.0638 12.4778 12.4778C13.0638 11.8917 13.8587 11.5625 14.6875 11.5625H30.3125C31.1413 11.5625 31.9362 11.8917 32.5222 12.4778C33.1083 13.0638 33.4375 13.8587 33.4375 14.6875V30.3125C33.4375 31.1413 33.1083 31.9362 32.5222 32.5222C31.9362 33.1083 31.1413 33.4375 30.3125 33.4375ZM14.6875 14.6875V30.3125H30.3125V14.6875H14.6875Z" fill="#4599F9"/>
<path d="M55.3125 33.4375H39.6875C38.8587 33.4375 38.0638 33.1083 37.4778 32.5222C36.8917 31.9362 36.5625 31.1413 36.5625 30.3125V14.6875C36.5625 13.8587 36.8917 13.0638 37.4778 12.4778C38.0638 11.8917 38.8587 11.5625 39.6875 11.5625H55.3125C56.1413 11.5625 56.9362 11.8917 57.5222 12.4778C58.1083 13.0638 58.4375 13.8587 58.4375 14.6875V30.3125C58.4375 31.1413 58.1083 31.9362 57.5222 32.5222C56.9362 33.1083 56.1413 33.4375 55.3125 33.4375ZM39.6875 14.6875V30.3125H55.3125V14.6875H39.6875Z" fill="#4599F9"/>
<path d="M30.3125 58.4375H14.6875C13.8587 58.4375 13.0638 58.1083 12.4778 57.5222C11.8917 56.9362 11.5625 56.1413 11.5625 55.3125V39.6875C11.5625 38.8587 11.8917 38.0638 12.4778 37.4778C13.0638 36.8917 13.8587 36.5625 14.6875 36.5625H30.3125C31.1413 36.5625 31.9362 36.8917 32.5222 37.4778C33.1083 38.0638 33.4375 38.8587 33.4375 39.6875V55.3125C33.4375 56.1413 33.1083 56.9362 32.5222 57.5222C31.9362 58.1083 31.1413 58.4375 30.3125 58.4375ZM14.6875 39.6875V55.3125H30.3125V39.6875H14.6875Z" fill="#4599F9"/>
<path d="M55.3125 58.4375H39.6875C38.8587 58.4375 38.0638 58.1083 37.4778 57.5222C36.8917 56.9362 36.5625 56.1413 36.5625 55.3125V39.6875C36.5625 38.8587 36.8917 38.0638 37.4778 37.4778C38.0638 36.8917 38.8587 36.5625 39.6875 36.5625H55.3125C56.1413 36.5625 56.9362 36.8917 57.5222 37.4778C58.1083 38.0638 58.4375 38.8587 58.4375 39.6875V55.3125C58.4375 56.1413 58.1083 56.9362 57.5222 57.5222C56.9362 58.1083 56.1413 58.4375 55.3125 58.4375ZM39.6875 39.6875V55.3125H55.3125V39.6875H39.6875ZM22.5 27.9688C22.0856 27.9688 21.6882 27.8041 21.3951 27.5111C21.1021 27.2181 20.9375 26.8207 20.9375 26.4062V18.5938C20.9375 18.1793 21.1021 17.7819 21.3951 17.4889C21.6882 17.1959 22.0856 17.0312 22.5 17.0312C22.9144 17.0312 23.3118 17.1959 23.6049 17.4889C23.8979 17.7819 24.0625 18.1793 24.0625 18.5938V26.4062C24.0625 26.8207 23.8979 27.2181 23.6049 27.5111C23.3118 27.8041 22.9144 27.9688 22.5 27.9688Z" fill="#4599F9"/>
<path d="M26.4065 24.0625H18.594C18.1796 24.0625 17.7822 23.8979 17.4892 23.6049C17.1961 23.3118 17.0315 22.9144 17.0315 22.5C17.0315 22.0856 17.1961 21.6882 17.4892 21.3951C17.7822 21.1021 18.1796 20.9375 18.594 20.9375H26.4065C26.8209 20.9375 27.2183 21.1021 27.5114 21.3951C27.8044 21.6882 27.969 22.0856 27.969 22.5C27.969 22.9144 27.8044 23.3118 27.5114 23.6049C27.2183 23.8979 26.8209 24.0625 26.4065 24.0625ZM47.5003 45.4688C47.0859 45.4688 46.6884 45.3041 46.3954 45.0111C46.1024 44.7181 45.9378 44.3207 45.9378 43.9063V43.5938C45.9378 43.1793 46.1024 42.7819 46.3954 42.4889C46.6884 42.1959 47.0859 42.0312 47.5003 42.0312C47.9147 42.0312 48.3121 42.1959 48.6051 42.4889C48.8982 42.7819 49.0628 43.1793 49.0628 43.5938V43.9063C49.0628 44.3207 48.8982 44.7181 48.6051 45.0111C48.3121 45.3041 47.9147 45.4688 47.5003 45.4688ZM47.5003 52.9688C47.0859 52.9688 46.6884 52.8041 46.3954 52.5111C46.1024 52.2181 45.9378 51.8207 45.9378 51.4062V51.0937C45.9378 50.6793 46.1024 50.2819 46.3954 49.9889C46.6884 49.6959 47.0859 49.5312 47.5003 49.5312C47.9147 49.5312 48.3121 49.6959 48.6051 49.9889C48.8982 50.2819 49.0628 50.6793 49.0628 51.0937V51.4062C49.0628 51.8207 48.8982 52.2181 48.6051 52.5111C48.3121 52.8041 47.9147 52.9688 47.5003 52.9688ZM51.4065 49.0625H43.594C43.1796 49.0625 42.7822 48.8979 42.4892 48.6049C42.1961 48.3118 42.0315 47.9144 42.0315 47.5C42.0315 47.0856 42.1961 46.6882 42.4892 46.3951C42.7822 46.1021 43.1796 45.9375 43.594 45.9375H51.4065C51.8209 45.9375 52.2183 46.1021 52.5114 46.3951C52.8044 46.6882 52.969 47.0856 52.969 47.5C52.969 47.9144 52.8044 48.3118 52.5114 48.6049C52.2183 48.8979 51.8209 49.0625 51.4065 49.0625ZM18.594 52.9688C18.3884 52.9699 18.1845 52.9305 17.9942 52.8528C17.8038 52.775 17.6306 52.6604 17.4846 52.5156C17.3382 52.3704 17.222 52.1976 17.1426 52.0072C17.0633 51.8167 17.0225 51.6125 17.0225 51.4062C17.0225 51.2 17.0633 50.9958 17.1426 50.8053C17.222 50.6149 17.3382 50.4421 17.4846 50.2969L25.2971 42.4844C25.4428 42.3387 25.6158 42.2231 25.8061 42.1443C25.9965 42.0654 26.2005 42.0249 26.4065 42.0249C26.6126 42.0249 26.8166 42.0654 27.0069 42.1443C27.1973 42.2231 27.3702 42.3387 27.5159 42.4844C27.6616 42.6301 27.7771 42.803 27.856 42.9934C27.9348 43.1837 27.9754 43.3877 27.9754 43.5938C27.9754 43.7998 27.9348 44.0038 27.856 44.1941C27.7771 44.3845 27.6616 44.5574 27.5159 44.7031L19.7034 52.5156C19.5574 52.6604 19.3842 52.775 19.1939 52.8528C19.0035 52.9305 18.7997 52.9699 18.594 52.9688Z" fill="#4599F9"/>
<path d="M26.4058 52.9688C26.2002 52.9699 25.9963 52.9305 25.806 52.8528C25.6156 52.775 25.4424 52.6604 25.2964 52.5156L17.4839 44.7031C17.1897 44.4089 17.0244 44.0098 17.0244 43.5938C17.0244 43.1777 17.1897 42.7786 17.4839 42.4844C17.7782 42.1902 18.1772 42.0249 18.5933 42.0249C19.0094 42.0249 19.4085 42.1902 19.7027 42.4844L27.5152 50.2969C27.6616 50.4421 27.7779 50.6149 27.8572 50.8053C27.9365 50.9958 27.9774 51.2 27.9774 51.4062C27.9774 51.6125 27.9365 51.8167 27.8572 52.0072C27.7779 52.1976 27.6616 52.3704 27.5152 52.5156C27.3692 52.6604 27.196 52.775 27.0057 52.8528C26.8153 52.9305 26.6114 52.9699 26.4058 52.9688ZM51.4058 24.0625H43.5933C43.1789 24.0625 42.7815 23.8979 42.4885 23.6049C42.1954 23.3118 42.0308 22.9144 42.0308 22.5C42.0308 22.0856 42.1954 21.6882 42.4885 21.3951C42.7815 21.1021 43.1789 20.9375 43.5933 20.9375H51.4058C51.8202 20.9375 52.2176 21.1021 52.5107 21.3951C52.8037 21.6882 52.9683 22.0856 52.9683 22.5C52.9683 22.9144 52.8037 23.3118 52.5107 23.6049C52.2176 23.8979 51.8202 24.0625 51.4058 24.0625Z" fill="#4599F9"/>
</svg>
