<svg width="70" height="70" viewBox="0 0 70 70" fill="none" xmlns="http://www.w3.org/2000/svg">
<path d="M0 0H70V54C70 62.8366 62.8366 70 54 70H0V0Z" fill="#F3DEF1"/>
<g clip-path="url(#clip0_198_6036)">
<path fill-rule="evenodd" clip-rule="evenodd" d="M36.9881 56.3967C33.8556 56.3967 31.3492 53.8912 31.3492 50.6015C31.3492 47.3118 33.8556 44.8055 36.9881 44.8055C40.1215 44.8055 42.6278 47.3118 42.6278 50.6015C42.6278 53.8912 40.1215 56.3967 36.9881 56.3967ZM50.4603 19.1166C48.4238 17.0801 46.7008 15.0436 45.6048 13.1642V13.007C45.5992 12.9258 45.5644 12.8494 45.5067 12.7919C45.4491 12.7344 45.3725 12.6997 45.2913 12.6944L44.9762 12.3809H43.881C43.7246 12.3809 43.7246 12.3809 43.5683 12.5372C43.4111 12.5372 43.2548 12.6944 43.2548 12.6944L42.9413 13.007C42.9413 13.1642 42.785 13.1642 42.785 13.3205V43.8658C41.2183 42.6126 39.3389 41.8293 37.1461 41.8293C32.2889 41.8293 28.373 45.7459 28.373 50.7578C28.373 55.6142 32.2889 59.6864 37.1453 59.6864C42.0008 59.6864 45.9167 55.7705 45.9167 50.7578V18.6467C46.7 19.5864 47.4834 20.369 48.2659 21.3094C51.3992 24.7555 54.8453 28.2015 54.3754 31.6475C54.2191 33.8404 52.3389 36.034 49.2064 38.3832C48.423 38.8531 48.2667 39.7928 48.8929 40.5761C49.2064 41.0459 49.6762 41.2031 50.1469 41.2031C50.4596 41.2031 50.773 41.0459 51.0857 40.8896C55.1588 38.0697 57.1953 35.0936 57.5088 31.961C57.8215 26.9483 54.0627 23.0324 50.4603 19.1166Z" fill="#7E0F74"/>
</g>
<g clip-path="url(#clip1_198_6036)">
<path fill-rule="evenodd" clip-rule="evenodd" d="M19.1049 43.7455C16.7033 43.7455 14.7817 41.8246 14.7817 39.3025C14.7817 36.7804 16.7033 34.8589 19.1049 34.8589C21.5071 34.8589 23.4287 36.7804 23.4287 39.3025C23.4287 41.8246 21.5071 43.7455 19.1049 43.7455ZM29.4336 15.164C27.8723 13.6027 26.5513 12.0414 25.711 10.6006V10.4801C25.7067 10.4178 25.68 10.3592 25.6358 10.3151C25.5916 10.271 25.5329 10.2445 25.4707 10.2403L25.2291 10H24.3894C24.2696 10 24.2696 10 24.1497 10.1199C24.0292 10.1199 23.9093 10.2403 23.9093 10.2403L23.669 10.4801C23.669 10.6006 23.5491 10.6006 23.5491 10.7204V34.1384C22.348 33.1777 20.9072 32.5771 19.226 32.5771C15.5022 32.5771 12.5 35.5799 12.5 39.4224C12.5 43.1456 15.5022 46.2676 19.2254 46.2676C22.948 46.2676 25.9501 43.2654 25.9501 39.4224V14.8038C26.5507 15.5243 27.1512 16.1242 27.7512 16.8452C30.1534 19.4872 32.7954 22.1292 32.4352 24.7711C32.3153 26.4523 30.8738 28.1341 28.4722 29.9352C27.8717 30.2954 27.7518 31.0158 28.2319 31.6164C28.4722 31.9766 28.8324 32.097 29.1933 32.097C29.433 32.097 29.6733 31.9766 29.9131 31.8567C33.0357 29.6948 34.597 27.4131 34.8374 25.0115C35.0771 21.1684 32.1954 18.1662 29.4336 15.164Z" fill="#7E0F74"/>
</g>
<defs>
<clipPath id="clip0_198_6036">
<rect width="29.3651" height="47.619" fill="white" transform="translate(28.373 12.3809)"/>
</clipPath>
<clipPath id="clip1_198_6036">
<rect width="22.5132" height="36.5079" fill="white" transform="translate(12.5 10)"/>
</clipPath>
</defs>
</svg>
