<svg width="70" height="70" viewBox="0 0 70 70" fill="none" xmlns="http://www.w3.org/2000/svg">
<path d="M0 0H70V54C70 62.8366 62.8366 70 54 70H0V0Z" fill="#FFD1D1"/>
<g clip-path="url(#clip0_198_5987)">
<path d="M47.2567 41.5288C48.4856 42.4504 46.7447 44.985 45.7206 46.1371C45.7206 50.7358 50.3288 44.601 50.3288 40.3767C50.3288 36.1524 49.5608 29.624 53.017 29.624C55.782 29.624 55.9612 39.0966 55.7052 43.8329C52.889 47.5452 47.2567 55.0465 47.2567 55.3537V59.1939H39.5762C38.2961 57.5298 36.504 53.1263 39.5762 48.8253C43.4164 43.4489 45.7206 40.3767 47.2567 41.5288Z" stroke="#6C0404" stroke-width="2"/>
<path d="M23.3712 41.5288C22.1424 42.4504 23.8833 44.985 24.9073 46.1371C24.9073 50.7358 20.2991 44.601 20.2991 40.3767C20.2991 36.1524 21.0672 29.624 17.611 29.624C14.846 29.624 14.6668 39.0966 14.9228 43.8329C17.7389 47.5452 23.3712 55.0465 23.3712 55.3537V59.1939H31.0517C32.3318 57.5298 34.1239 53.1263 31.0517 48.8253C27.2115 43.4489 24.9073 40.3767 23.3712 41.5288Z" stroke="#6C0404" stroke-width="2"/>
<path d="M30.7438 24.2475L33.432 26.9357L40.7285 20.4073M35.3523 10.8066L47.6411 13.8788C48.7931 20.6633 47.9483 35.5378 35.3523 40.7606C22.7563 35.5378 21.9113 20.6633 23.0634 13.8788L35.3523 10.8066Z" stroke="#6C0404" stroke-width="2" stroke-linecap="round"/>
</g>
<defs>
<clipPath id="clip0_198_5987">
<rect width="50" height="50" fill="white" transform="translate(10 10)"/>
</clipPath>
</defs>
</svg>
