<svg width="48" height="48" viewBox="0 0 48 48" fill="none" xmlns="http://www.w3.org/2000/svg">
<rect x="-0.000976562" width="48" height="48" rx="8" fill="#EE8208"/>
<rect x="-0.000976562" width="48" height="48" rx="24" fill="#EE8208"/>
<path d="M23.9986 12.8402C25.8842 12.8402 27.418 14.374 27.418 16.2596C27.418 18.1436 25.8838 19.6774 23.9986 19.6774C22.1141 19.6774 20.58 18.1436 20.58 16.2596C20.5796 14.3736 22.1145 12.8402 23.9986 12.8402ZM23.9986 24.5152C28.5533 24.5152 32.2574 20.8124 32.2574 16.2596C32.2574 11.7044 28.5537 8 23.9986 8C19.4442 8 15.7398 11.7048 15.7398 16.2596C15.7398 20.8124 19.4442 24.5152 23.9986 24.5152ZM27.3397 31.2517C29.0387 30.8648 30.66 30.1934 32.1352 29.266C32.6783 28.9244 33.0634 28.3809 33.2058 27.7553C33.3482 27.1297 33.2363 26.4731 32.8946 25.93C32.7256 25.6609 32.5052 25.4276 32.2461 25.2437C31.9869 25.0598 31.694 24.9287 31.3841 24.8581C31.0742 24.7875 30.7535 24.7786 30.4402 24.832C30.1269 24.8855 29.8272 25.0001 29.5582 25.1695C26.1748 27.2966 21.82 27.295 18.4394 25.1695C18.1704 25.0001 17.8708 24.8854 17.5575 24.8319C17.2442 24.7785 16.9235 24.7873 16.6136 24.858C16.3038 24.9286 16.0109 25.0597 15.7517 25.2436C15.4926 25.4276 15.2722 25.6608 15.1033 25.93C14.7616 26.473 14.6494 27.1294 14.7916 27.755C14.9338 28.3807 15.3187 28.9242 15.8615 29.266C17.3366 30.1931 18.9576 30.8644 20.6562 31.2517L16.0394 35.8693C15.5857 36.3231 15.3309 36.9387 15.331 37.5804C15.3311 38.2222 15.5862 38.8376 16.04 39.2913C16.4939 39.745 17.1094 39.9998 17.7511 39.9997C18.3929 39.9996 19.0083 39.7446 19.462 39.2907L23.9978 34.7541L28.5363 39.2911C28.7607 39.5158 29.0273 39.6941 29.3206 39.8157C29.614 39.9374 29.9285 40 30.246 40C30.5636 40 30.8781 39.9374 31.1715 39.8157C31.4648 39.6941 31.7314 39.5158 31.9558 39.2911C32.1808 39.0667 32.3594 38.8001 32.4812 38.5066C32.6031 38.2131 32.6658 37.8984 32.6658 37.5806C32.6658 37.2628 32.6031 36.9481 32.4812 36.6546C32.3594 36.361 32.1808 36.0945 31.9558 35.8701L27.3397 31.2517Z" fill="white"/>
</svg>
