<svg width="70" height="70" viewBox="0 0 70 70" fill="none" xmlns="http://www.w3.org/2000/svg">
<path d="M0 0H70V54C70 62.8366 62.8366 70 54 70H0V0Z" fill="#D6D5FC"/>
<path d="M40.9059 35C40.9059 41.875 40.2101 48.0825 39.0936 52.5566C38.5344 54.7975 37.8764 56.5756 37.165 57.7813C36.4338 59.0208 35.7423 59.5 35.1673 59.5C34.5923 59.5 33.9009 59.0208 33.1696 57.7813C32.4582 56.5756 31.8003 54.7975 31.2411 52.5566C30.1246 48.0825 29.4287 41.875 29.4287 35C29.4287 28.125 30.1246 21.9175 31.2411 17.4434C31.8003 15.2025 32.4582 13.4244 33.1696 12.2187C33.9009 10.9792 34.5923 10.5 35.1673 10.5C35.7423 10.5 36.4338 10.9792 37.165 12.2187C37.8764 13.4244 38.5344 15.2025 39.0936 17.4434C40.2101 21.9175 40.9059 28.125 40.9059 35Z" stroke="#0C40F9"/>
<path d="M38.4405 39.9104C32.5857 43.6083 26.9248 46.3665 22.5135 47.8413C20.304 48.5799 18.4353 48.9873 17.0251 49.042C15.5734 49.0984 14.7967 48.7777 14.4904 48.3024C14.1842 47.8271 14.2178 46.9946 14.8813 45.715C15.5258 44.472 16.6865 42.9659 18.2943 41.2936C21.5044 37.9546 26.4167 34.0348 32.2716 30.3368C38.1264 26.6388 43.7873 23.8807 48.1986 22.4059C50.4081 21.6673 52.2768 21.2599 53.687 21.2052C55.1387 21.1488 55.9154 21.4695 56.2216 21.9448C56.5279 22.4201 56.4943 23.2526 55.8308 24.5322C55.1863 25.7752 54.0256 27.2812 52.4178 28.9536C49.2077 32.2925 44.2954 36.2124 38.4405 39.9104Z" stroke="#0C40F9"/>
<path d="M31.9945 39.8365C26.016 36.3379 20.9718 32.5857 17.6488 29.3568C15.9844 27.7395 14.7726 26.2734 14.0857 25.0528C13.3786 23.7962 13.3165 22.9654 13.6061 22.4803C13.8958 21.9952 14.6609 21.6484 16.1138 21.6558C17.5251 21.6631 19.4068 22.0073 21.6403 22.6711C26.0998 23.9964 31.8522 26.5623 37.8308 30.0609C43.8094 33.5595 48.8536 37.3117 52.1766 40.5406C53.8409 42.1578 55.0528 43.624 55.7396 44.8445C56.4468 46.1012 56.5088 46.932 56.2192 47.4171C55.9296 47.9022 55.1645 48.249 53.7116 48.2415C52.3003 48.2343 50.4186 47.8901 48.185 47.2263C43.7255 45.901 37.9731 43.3351 31.9945 39.8365Z" stroke="#0C40F9"/>
<ellipse cx="34.8708" cy="35.2943" rx="2.37661" ry="2.35294" fill="#0C40F9"/>
</svg>
