<svg width="70" height="70" viewBox="0 0 70 70" fill="none" xmlns="http://www.w3.org/2000/svg">
<path d="M0 0H70V54C70 62.8366 62.8366 70 54 70H0V0Z" fill="#FCEABB"/>
<path d="M10.5929 54.0994C23.7681 28.9609 45.5512 18.065 54.2029 15.8252C27.5362 28.9478 13.0303 50.015 10 57.7226L10.5929 54.0994Z" fill="#BDBEC1"/>
<path d="M60.0005 13.7169C34.9148 21.2532 20.2991 37.4983 16.127 44.6788C17.7475 37.5302 20.1994 31.8683 23.1627 27.4192L23.8345 33.4798L26.0743 23.6027C28.0735 21.3156 30.2283 19.4548 32.4642 17.9566C32.8217 17.7171 32.1628 19.4067 31.4731 21.1667L30.3562 24.7841C30.9675 24.4451 35.9306 15.9348 36.5486 15.6436C38.5624 14.6945 40.6042 13.9929 42.6243 13.4963C43.1038 13.3784 39.366 20.2022 39.8424 20.1069L42.9588 16.5821C44.4242 14.7401 45.9181 12.8555 46.2982 12.8052C51.5409 12.1113 56.4173 12.6795 60.0005 13.7169C57.0307 17.1654 54.0466 20.2994 51.1044 23.1372C50.917 23.3179 48.6903 23.5483 46.4945 23.7768L42.0822 24.3889C41.6157 24.8287 49.0676 25.0635 48.6039 25.4885C47.07 26.8944 45.5521 28.2197 44.0584 29.4671C43.5778 29.8685 36.1017 30.9864 35.6263 31.3718L38.5129 31.5742C39.999 31.5791 41.4529 31.5856 41.2258 31.7644C39.4421 33.1685 37.7023 34.4588 36.0215 35.64C35.794 35.8 33.4675 35.8948 31.1979 35.9893L26.733 36.3125C26.1089 36.7381 33.4648 37.3879 32.8595 37.7828C26.0487 42.227 20.4813 44.7509 17.3127 45.7328C28.011 28.2888 50.2288 17.1205 60.0005 13.7169Z" fill="#80641B"/>
</svg>
