<svg width="70" height="70" viewBox="0 0 70 70" fill="none" xmlns="http://www.w3.org/2000/svg">
<path d="M0 0H70V54C70 62.8366 62.8366 70 54 70H0V0Z" fill="#FDFF8F"/>
<path d="M34.8595 46.8841C36.8605 46.8841 38.4827 45.2619 38.4827 43.2609C38.4827 41.2599 36.8605 39.6377 34.8595 39.6377C32.8585 39.6377 31.2363 41.2599 31.2363 43.2609C31.2363 45.2619 32.8585 46.8841 34.8595 46.8841Z" fill="#383600"/>
<path d="M41.3814 49.7823C41.3814 48.1816 40.2133 46.8838 38.7727 46.8838H34.8596H30.9466C29.506 46.8838 28.3379 48.1816 28.3379 49.7823V54.8548H41.3814V49.7823Z" fill="#383600"/>
<path d="M35.5332 32.4147C40.4376 32.7618 44.2796 36.8886 44.2796 41.8118H45.7289C45.7289 36.1313 41.2948 31.369 35.6347 30.9697L35.5332 32.4147Z" fill="#383600"/>
<path d="M24.241 39.4824C24.0743 40.2418 23.9902 41.0259 23.9902 41.8114H25.4395C25.4395 41.1302 25.5127 40.4505 25.6569 39.7926L24.241 39.4824Z" fill="#383600"/>
<path d="M49.7178 32.7687C51.375 35.4898 52.2511 38.6173 52.2511 41.8115H53.7004C53.7004 38.3514 52.7511 34.9637 50.9555 32.0137L49.7178 32.7687Z" fill="#383600"/>
<path d="M16.0186 41.8113H17.4678C17.4678 32.2222 25.27 24.42 34.8591 24.42C36.2744 24.42 37.6787 24.5895 39.033 24.9236L39.3801 23.5171C37.9128 23.1548 36.3917 22.9707 34.8591 22.9707C24.4707 22.9707 16.0186 31.4222 16.0186 41.8113Z" fill="#383600"/>
<path d="M34.8594 15.7246C32.0522 15.7246 29.2935 16.1674 26.6602 17.0406L27.1167 18.4159C29.6022 17.592 32.2073 17.1739 34.8594 17.1739C43.4493 17.1739 51.542 21.7485 55.9783 29.113L57.2196 28.3659C52.5225 20.5688 43.9551 15.7246 34.8594 15.7246Z" fill="#383600"/>
<path d="M15.8529 26.1285L14.7355 25.2061C13.9152 26.1995 13.163 27.2626 12.5 28.3648L13.742 29.1119C14.3681 28.0705 15.0783 27.0669 15.8529 26.1285Z" fill="#383600"/>
<path d="M45.7287 21.5215C42.5273 21.5215 39.9316 24.1171 39.9316 27.3186C39.9316 30.52 42.5273 33.1157 45.7287 33.1157C48.9302 33.1157 51.5258 30.52 51.5258 27.3186C51.5258 24.1171 48.9302 21.5215 45.7287 21.5215ZM45.7287 32.391C44.3121 32.391 43.0331 31.8092 42.1128 30.8729C42.1498 29.3048 43.4266 28.0432 45.0041 28.0432H45.7287C44.528 28.0432 43.5548 27.07 43.5548 25.8693C43.5548 24.6686 44.528 23.6954 45.7287 23.6954C46.9295 23.6954 47.9027 24.6686 47.9027 25.8693C47.9027 27.07 46.9295 28.0432 45.7287 28.0432H46.4534C48.0309 28.0432 49.3077 29.3048 49.3447 30.8729C48.4244 31.8092 47.1454 32.391 45.7287 32.391Z" fill="#383600"/>
<path d="M34.8598 33.841C34.8598 30.6396 32.2642 28.0439 29.0627 28.0439C25.8613 28.0439 23.2656 30.6396 23.2656 33.841C23.2656 37.0425 25.8613 39.6381 29.0627 39.6381C32.2642 39.6381 34.8598 37.0425 34.8598 33.841ZM28.3381 34.5657H29.0627C27.862 34.5657 26.8888 33.5925 26.8888 32.3918C26.8888 31.191 27.862 30.2179 29.0627 30.2179C30.2635 30.2179 31.2366 31.191 31.2366 32.3918C31.2366 33.5925 30.2635 34.5657 29.0627 34.5657H29.7874C31.3649 34.5657 32.6417 35.8273 32.6787 37.3954C31.7584 38.3316 30.4794 38.9135 29.0627 38.9135C27.6461 38.9135 26.3671 38.3316 25.4468 37.3954C25.4837 35.8273 26.7606 34.5657 28.3381 34.5657Z" fill="#383600"/>
<path d="M20.3664 15C17.165 15 14.5693 17.5957 14.5693 20.7971C14.5693 23.9986 17.165 26.5942 20.3664 26.5942C23.5679 26.5942 26.1635 23.9986 26.1635 20.7971C26.1635 17.5957 23.5679 15 20.3664 15ZM20.3664 25.8696C18.9498 25.8696 17.6708 25.2877 16.7505 24.3514C16.7875 22.7833 18.0643 21.5217 19.6418 21.5217H20.3664C19.1657 21.5217 18.1925 20.5486 18.1925 19.3478C18.1925 18.1471 19.1657 17.1739 20.3664 17.1739C21.5672 17.1739 22.5403 18.1471 22.5403 19.3478C22.5403 20.5486 21.5672 21.5217 20.3664 21.5217H21.0911C22.6686 21.5217 23.9454 22.7833 23.9824 24.3514C23.0621 25.2877 21.7831 25.8696 20.3664 25.8696Z" fill="#383600"/>
</svg>
