<svg width="50" height="41" viewBox="0 0 50 41" fill="none" xmlns="http://www.w3.org/2000/svg">
<g clip-path="url(#clip0_218_1915)">
<path d="M21.8846 10.2101C22.4685 9.62191 23.4735 9.95865 23.5852 10.7799L24.6398 18.5372C24.6841 18.8633 24.8861 19.1468 25.1799 19.2951L32.1686 22.8243C32.9085 23.1979 32.8987 24.2577 32.1521 24.6177L25.1004 28.0179C24.8039 28.1608 24.5967 28.4405 24.5464 28.7658L23.3498 36.5031C23.2231 37.3222 22.2122 37.6405 21.6391 37.0417L16.2262 31.3861C15.9986 31.1483 15.6686 31.0377 15.3437 31.0904L7.61556 32.3432C6.79742 32.4759 6.18232 31.6128 6.57469 30.8827L10.2811 23.9862C10.4369 23.6963 10.4401 23.3483 10.2896 23.0556L6.70968 16.0933C6.33067 15.3562 6.96141 14.5044 7.77701 14.652L15.4812 16.0456C15.8051 16.1042 16.1371 15.9997 16.3689 15.7661L21.8846 10.2101Z" fill="#F8991D"/>
<path d="M21.8846 10.2101C22.4685 9.62191 23.4735 9.95865 23.5852 10.7799L24.6398 18.5372C24.6841 18.8633 24.8861 19.1468 25.1799 19.2951L32.1686 22.8243C32.9085 23.1979 32.8987 24.2577 32.1521 24.6177L25.1004 28.0179C24.8039 28.1608 24.5967 28.4405 24.5464 28.7658L23.3498 36.5031C23.2231 37.3222 22.2122 37.6405 21.6391 37.0417L16.2262 31.3861C15.9986 31.1483 15.6686 31.0377 15.3437 31.0904L7.61556 32.3432C6.79742 32.4759 6.18232 31.6128 6.57469 30.8827L10.2811 23.9862C10.4369 23.6963 10.4401 23.3483 10.2896 23.0556L6.70968 16.0933C6.33067 15.3562 6.96141 14.5044 7.77701 14.652L15.4812 16.0456C15.8051 16.1042 16.1371 15.9997 16.3689 15.7661L21.8846 10.2101Z" fill="#F8991D"/>
</g>
<g clip-path="url(#clip1_218_1915)">
<path d="M32.3267 3.31273C32.9106 2.72451 33.9156 3.06125 34.0272 3.88254L34.1677 4.91532C34.212 5.24145 34.414 5.52489 34.7078 5.67325L35.6384 6.14319C36.3782 6.51681 36.3685 7.57661 35.6219 7.93659L34.683 8.3893C34.3866 8.53226 34.1794 8.81195 34.1291 9.13722L33.9698 10.1675C33.8431 10.9866 32.8322 11.3049 32.2591 10.7061L31.5384 9.95312C31.3108 9.71535 30.9808 9.60478 30.6559 9.65745L29.6268 9.82427C28.8087 9.9569 28.1936 9.09383 28.5859 8.36376L29.0795 7.44538C29.2353 7.15545 29.2385 6.80742 29.088 6.5147L28.6114 5.58772C28.2324 4.85061 28.8631 3.99888 29.6787 4.14641L30.7046 4.332C31.0285 4.39058 31.3604 4.28606 31.5923 4.05249L32.3267 3.31273Z" fill="#F8991D"/>
<path d="M32.3267 3.31273C32.9106 2.72451 33.9156 3.06125 34.0272 3.88254L34.1677 4.91532C34.212 5.24145 34.414 5.52489 34.7078 5.67325L35.6384 6.14319C36.3782 6.51681 36.3685 7.57661 35.6219 7.93659L34.683 8.3893C34.3866 8.53226 34.1794 8.81195 34.1291 9.13722L33.9698 10.1675C33.8431 10.9866 32.8322 11.3049 32.2591 10.7061L31.5384 9.95312C31.3108 9.71535 30.9808 9.60478 30.6559 9.65745L29.6268 9.82427C28.8087 9.9569 28.1936 9.09383 28.5859 8.36376L29.0795 7.44538C29.2353 7.15545 29.2385 6.80742 29.088 6.5147L28.6114 5.58772C28.2324 4.85061 28.8631 3.99888 29.6787 4.14641L30.7046 4.332C31.0285 4.39058 31.3604 4.28606 31.5923 4.05249L32.3267 3.31273Z" fill="#F8991D"/>
</g>
<g clip-path="url(#clip2_218_1915)">
<path d="M2.81015 24.1302C2.85828 23.4798 3.63137 23.1668 4.11835 23.6007C4.31173 23.773 4.57753 23.839 4.82909 23.7774C5.46258 23.6222 5.99915 24.2608 5.737 24.858C5.6329 25.0951 5.65219 25.3684 5.78855 25.5886C6.13193 26.1431 5.69048 26.8507 5.04148 26.786C4.78376 26.7603 4.52989 26.863 4.36261 27.0608C3.94133 27.5587 3.1319 27.3574 2.9929 26.7201C2.9377 26.4671 2.76151 26.2574 2.52175 26.1594C1.918 25.9127 1.85935 25.0807 2.42244 24.7515C2.64604 24.6208 2.79104 24.3885 2.81015 24.1302Z" fill="#F8991D"/>
</g>
<g clip-path="url(#clip3_218_1915)">
<path d="M8.5289 6.9759C8.57703 6.32546 9.35012 6.01251 9.8371 6.44638C10.0305 6.61866 10.2963 6.68475 10.5478 6.62312C11.1813 6.46791 11.7179 7.10646 11.4558 7.70368C11.3517 7.94085 11.3709 8.21408 11.5073 8.43428C11.8507 8.98879 11.4092 9.69643 10.7602 9.63169C10.5025 9.60598 10.2486 9.70874 10.0814 9.90647C9.66008 10.4044 8.85065 10.2031 8.71165 9.56585C8.65645 9.3128 8.48026 9.10309 8.2405 9.00511C7.63675 8.75836 7.5781 7.92637 8.14119 7.59724C8.36479 7.46655 8.50979 7.23418 8.5289 6.9759Z" fill="#F8991D"/>
</g>
<g clip-path="url(#clip4_218_1915)">
<path d="M43.7848 20.6426C44.4741 20.1824 45.3919 20.7123 45.3379 21.5394L45.3174 21.8543C45.296 22.1828 45.4375 22.5007 45.6959 22.7046L45.9438 22.9001C46.5946 23.4135 46.3742 24.4502 45.5709 24.6544L45.265 24.7322C44.946 24.8133 44.6873 25.0462 44.5733 25.3549L44.4639 25.6512C44.1768 26.4287 43.1228 26.5395 42.6803 25.8386L42.5118 25.5718C42.3361 25.2935 42.0347 25.1195 41.7058 25.1064L41.3902 25.0939C40.5621 25.0611 40.131 24.0929 40.6608 23.4555L40.8627 23.2126C41.0731 22.9595 41.1454 22.619 41.0561 22.3022L40.9706 21.9984C40.7458 21.2006 41.5334 20.4914 42.3033 20.7983L42.5967 20.9152C42.9024 21.0371 43.2485 21.0007 43.5222 20.8179L43.7848 20.6426Z" fill="#F8991D"/>
</g>
<defs>
<clipPath id="clip0_218_1915">
<rect width="29.7346" height="29.7346" fill="white" transform="translate(9.44629 3.35938) rotate(18.5233)"/>
</clipPath>
<clipPath id="clip1_218_1915">
<rect width="10.2956" height="10.2956" fill="white" transform="translate(28.9531) rotate(18.5233)"/>
</clipPath>
<clipPath id="clip2_218_1915">
<rect width="5.75231" height="5.75231" fill="white" transform="translate(0.208984 23.4883) rotate(-22.0364)"/>
</clipPath>
<clipPath id="clip3_218_1915">
<rect width="5.75231" height="5.75231" fill="white" transform="translate(5.92773 6.33398) rotate(-22.0364)"/>
</clipPath>
<clipPath id="clip4_218_1915">
<rect width="8.21403" height="8.21403" fill="white" transform="translate(42.0137 17.29) rotate(30)"/>
</clipPath>
</defs>
</svg>
