<svg width="70" height="70" viewBox="0 0 70 70" fill="none" xmlns="http://www.w3.org/2000/svg">
<path d="M0 0H70V54C70 62.8366 62.8366 70 54 70H0V0Z" fill="#91F4B9"/>
<path d="M42.3734 29.0153C41.4855 29.0153 40.7591 29.7418 40.7591 30.6297C40.7591 30.9324 40.8398 31.2149 40.981 31.457L39.851 32.5871C39.5079 32.2844 39.1447 31.9817 38.7613 31.7395H38.7411C37.9339 31.2351 37.0662 30.9122 36.1379 30.7507C35.7142 30.67 35.3106 30.6297 34.907 30.6297C33.7366 30.6297 32.6469 30.892 31.6177 31.4167C31.0123 31.7194 30.4675 32.123 29.9832 32.5669L28.8531 31.4368C28.9944 31.1947 29.0751 30.9122 29.0751 30.6095C29.0751 29.7216 28.3486 28.9951 27.4607 28.9951C26.5728 28.9951 25.8464 29.7216 25.8464 30.6095C25.8464 31.4974 26.5728 32.2239 27.4607 32.2239C27.7634 32.2239 28.0459 32.1431 28.2881 32.0019L29.4383 33.1521C29.3576 33.253 29.2567 33.3539 29.1962 33.4548L29.176 33.475C28.611 34.2216 28.1872 35.049 27.945 35.9571V35.9773C27.7231 36.6432 27.6423 37.2486 27.6423 37.8943C27.6423 38.1365 27.6625 38.3988 27.6827 38.641C27.7836 39.5692 28.0459 40.4773 28.4899 41.3047C28.4899 41.3047 28.4899 41.3249 28.5101 41.3249C28.7724 41.8092 29.0751 42.2531 29.4383 42.6567C29.8016 43.0603 30.2051 43.4437 30.6289 43.7666C30.9316 43.9886 31.2545 44.1904 31.5774 44.3518H28.6513V43.7464C28.6513 42.9594 28.0257 42.3338 27.2387 42.3338C26.4517 42.3338 25.8262 42.9594 25.8262 43.7464C25.8262 44.5334 26.4517 45.159 27.2387 45.159H27.8441V46.7733C27.8441 46.9953 28.0257 47.1769 28.2477 47.1769C28.4697 47.1769 28.6513 46.9953 28.6513 46.7733V45.159H34.907C35.8151 45.159 36.7232 44.9774 37.5707 44.6545C38.5797 44.2509 39.4878 43.6253 40.2142 42.8383C41.4654 41.4863 42.1716 39.7307 42.1716 37.8943C42.1716 36.5221 41.7882 35.1903 41.0618 34.0198C40.8802 33.7171 40.6582 33.4346 40.416 33.1723L41.5663 32.0422C41.8084 32.1835 42.0909 32.2642 42.3936 32.2642C43.2815 32.2642 44.008 31.5377 44.008 30.6498C43.9878 29.7418 43.2613 29.0153 42.3734 29.0153ZM27.4405 31.4368C26.9966 31.4368 26.6334 31.0736 26.6334 30.6297C26.6334 30.1857 26.9966 29.8225 27.4405 29.8225C27.8845 29.8225 28.2477 30.1857 28.2477 30.6297C28.2477 31.0736 27.8845 31.4368 27.4405 31.4368ZM27.8441 44.3518H27.2387C26.8957 44.3518 26.6334 44.0693 26.6334 43.7464C26.6334 43.4033 26.8957 43.141 27.2387 43.141C27.5818 43.141 27.8441 43.4033 27.8441 43.7464V44.3518ZM34.907 31.4368C35.1693 31.4368 35.4317 31.457 35.7142 31.4772V31.8404C35.7142 32.3248 35.6536 32.8091 35.5527 33.2732C34.7052 32.6476 33.8375 32.1431 32.889 31.7597C33.5348 31.5377 34.2007 31.4368 34.907 31.4368ZM31.8195 32.244C33.0908 32.6678 34.2411 33.2934 35.2904 34.1409C35.0886 34.6656 34.8465 35.1499 34.5236 35.5938C33.2926 34.5041 31.8195 33.7777 30.2253 33.4548C30.6693 32.9705 31.2343 32.5467 31.8195 32.244ZM29.6401 34.1611C31.2747 34.4234 32.768 35.1095 34.0191 36.1791C33.6559 36.5826 33.2321 36.9459 32.768 37.2284C31.6379 36.3405 30.2657 35.7956 28.8329 35.6746C29.0347 35.1701 29.2971 34.6656 29.6401 34.1611ZM28.4495 38.2576V37.8943C28.4495 37.4302 28.5101 36.9459 28.611 36.5019C29.8217 36.5625 31.0123 36.9862 32.0011 37.6925C30.9114 38.197 29.7007 38.3988 28.4495 38.2576ZM29.2567 40.7195H29.0953C28.8329 40.1948 28.6513 39.6499 28.5504 39.0647C28.7926 39.1051 29.0145 39.1051 29.2567 39.1051C30.5482 39.1051 31.8195 38.762 32.9496 38.0961C33.6962 37.6522 34.3621 37.0871 34.907 36.4212C35.472 35.7351 35.8958 34.9481 36.1581 34.1006C36.4003 33.3741 36.5214 32.6073 36.5214 31.8404V31.6386C37.0864 31.7799 37.6312 32.0019 38.1155 32.2844C38.055 33.4952 37.7523 34.6454 37.2478 35.7149C36.8846 36.4616 36.4205 37.1679 35.8554 37.7732C35.3106 38.3585 34.7052 38.8629 34.0594 39.3069C32.6267 40.2352 30.972 40.7195 29.2567 40.7195ZM34.7052 42.9392C34.7052 43.4033 34.6447 43.8675 34.5438 44.3316C33.6357 44.2913 32.7478 44.0491 31.9608 43.6455C32.9092 43.4235 33.8173 43.1007 34.7052 42.6567V42.9392ZM37.0662 43.9684C36.5214 44.1702 35.9563 44.2913 35.3711 44.3316C35.472 43.8675 35.5124 43.4033 35.5124 42.9392C35.5124 42.6971 35.4922 42.4549 35.472 42.2329C35.9967 41.9302 36.481 41.5872 36.9451 41.2038C37.0662 41.789 37.1267 42.3742 37.1267 42.9594C37.1267 43.3025 37.1066 43.6455 37.0662 43.9684ZM36.925 40.1544C36.2994 40.7396 35.5931 41.2441 34.8465 41.6679C33.6357 42.354 32.3442 42.798 30.972 43.0199C30.4271 42.5962 29.963 42.0917 29.5796 41.5266C31.3352 41.4661 33.0303 40.9414 34.5034 39.993C35.2299 39.5289 35.8958 38.9638 36.4608 38.3383C37.0662 37.6723 37.5909 36.9055 37.9743 36.0983C38.4788 35.0692 38.7815 33.9795 38.9026 32.8292C39.4474 33.253 39.9115 33.7575 40.2949 34.3427C39.9922 35.6947 39.4474 36.9661 38.6806 38.1163C38.1761 38.8629 37.5707 39.5289 36.925 40.1544ZM37.9138 43.6051C37.9339 43.3832 37.9339 43.1612 37.9339 42.9392C37.9339 42.132 37.833 41.345 37.6312 40.5782C38.0954 40.1343 38.5191 39.6701 38.8824 39.1656C39.2456 40.1948 39.4676 41.2845 39.5079 42.3944C39.0438 42.8989 38.499 43.3025 37.9138 43.6051ZM40.8398 35.3719C41.1627 36.1791 41.3645 37.0064 41.3645 37.8943C41.3645 39.1858 40.981 40.4369 40.2546 41.4863C40.1335 40.4168 39.851 39.3674 39.4474 38.3584C40.0528 37.4504 40.5169 36.4414 40.8398 35.3719ZM42.3734 31.4368C41.9295 31.4368 41.5663 31.0736 41.5663 30.6297C41.5663 30.1857 41.9295 29.8225 42.3734 29.8225C42.8174 29.8225 43.1806 30.1857 43.1806 30.6297C43.1806 31.0736 42.8174 31.4368 42.3734 31.4368Z" fill="#02662A"/>
<path d="M17.2914 23.4627L17.8683 25.4901C17.8933 25.5763 17.9512 25.6493 18.0296 25.693C18.108 25.7368 18.2005 25.7478 18.287 25.7238L22.1901 24.6095C22.2709 24.5872 22.3401 24.5346 22.3831 24.4626L23.2279 23.1221C23.3164 22.9808 23.454 22.877 23.6142 22.8307C23.7744 22.7844 23.946 22.7988 24.0963 22.871L25.3108 23.4476C25.5307 23.5574 25.7827 23.585 26.0212 23.5254L26.5715 23.3659C26.745 23.3159 26.8916 23.1991 26.9791 23.0411C27.0666 22.8831 27.0879 22.6968 27.0382 22.5232L25.819 18.2576C25.7948 18.1711 25.7538 18.0902 25.6983 18.0197C25.6427 17.9491 25.5738 17.8902 25.4954 17.8463C25.4171 17.8024 25.3308 17.7745 25.2416 17.7641C25.1524 17.7536 25.062 17.7609 24.9757 17.7855L24.4307 17.9444C24.1886 18.0125 23.9803 18.1678 23.8458 18.3803L23.1397 19.5022C23.0511 19.6435 22.9136 19.7473 22.7534 19.7936C22.5932 19.8399 22.4215 19.8255 22.2712 19.7533L21.0591 19.1738C20.8327 19.0674 20.5755 19.0461 20.3346 19.1138L16.0247 20.3463C15.0996 20.612 14.2398 21.0672 13.5001 21.6831C10.8816 25.7273 14.7639 24.1865 17.2914 23.4627Z" stroke="#02662A" stroke-width="1.13636" stroke-linecap="round" stroke-linejoin="round"/>
<path d="M18.5 25.6602L21.7559 24.7294L25.7311 38.6344C25.8416 39.0208 25.794 39.4352 25.5989 39.7865C25.4038 40.1378 25.0772 40.3972 24.6908 40.5077L24.3521 40.6045C23.9657 40.715 23.5513 40.6674 23.2 40.4723C22.8487 40.2772 22.5893 39.9505 22.4788 39.5642L18.5036 25.6591L18.5 25.6602Z" stroke="#02662A" stroke-width="1.13636" stroke-linecap="round" stroke-linejoin="round"/>
<g clip-path="url(#clip0_198_3576)">
<path d="M42.4511 53.2664C42.5288 53.1476 42.609 53.0202 42.6914 52.8846C43.177 52.0857 43.7212 51.0351 44.258 49.8989C45.3326 47.6245 46.36 45.0455 46.816 43.5237C46.9384 43.1148 47.0181 42.6943 47.054 42.269L47.0641 42.1491L47.1415 42.057L49.4424 39.3203C49.4427 39.32 49.4429 39.3196 49.4432 39.3193C49.5057 39.2444 49.5837 39.1838 49.6718 39.1419C49.7603 39.0997 49.8568 39.0773 49.9549 39.0762C49.9549 39.0761 49.9549 39.0762 49.9549 39.0762L49.9593 39.4549L42.4511 53.2664ZM42.4511 53.2664L44.0514 46.1502L44.3611 44.773L43.4035 45.8101L38.4554 51.1692M42.4511 53.2664L38.4554 51.1692M38.4554 51.1692C38.509 51.0378 38.5684 50.8994 38.6332 50.7545C39.0149 49.9011 39.5705 48.8565 40.2008 47.7693C41.4624 45.5931 43.0015 43.2827 43.995 42.0429C44.2621 41.71 44.5629 41.4055 44.8926 41.1344L44.9855 41.058L45.0173 40.942L45.963 37.4939C45.9631 37.4934 45.9632 37.493 45.9633 37.4925C45.9895 37.3986 45.995 37.3001 45.9795 37.2037C45.9639 37.107 45.9275 37.0147 45.8728 36.9334C45.8181 36.8521 45.7464 36.7836 45.6626 36.7328C45.5788 36.6819 45.4849 36.6499 45.3876 36.6388L45.3836 36.6384C45.2811 36.6279 45.1796 36.6093 45.08 36.5828L45.0793 36.5826C43.6561 36.2066 42.761 34.3821 43.2935 32.3672C43.8259 30.3524 45.505 29.2084 46.9285 29.5844C47.625 29.7684 48.0295 30.2411 48.2104 30.9348C48.397 31.6508 48.3382 32.5933 48.0647 33.6279L48.0644 33.6292C47.9724 33.9823 47.8563 34.3286 47.7168 34.6658C47.1488 36.037 46.8908 37.5168 46.9612 38.9994C46.9612 38.9997 46.9613 39 46.9613 39.0004L46.9659 39.1059L46.9943 39.7566L47.5458 39.4101L47.6348 39.3542C47.6351 39.354 47.6354 39.3538 47.6356 39.3537L38.4554 51.1692ZM45.1363 41.2925C44.9415 41.3985 44.7825 41.56 44.6794 41.7564C44.5412 42.0197 44.5133 42.3271 44.6017 42.6111C44.6902 42.895 44.8878 43.1321 45.1511 43.2704C45.3475 43.3735 45.57 43.4161 45.7906 43.3927C46.0112 43.3693 46.2199 43.2811 46.3903 43.1391C46.5607 42.9971 46.6852 42.8078 46.748 42.595C46.8108 42.3823 46.8091 42.1557 46.7431 41.9439C46.6772 41.7321 46.5499 41.5447 46.3773 41.4052C46.2048 41.2658 45.9948 41.1807 45.7739 41.1606C45.553 41.1405 45.3311 41.1864 45.1363 41.2925Z" stroke="#02662A" stroke-width="0.757576"/>
<path d="M47.0089 33.1403C46.9244 33.7496 46.6877 34.2615 46.3932 34.5986C46.0962 34.9386 45.777 35.0666 45.5042 35.0288C45.2313 34.9909 44.959 34.781 44.7657 34.3729C44.5741 33.9684 44.4856 33.4114 44.5701 32.8021C44.6546 32.1928 44.8913 31.681 45.1857 31.3439C45.4828 31.0038 45.8019 30.8759 46.0748 30.9137C46.3477 30.9515 46.6199 31.1615 46.8132 31.5695C47.0049 31.9741 47.0934 32.531 47.0089 33.1403Z" stroke="#02662A" stroke-width="0.757576"/>
<path d="M52.477 35.9106C52.0235 36.3262 51.7366 36.8117 51.6264 37.2456C51.5152 37.6832 51.5912 38.0186 51.7773 38.2216C51.9634 38.4247 52.2909 38.5296 52.7365 38.4569C53.1783 38.3849 53.6869 38.1414 54.1404 37.7258C54.5939 37.3102 54.8808 36.8247 54.991 36.3908C55.1022 35.9532 55.0262 35.6179 54.8401 35.4148C54.654 35.2117 54.3265 35.1068 53.8809 35.1795C53.4391 35.2515 52.9305 35.495 52.477 35.9106Z" stroke="#02662A" stroke-width="0.757576"/>
</g>
<defs>
<clipPath id="clip0_198_3576">
<rect width="16.426" height="26.8094" fill="white" transform="translate(44.7275 26.5938) rotate(27.6957)"/>
</clipPath>
</defs>
</svg>
