<svg width="48" height="48" viewBox="0 0 48 48" fill="none" xmlns="http://www.w3.org/2000/svg">
<rect x="-0.000976562" width="48.0002" height="48" rx="8" fill="white"/>
<path d="M33.9381 17.5935C36.9013 19.7192 40.5314 20.97 44.4521 20.97V13.3985C43.7101 13.3987 42.97 13.3211 42.2441 13.1667V19.1265C38.3237 19.1265 34.6941 17.8758 31.73 15.7501V31.2013C31.73 38.9307 25.4863 45.1962 17.7848 45.1962C14.9111 45.1962 12.2402 44.3244 10.0215 42.8291C12.5538 45.4276 16.0853 47.0396 19.9923 47.0396C27.6943 47.0396 33.9384 40.7741 33.9384 33.0443V17.5935H33.9381ZM36.6619 9.9548C35.1475 8.29444 34.1532 6.14875 33.9381 3.77659V2.80273H31.8456C32.3723 5.81775 34.1688 8.3936 36.6619 9.9548ZM14.8927 36.8978C14.0466 35.7845 13.5894 34.4225 13.5914 33.0222C13.5914 29.487 16.4473 26.6206 19.9706 26.6206C20.6272 26.6205 21.2799 26.7214 21.9057 26.9206V19.18C21.1744 19.0794 20.4363 19.0367 19.6986 19.0523V25.0773C19.0724 24.8781 18.4194 24.7768 17.7626 24.7775C14.2392 24.7775 11.3836 27.6435 11.3836 31.1791C11.3836 33.6791 12.811 35.8434 14.8927 36.8978Z" fill="#FF004F"/>
<path d="M31.73 15.75C34.694 17.8756 38.3237 19.1264 42.2441 19.1264V13.1665C40.0557 12.6988 38.1184 11.5511 36.6619 9.9548C34.1686 8.39344 32.3723 5.81759 31.8456 2.80273H26.3494V33.044C26.337 36.5695 23.486 39.4241 19.9702 39.4241C17.8985 39.4241 16.0579 38.4331 14.8922 36.8978C12.8107 35.8434 11.3832 33.6789 11.3832 31.1793C11.3832 27.644 14.2389 24.7776 17.7622 24.7776C18.4373 24.7776 19.0879 24.8831 19.6982 25.0775V19.0525C12.132 19.2094 6.04688 25.4137 6.04688 33.0441C6.04688 36.8532 7.56221 40.3063 10.0216 42.8293C12.2403 44.3244 14.9113 45.1964 17.7849 45.1964C25.4866 45.1964 31.7301 38.9306 31.7301 31.2013V15.75H31.73Z" fill="black"/>
<path d="M42.2439 13.1669V11.5555C40.2706 11.5585 38.336 11.0038 36.6617 9.95503C38.1438 11.5834 40.0954 12.7063 42.2439 13.1669ZM31.8455 2.80313C31.7952 2.51499 31.7566 2.22495 31.7299 1.93381V0.959961H24.1411V31.2015C24.1289 34.7266 21.2782 37.5812 17.7621 37.5812C16.7298 37.5812 15.7552 37.3353 14.8921 36.8983C16.0577 38.4335 17.8983 39.4244 19.9701 39.4244C23.4855 39.4244 26.337 36.57 26.3493 33.0445V2.80313H31.8455ZM19.6984 19.0529V17.3374C19.0643 17.2504 18.425 17.2067 17.7849 17.207C10.0826 17.2069 3.83887 23.4727 3.83887 31.2015C3.83887 36.0471 6.29275 40.3174 10.0216 42.8294C7.56222 40.3065 6.04689 36.8533 6.04689 33.0444C6.04689 25.4141 12.1318 19.2098 19.6984 19.0529Z" fill="#00F2EA"/>
</svg>
