<svg width="48" height="48" viewBox="0 0 48 48" fill="none" xmlns="http://www.w3.org/2000/svg">
<rect x="-0.000976562" width="48" height="48" rx="8" fill="#29A9EB"/>
<rect x="-0.000976562" width="48" height="48" rx="24" fill="#419FD9"/>
<rect x="-0.000976562" width="48" height="48" rx="24" fill="url(#paint0_linear_41_15491)"/>
<path d="M10.7864 23.4709C17.7657 20.3663 22.4197 18.3195 24.7483 17.3305C31.397 14.507 32.7785 14.0165 33.679 14.0002C33.877 13.9968 34.3199 14.0469 34.6067 14.2845C34.8489 14.4852 34.9155 14.7563 34.9474 14.9465C34.9793 15.1368 35.019 15.5702 34.9875 15.9088C34.6272 19.774 33.0682 29.1539 32.2751 33.483C31.9395 35.3148 31.2786 35.929 30.6389 35.9891C29.2486 36.1197 28.1929 35.051 26.8463 34.1497C24.7392 32.7395 23.5488 31.8615 21.5034 30.4854C19.1397 28.895 20.672 28.0209 22.0191 26.5923C22.3716 26.2185 28.4973 20.5295 28.6159 20.0135C28.6307 19.9489 28.6445 19.7083 28.5045 19.5813C28.3645 19.4543 28.1579 19.4977 28.0088 19.5322C27.7975 19.5812 24.4313 21.8529 17.9103 26.3473C16.9549 27.0172 16.0894 27.3435 15.314 27.3264C14.4592 27.3076 12.8149 26.833 11.5925 26.4273C10.0932 25.9296 8.90156 25.6666 9.00532 24.8215C9.05937 24.3813 9.65306 23.9311 10.7864 23.4709Z" fill="white"/>
<defs>
<linearGradient id="paint0_linear_41_15491" x1="23.999" y1="0" x2="23.999" y2="47.6438" gradientUnits="userSpaceOnUse">
<stop stop-color="#2AABEE"/>
<stop offset="1" stop-color="#229ED9"/>
</linearGradient>
</defs>
</svg>
