<svg width="48" height="48" viewBox="0 0 48 48" fill="none" xmlns="http://www.w3.org/2000/svg">
<rect width="48" height="48" rx="8" fill="#675DA9"/>
<rect width="48" height="48" rx="24" fill="#675DA9"/>
<path d="M35.754 12.1845C34.9601 11.4547 31.7461 9.11782 24.5819 9.08581C24.5819 9.08581 16.1372 8.57362 12.0205 12.351C9.72847 14.643 8.92178 17.9915 8.83855 22.153C8.75532 26.3081 8.64648 34.0998 16.1564 36.2125H16.1628L16.1564 39.4329C16.1564 39.4329 16.1116 40.739 16.9695 41.0015C18.0067 41.3216 18.6213 40.3292 19.6137 39.26C20.1579 38.671 20.907 37.8131 21.4768 37.1537C26.6114 37.5826 30.5617 36.5967 31.0099 36.4494C32.047 36.1101 37.918 35.361 38.8719 27.5694C39.8579 19.5536 38.3918 14.4766 35.754 12.1845ZM36.6247 27.006C35.818 33.5107 31.0611 33.9205 30.184 34.2022C29.8126 34.3238 26.3425 35.1882 21.9761 34.9C21.9761 34.9 18.7238 38.8247 17.7122 39.8427C17.5521 40.0027 17.3665 40.0667 17.2448 40.0347C17.072 39.9899 17.0207 39.785 17.0271 39.4841C17.0271 39.0488 17.0527 34.1254 17.0527 34.1254C17.0463 34.1254 17.0463 34.1254 17.0527 34.1254C10.6952 32.3647 11.0666 25.7319 11.137 22.2618C11.2074 18.7918 11.8605 15.9427 13.8004 14.0284C17.2768 10.8785 24.4539 11.3458 24.4539 11.3458C30.5105 11.3714 33.4107 13.1961 34.083 13.8043C36.3174 15.725 37.457 20.3027 36.6247 27.006Z" fill="white"/>
<path d="M27.5331 22.3835C27.3218 22.3835 27.1425 22.217 27.1297 21.9993C27.0593 20.6228 26.4127 19.9506 25.0938 19.8802C24.8697 19.8674 24.6968 19.6753 24.7097 19.4512C24.7225 19.2271 24.9145 19.0543 25.1386 19.0671C26.88 19.1631 27.8532 20.1619 27.9428 21.9545C27.9556 22.1786 27.7828 22.3707 27.5587 22.3771C27.5459 22.3835 27.5395 22.3835 27.5331 22.3835Z" fill="white"/>
<path d="M29.6077 23.0753H29.6013C29.3772 23.0689 29.1979 22.8832 29.2043 22.6591C29.2363 21.2762 28.8394 20.1558 27.9943 19.2339C27.1556 18.3119 25.9968 17.8126 24.4666 17.7037C24.2425 17.6845 24.0761 17.4924 24.0953 17.2684C24.1145 17.0443 24.3065 16.8778 24.5306 16.897C26.2593 17.0251 27.6229 17.6269 28.5961 18.6897C29.5757 19.7589 30.0494 21.097 30.0174 22.6783C30.011 22.9024 29.8254 23.0753 29.6077 23.0753Z" fill="white"/>
<path d="M31.733 23.9075C31.5089 23.9075 31.3296 23.7283 31.3296 23.5042C31.3104 21.0265 30.5998 19.1378 29.1528 17.7229C27.7251 16.3271 25.9133 15.6165 23.7813 15.5973C23.5572 15.5973 23.3779 15.4116 23.3779 15.1875C23.3779 14.9634 23.5636 14.7842 23.7813 14.7842C26.1309 14.8034 28.1285 15.5909 29.7098 17.1402C31.2976 18.6896 32.1107 20.828 32.1363 23.4914C32.1427 23.7218 31.9635 23.9075 31.733 23.9075C31.7394 23.9075 31.7394 23.9075 31.733 23.9075Z" fill="white"/>
<path d="M25.1897 27.3967C25.1897 27.3967 25.7595 27.4479 26.0668 27.0702L26.6622 26.3211C26.9503 25.9498 27.6482 25.7129 28.3268 26.0906C28.7046 26.3019 29.3896 26.7244 29.8122 27.0382C30.2667 27.3711 31.1887 28.1394 31.1951 28.1458C31.6368 28.5171 31.7393 29.0613 31.4384 29.6439C31.4384 29.6439 31.4384 29.6503 31.4384 29.6567C31.131 30.2009 30.7149 30.7131 30.1963 31.1869C30.1899 31.1869 30.1899 31.1933 30.1835 31.1933C29.7545 31.5518 29.332 31.7567 28.9222 31.8015C28.871 31.8143 28.8134 31.8143 28.7366 31.8143C28.5573 31.8143 28.378 31.7887 28.1988 31.7311L28.186 31.7119C27.5457 31.5326 26.4829 31.0844 24.7159 30.1049C23.5635 29.471 22.6095 28.8244 21.7964 28.1778C21.3675 27.8385 20.9321 27.4607 20.484 27.0126C20.4711 26.9997 20.4519 26.9805 20.4391 26.9677C20.4263 26.9549 20.4071 26.9357 20.3943 26.9229C20.3815 26.9101 20.3623 26.8909 20.3495 26.8781C20.3367 26.8653 20.3175 26.8461 20.3047 26.8333C19.8629 26.3851 19.4788 25.9498 19.1395 25.5208C18.4928 24.7141 17.8462 23.7538 17.2124 22.6013C16.2328 20.8279 15.7846 19.7651 15.6054 19.1313L15.5862 19.1185C15.5285 18.9392 15.5029 18.7599 15.5029 18.5807C15.5029 18.5038 15.5029 18.4462 15.5157 18.395C15.567 17.9788 15.7718 17.5627 16.124 17.1337C16.124 17.1273 16.1304 17.1273 16.1304 17.1209C16.6041 16.5959 17.1163 16.1862 17.6605 15.8789C17.6605 15.8789 17.6669 15.8789 17.6733 15.8789C18.2495 15.578 18.7937 15.6804 19.1715 16.1222C19.1715 16.1222 19.9462 17.0505 20.2791 17.5051C20.5928 17.934 21.0153 18.6127 21.2266 18.9904C21.6044 19.6691 21.3675 20.3669 20.9961 20.655L20.2471 21.2504C19.8693 21.5578 19.9205 22.1276 19.9205 22.1276C19.9205 22.1276 21.0282 26.3403 25.1897 27.3967Z" fill="white"/>
</svg>
