<svg width="48" height="48" viewBox="0 0 48 48" fill="none" xmlns="http://www.w3.org/2000/svg">
<g clip-path="url(#clip0_41_14364)">
<rect width="47.9994" height="47.9994" rx="8" fill="#0077FF"/>
<path d="M0 23.0397C0 12.1786 0 6.74818 3.37409 3.37409C6.74818 0 12.1786 0 23.0397 0H24.9597C35.8208 0 41.2512 0 44.6254 3.37409C47.9994 6.74818 47.9994 12.1786 47.9994 23.0397V24.9597C47.9994 35.8208 47.9994 41.2512 44.6254 44.6254C41.2512 47.9994 35.8208 47.9994 24.9597 47.9994H23.0397C12.1786 47.9994 6.74818 47.9994 3.37409 44.6254C0 41.2512 0 35.8208 0 24.9597V23.0397Z" fill="#0077FF"/>
<path d="M25.458 34.5592C14.3063 34.5592 7.9457 26.9917 7.68066 14.3994H13.2667C13.4502 23.6418 17.5683 27.5567 20.8302 28.3639V14.3994H26.0902V22.3705C29.3114 22.0274 32.6952 18.395 33.8369 14.3994H39.0968C38.2202 19.3233 34.5505 22.9557 31.941 24.449C34.5505 25.6598 38.7301 28.8281 40.3203 34.5592H34.5301C33.2865 30.725 30.188 27.7585 26.0902 27.3549V34.5592H25.458Z" fill="white"/>
</g>
<defs>
<clipPath id="clip0_41_14364">
<rect width="47.9994" height="47.9994" rx="8" fill="white"/>
</clipPath>
</defs>
</svg>
