<svg width="70" height="70" viewBox="0 0 70 70" fill="none" xmlns="http://www.w3.org/2000/svg">
<path d="M0 0H70V54C70 62.8366 62.8366 70 54 70H0V0Z" fill="#F8BF8B"/>
<g clip-path="url(#clip0_198_3793)">
<path fill-rule="evenodd" clip-rule="evenodd" d="M35.3998 21.275C34.5997 16.109 38.1568 6.83769 58.7862 11.0805C52.8939 22.605 42.5504 23.1433 36.9024 21.7323C36.6339 22.1033 36.2376 22.8246 35.8563 23.9821C35.5716 24.8465 35.3014 25.9358 35.1006 27.2701C35.1077 27.9651 35.0609 28.7179 34.9431 29.5253C35.7056 29.5491 36.4658 29.6539 37.2136 29.8492C41.1599 30.8798 44.5178 34.3594 46.0192 41.1357C46.1041 41.5189 45.8524 41.893 45.4673 41.9686C45.0822 42.0443 44.7095 41.7923 44.6242 41.4093C43.1968 34.998 40.1195 32.0769 36.8545 31.2243C33.6246 30.3808 29.98 31.4945 27.1238 33.7016C26.8132 33.9416 26.3657 33.9078 26.1108 33.6094C25.8559 33.311 25.8902 32.8611 26.1998 32.6199C28.2913 30.9902 30.8327 29.853 33.4248 29.5822C33.4836 28.7122 33.5706 27.9097 33.6784 27.172C33.6489 25.6717 33.3376 24.535 33.0129 23.7872C27.4372 25.2908 16.8298 24.9412 10.833 13.2123C31.056 9.05304 34.8728 17.8807 34.2615 23.0968C34.3361 23.26 34.4089 23.4356 34.4784 23.6235L34.4956 23.5707L34.5065 23.5374C34.8176 22.5929 35.1593 21.8492 35.4848 21.3058C35.4563 21.2955 35.428 21.2853 35.3998 21.275ZM48.7696 14.9102C48.8855 15.2653 49.0078 15.5889 49.4791 15.9513C50.0268 16.3723 50.8702 16.6776 52.1242 16.5246C53.3783 16.3716 53.5337 16.798 52.1778 16.9635C50.8219 17.1289 49.8592 16.8013 49.2096 16.3018C48.6769 15.8923 48.3652 15.3752 48.2184 14.9462C47.4667 15.2599 46.6993 15.5943 45.932 15.9396C46.0558 16.2835 46.2934 16.737 46.6616 17.1358C47.095 17.6052 47.7023 17.9919 48.5166 18.0474C49.3309 18.1029 49.4368 18.5533 48.4865 18.4885C47.5362 18.4238 46.8293 17.9692 46.3367 17.4357C45.9366 17.0024 45.6732 16.5126 45.5281 16.1224C44.2351 16.7108 43.2182 17.2312 42.15 17.7778C41.8091 17.9522 41.463 18.1294 41.1009 18.3123C41.1594 18.3562 41.2201 18.4022 41.283 18.45C42.1937 19.1411 43.5755 20.1896 45.5172 20.1484C47.5931 20.1043 45.5266 20.5905 45.5266 20.5905C43.1829 20.6403 41.078 19.4058 40.2002 18.6967C39.2177 19.1972 38.3312 19.6631 37.5952 20.0607L37.385 19.6717C38.1014 19.2847 38.9587 18.8338 39.9077 18.3495C39.778 18.1005 39.7333 17.8089 39.7403 17.51C39.7495 17.1123 39.8502 16.6751 39.9942 16.2462C40.2824 15.3877 40.7591 14.518 41.1106 13.9777C41.462 13.4374 41.8191 13.6993 41.4812 14.2188C41.1433 14.7383 40.6863 15.5739 40.4134 16.3869C40.3951 16.4414 40.3768 16.4947 40.3589 16.5471L40.3584 16.5485L40.3584 16.5485C40.2425 16.8874 40.14 17.187 40.1333 17.4779C40.1297 17.6288 40.26 17.6832 40.3852 17.7355C40.4728 17.7721 40.5579 17.8077 40.5931 17.8745C41.5897 17.3698 42.5539 16.9489 43.59 16.4968C44.1573 16.2492 44.7462 15.9922 45.3736 15.7069C45.1772 15.2243 44.9655 14.5588 44.8864 13.9222C44.841 13.5568 44.8375 13.1875 44.9145 12.8628C44.9921 12.5355 45.1558 12.2385 45.454 12.0513C45.7522 11.8641 45.8611 12.3178 45.6891 12.4258C45.5172 12.5337 45.4043 12.7135 45.3447 12.9648C45.2845 13.2188 45.2832 13.5301 45.3252 13.8677C45.3763 14.2796 45.573 14.6876 45.7488 15.0524L45.7488 15.0524C45.8213 15.2028 45.8902 15.3459 45.9439 15.4788C46.1834 15.3711 46.4044 15.2695 46.6188 15.1709L46.6189 15.1709C47.0483 14.9735 47.4513 14.7883 47.923 14.5905C47.9001 14.5634 47.8791 14.535 47.8601 14.5053C47.7671 14.3598 47.7319 14.198 47.7375 14.0346C47.7482 13.7189 47.9107 13.3844 48.1196 13.0757C48.5427 12.4505 49.2419 11.8078 49.7516 11.4078C50.2613 11.0078 50.5192 11.3674 50.0246 11.7556C49.53 12.1438 48.8716 12.7534 48.4859 13.3235C48.2904 13.6124 48.1858 13.8612 48.1794 14.0496C48.1763 14.1381 48.1951 14.2085 48.2326 14.2671C48.2457 14.2876 48.2914 14.2637 48.3438 14.2364C48.4051 14.2044 48.4755 14.1677 48.5136 14.1915C49.4899 13.7896 50.3654 13.5355 51.2091 13.2907L51.2093 13.2907L51.2097 13.2906L51.21 13.2905C51.5287 13.198 51.8429 13.1068 52.1563 13.0095C53.323 12.6471 54.3501 12.414 55.128 12.3834C55.9059 12.3528 55.864 12.7969 55.1454 12.8252C54.4268 12.8535 53.4445 13.0724 52.2874 13.4318C51.6005 13.6451 50.9119 13.9582 50.1742 14.2936C49.7276 14.4966 49.2629 14.7079 48.7696 14.9102ZM20.8496 17.042C20.7338 17.397 20.6115 17.7207 20.1401 18.0831C19.5925 18.5041 18.749 18.8093 17.495 18.6563C16.241 18.5033 16.0855 18.9298 17.4415 19.0952C18.7974 19.2607 19.76 18.933 20.4096 18.4336C20.9424 18.0241 21.254 17.507 21.4009 17.078C22.1525 17.3916 22.92 17.7261 23.6873 18.0714C23.5634 18.4153 23.3259 18.8688 22.9577 19.2675C22.5242 19.7369 21.9169 20.1237 21.1026 20.1792C20.2884 20.2347 20.1824 20.6851 21.1327 20.6203C22.083 20.5555 22.79 20.1009 23.2825 19.5675C23.6827 19.1342 23.9461 18.6444 24.0912 18.2542C25.3843 18.8426 26.4009 19.3629 27.4692 19.9096L27.4692 19.9096L27.4693 19.9096L27.4694 19.9097C27.8103 20.0841 28.1563 20.2612 28.5183 20.4441C28.4599 20.4879 28.3992 20.534 28.3362 20.5818C27.4256 21.2728 26.0438 22.3214 24.1021 22.2802C22.0261 22.2361 24.0927 22.7222 24.0927 22.7222C26.4363 22.772 28.5413 21.5376 29.419 20.8285C30.4016 21.329 31.288 21.7949 32.0241 22.1925L32.2342 21.8034C31.5179 21.4165 30.6605 20.9656 29.7116 20.4813C29.8413 20.2322 29.8859 19.9407 29.879 19.6418C29.8698 19.244 29.7691 18.8069 29.6251 18.378C29.3369 17.5195 28.8601 16.6498 28.5087 16.1095C28.1572 15.5692 27.8001 15.8311 28.138 16.3506C28.4759 16.8701 28.933 17.7057 29.2059 18.5187C29.2243 18.5735 29.2428 18.6275 29.2608 18.6803C29.3768 19.0192 29.4792 19.3188 29.486 19.6097C29.4895 19.7606 29.3592 19.815 29.234 19.8673C29.1464 19.9039 29.0613 19.9395 29.0261 20.0063C28.0296 19.5015 27.0653 19.0807 26.0292 18.6286C25.4619 18.381 24.8731 18.124 24.2456 17.8387C24.442 17.3561 24.6538 16.6906 24.7329 16.0539C24.7782 15.6886 24.7817 15.3193 24.7047 14.9946C24.6271 14.6672 24.4634 14.3703 24.1652 14.1831C23.867 13.9958 23.7581 14.4496 23.9301 14.5575C24.1021 14.6655 24.2149 14.8453 24.2745 15.0966C24.3347 15.3506 24.336 15.6619 24.2941 15.9994C24.2429 16.4114 24.0462 16.8195 23.8705 17.1842C23.798 17.3346 23.729 17.4777 23.6753 17.6106C23.436 17.5029 23.2148 17.4013 23.0005 17.3028L23.0004 17.3027C22.5709 17.1053 22.168 16.9201 21.6962 16.7223C21.7192 16.6952 21.7402 16.6668 21.7592 16.6371C21.8522 16.4916 21.8874 16.3298 21.8818 16.1663C21.871 15.8507 21.7085 15.5162 21.4996 15.2075C21.0766 14.5823 20.3773 13.9396 19.8676 13.5396C19.3579 13.1396 19.1 13.4992 19.5946 13.8874C20.0893 14.2756 20.7477 14.8852 21.1334 15.4553C21.3289 15.7442 21.4335 15.993 21.4399 16.1814C21.4429 16.2699 21.4241 16.3403 21.3866 16.3989C21.3735 16.4194 21.3278 16.3955 21.2754 16.3682C21.2142 16.3362 21.1437 16.2995 21.1057 16.3232C20.1293 15.9213 19.2538 15.6673 18.4101 15.4225C18.0911 15.3299 17.7766 15.2387 17.463 15.1413C16.2962 14.7789 15.2692 14.5458 14.4913 14.5152C13.7133 14.4845 13.7553 14.9287 14.4739 14.957C15.1924 14.9853 16.1748 15.2042 17.3318 15.5635C18.0188 15.7769 18.7073 16.0899 19.4451 16.4253C19.8917 16.6284 20.3563 16.8396 20.8496 17.042ZM24.4437 36.4224C23.5657 37.6088 22.9257 38.9026 22.5989 40.2265C22.7782 40.1127 22.9415 40.0134 23.0862 39.9307C23.921 39.4537 25.0095 39.4387 26.0785 39.5947C27.1739 39.7546 28.3909 40.1167 29.5854 40.5449C30.7844 40.9748 31.9895 41.4818 33.0628 41.9434C33.268 42.0316 33.4677 42.1179 33.6612 42.2015C34.4916 42.5602 35.209 42.8702 35.7684 43.08C37.4723 43.7189 38.2101 45.0714 38.0922 46.4272C37.9797 47.72 37.0886 48.9453 35.7436 49.3936C35.2085 49.572 34.5493 49.6286 33.8802 49.6255C33.1995 49.6223 32.4547 49.5566 31.7216 49.4594C30.8184 49.3398 29.914 49.1699 29.1394 49.0002C29.4656 49.176 29.8083 49.3458 30.1231 49.4912C35.8574 51.9453 39.1178 49.9887 39.9431 48.98L39.9906 48.9219L40.0492 48.875C40.4184 48.5797 40.8801 48.1258 41.433 47.582L41.6107 47.4074C42.226 46.8032 42.9258 46.1255 43.6444 45.5459C44.3541 44.9736 45.1376 44.4505 45.928 44.2047C46.7501 43.9491 47.642 43.9811 48.4093 44.6205C48.9849 45.1002 49.4252 45.6142 49.599 46.235C49.7794 46.879 49.6356 47.4971 49.3504 48.0933C49.0717 48.6761 48.62 49.3159 48.0716 50.0416C47.8249 50.3681 47.5682 50.6996 47.2926 51.0557L47.2919 51.0565L47.2918 51.0567C46.917 51.5408 46.5065 52.0711 46.0357 52.6987C43.3979 56.2157 40.0535 58.3237 38.6554 58.9592L38.6043 58.9825L38.5503 58.9974C33.2737 60.4529 29.4136 60.0968 26.6726 59.3535C25.3085 58.9836 24.2359 58.5215 23.4316 58.1615L23.2096 58.0619L23.2025 58.0587C22.901 57.9231 22.6566 57.8132 22.4453 57.7301C22.167 57.6207 22.0492 57.6018 22.0176 57.6018C21.6184 57.6018 21.0883 57.7774 20.5361 58.0577C20.0003 58.3297 19.5257 58.6577 19.2638 58.8672L18.9774 59.0964L18.6247 58.9956C17.7894 58.7569 16.9618 58.0132 16.2389 57.1951C15.488 56.3453 14.7434 55.289 14.0885 54.2501C13.4319 53.2086 12.8541 52.1667 12.4385 51.3355C12.2311 50.9205 12.0603 50.5508 11.9396 50.2553C11.8795 50.1082 11.8281 49.9707 11.7906 49.8503C11.7603 49.753 11.714 49.5918 11.714 49.4299C11.714 49.2498 11.7754 49.1071 11.8089 49.0376C11.8487 48.955 11.897 48.88 11.9415 48.8173C12.031 48.6913 12.148 48.5554 12.276 48.418C12.535 48.1402 12.8956 47.7966 13.3202 47.4141C14.1729 46.6462 15.3284 45.6817 16.5551 44.7004C18.034 43.5173 19.6441 42.2875 20.9718 41.3374C21.1659 39.2567 22.0469 37.2532 23.3473 35.5151C23.5824 35.2009 24.032 35.1597 24.3343 35.4099C24.6367 35.6601 24.6771 36.1069 24.4437 36.4224ZM27.5889 48.762C27.5908 48.7613 27.5935 48.7603 27.5972 48.7592L27.5902 48.762L27.587 48.7631L27.5856 48.7634L27.5889 48.762ZM25.8732 41.001C24.8881 40.8572 24.2002 40.931 23.7914 41.1646C22.6029 41.8438 19.8901 43.8524 17.4429 45.8102C16.227 46.7829 15.0952 47.7281 14.2713 48.4702C13.8577 48.8427 13.5327 49.1542 13.3156 49.387C13.2624 49.4442 13.2188 49.4932 13.1839 49.5344C13.2028 49.5863 13.2264 49.6473 13.2551 49.7177C13.3578 49.969 13.5119 50.3043 13.7097 50.6999C14.1046 51.4897 14.6593 52.4907 15.2907 53.4922C15.9237 54.4962 16.6225 55.4829 17.3039 56.2541C17.8562 56.8792 18.3383 57.2936 18.7173 57.5016C19.0356 57.2762 19.4454 57.0176 19.8928 56.7905C20.5072 56.4786 21.2798 56.1806 22.0176 56.1806C22.3413 56.1806 22.6787 56.2948 22.9653 56.4075C23.2116 56.5043 23.4966 56.6325 23.8009 56.7695L23.8101 56.7736L24.0122 56.8643C24.7956 57.215 25.7883 57.6412 27.0445 57.9818C29.5349 58.6572 33.1188 59.0115 38.117 57.6426C39.359 57.0635 42.4537 55.106 44.8988 51.8459C45.3572 51.2347 45.8017 50.6601 46.1951 50.1514L46.1955 50.1509C46.4726 49.7927 46.7243 49.4673 46.9378 49.1848C47.4885 48.456 47.8585 47.9189 48.0683 47.4802C48.2717 47.0549 48.2833 46.8069 48.2305 46.6182C48.1712 46.4063 47.9897 46.1208 47.4994 45.7123C47.2008 45.4634 46.8492 45.4066 46.35 45.5618C45.8191 45.7269 45.2037 46.1142 44.5366 46.6522C43.8784 47.183 43.2236 47.8155 42.6065 48.4214L42.4198 48.605C41.9084 49.1082 41.4124 49.5962 40.9937 49.9389C39.6388 51.524 35.6762 53.4173 29.5542 50.7937L29.5453 50.7898L29.5364 50.7857C28.7644 50.4295 27.6763 49.864 27.0624 49.3554C26.9075 49.227 26.7412 49.069 26.6213 48.8872C26.5137 48.724 26.3354 48.371 26.5038 47.968C26.664 47.5848 27.0228 47.4432 27.2291 47.3863C27.4648 47.3213 27.7476 47.2983 28.0577 47.2983H28.1508L28.2408 47.3223C29.1054 47.5529 30.514 47.8658 31.9083 48.0506C32.6053 48.1429 33.2861 48.2015 33.8867 48.2043C34.4988 48.2071 34.9766 48.1512 35.2942 48.0453C36.081 47.7831 36.6111 47.0542 36.6763 46.3041C36.7361 45.6169 36.4079 44.8376 35.2694 44.4107C34.6742 44.1875 33.9143 43.8591 33.0823 43.4996L33.0822 43.4996L33.0815 43.4993C32.8915 43.4172 32.6978 43.3334 32.5013 43.249C31.4317 42.789 30.2607 42.2968 29.1058 41.8827C27.9465 41.4672 26.8319 41.1409 25.8732 41.001ZM35.7039 36.2919C36.0963 36.2919 36.4144 35.9738 36.4144 35.5813C36.4144 35.1889 36.0963 34.8708 35.7039 34.8708C35.3114 34.8708 34.9933 35.1889 34.9933 35.5813C34.9933 35.9738 35.3114 36.2919 35.7039 36.2919ZM37.8356 38.4237C37.8356 38.8162 37.5175 39.1343 37.125 39.1343C36.7326 39.1343 36.4144 38.8162 36.4144 38.4237C36.4144 38.0313 36.7326 37.7131 37.125 37.7131C37.5175 37.7131 37.8356 38.0313 37.8356 38.4237ZM38.9015 37.0025C39.0978 37.0025 39.2568 36.8435 39.2568 36.6472C39.2568 36.451 39.0978 36.2919 38.9015 36.2919C38.7053 36.2919 38.5462 36.451 38.5462 36.6472C38.5462 36.8435 38.7053 37.0025 38.9015 37.0025Z" fill="#914500"/>
</g>
<defs>
<clipPath id="clip0_198_3793">
<rect width="50" height="50" fill="white" transform="translate(10 10)"/>
</clipPath>
</defs>
</svg>
