<svg width="123" height="122" viewBox="0 0 123 122" fill="none" xmlns="http://www.w3.org/2000/svg">
<mask id="mask0_41_13080" style="mask-type:alpha" maskUnits="userSpaceOnUse" x="0" y="0" width="123" height="122">
<ellipse cx="61.4301" cy="61.0202" rx="60.9672" ry="60.7283" fill="#FFC440"/>
</mask>
<g mask="url(#mask0_41_13080)">
<ellipse cx="61.4301" cy="61.0202" rx="60.9672" ry="60.7283" fill="#FFD3CB"/>
<path d="M67.9682 50.8359L74.1249 62.513L80.4344 50.8359H89.9751L80.2597 67.536L90.2371 84.2361H80.7401L74.1249 72.6896L67.6189 84.2361H58.0127L67.9682 67.536L58.362 50.8359H67.9682Z" fill="#EE6046"/>
<path d="M35.4783 50.5605L43.1633 67.3998C43.5359 68.2162 48.4418 48.3493 50.8482 38.3138C50.4384 36.6809 82.4419 36.953 98.4949 37.2932C102.594 39.3343 100.203 42.2259 98.4949 43.4166H55.9715C52.3852 56.5138 45.1101 83.0143 44.7003 84.239C44.2904 85.4637 43.8464 84.7493 43.6756 84.239L31.3797 56.1736H25.2317C24.5486 55.8334 23.08 54.7448 22.6701 53.1119C22.2602 51.479 24.2071 50.7306 25.2317 50.5605H35.4783Z" fill="#EE6046"/>
</g>
</svg>
