<svg width="48" height="48" viewBox="0 0 48 48" fill="none" xmlns="http://www.w3.org/2000/svg">
<rect x="-0.000976562" width="48" height="48" rx="8" fill="white"/>
<path d="M45.0177 23.0263C45.0216 23.0263 45.0244 23.0263 45.0283 23.0263C45.2961 23.0263 45.5515 22.914 45.7329 22.7172C45.9172 22.5175 46.0084 22.2497 45.9844 21.979C45.0206 11.3777 36.6273 2.98155 26.0251 2.01579C25.7563 1.99467 25.4856 2.08203 25.2859 2.26731C25.0862 2.45163 24.9748 2.71179 24.9777 2.98347C25.1448 17.0724 27.0033 22.8295 45.0177 23.0263ZM45.0177 24.9732C27.0033 25.17 25.1457 30.9271 24.9787 45.0161C24.9758 45.2878 25.0872 45.5479 25.2868 45.7323C25.4654 45.8964 25.6987 45.9876 25.9387 45.9876C25.9675 45.9876 25.9972 45.9867 26.026 45.9838C36.6283 45.018 45.0216 36.6228 45.9844 26.0206C46.0084 25.7499 45.9182 25.482 45.7329 25.2823C45.5476 25.0827 45.2894 24.9838 45.0177 24.9732ZM21.9096 2.02059C11.3409 3.01419 2.97452 11.4084 2.01548 21.9809C1.99148 22.2516 2.08172 22.5195 2.267 22.7191C2.44844 22.9159 2.70476 23.0273 2.97164 23.0273C2.97548 23.0273 2.97932 23.0273 2.98316 23.0273C20.938 22.8209 22.7918 17.0667 22.9608 2.98731C22.9636 2.71563 22.8513 2.45451 22.6516 2.27019C22.45 2.08587 22.1803 1.99563 21.9096 2.02059ZM2.9822 24.9723C2.68364 24.9387 2.4494 25.0807 2.26604 25.2804C2.08172 25.4801 1.99052 25.7479 2.01452 26.0187C2.97356 36.5911 11.3409 44.9854 21.9096 45.979C21.9393 45.9819 21.97 45.9828 21.9998 45.9828C22.2398 45.9828 22.4721 45.8926 22.6507 45.7284C22.8504 45.5441 22.9627 45.283 22.9598 45.0113C22.7908 30.9329 20.938 25.1787 2.9822 24.9723Z" fill="black"/>
</svg>
