<svg width="238" height="223" viewBox="0 0 238 223" fill="none" xmlns="http://www.w3.org/2000/svg">
<g opacity="0.2" clip-path="url(#clip0_67_27251)">
<ellipse cx="53.0786" cy="55.3074" rx="116.636" ry="116.178" fill="white"/>
<ellipse cx="53.0239" cy="55.2557" rx="89.4736" ry="89.1229" fill="#EDEDED"/>
<ellipse cx="-2.37524" cy="181.999" rx="4.70631" ry="4.35266" fill="#4599F9"/>
<ellipse cx="187.093" cy="149.567" rx="5.7148" ry="5.69194" fill="#4599F9"/>
<ellipse cx="226.512" cy="194.095" rx="6.72329" ry="6.6964" fill="white"/>
<ellipse cx="231.219" cy="202.132" rx="6.72329" ry="6.6964" fill="white"/>
<ellipse cx="212.283" cy="21.7455" rx="8.40412" ry="8.3705" fill="white"/>
<mask id="mask0_67_27251" style="mask-type:alpha" maskUnits="userSpaceOnUse" x="8" y="161" width="62" height="62">
<ellipse cx="39.2151" cy="192.261" rx="30.4836" ry="30.3641" fill="#FFC440"/>
</mask>
<g mask="url(#mask0_67_27251)">
<ellipse cx="39.2151" cy="192.261" rx="30.4836" ry="30.3641" fill="#FFD3CB"/>
<path d="M42.4841 187.168L45.5624 193.006L48.7172 187.168H53.4875L48.6299 195.518L53.6185 203.868H48.87L45.5624 198.095L42.3094 203.868H37.5063L42.4841 195.518L37.681 187.168H42.4841Z" fill="#EE6046"/>
<path d="M26.2392 187.03L30.0816 195.45C30.2679 195.858 32.7209 185.925 33.9241 180.907C33.7192 180.09 49.7209 180.227 57.7474 180.397C59.7968 181.417 58.6013 182.863 57.7474 183.458H36.4858C34.6926 190.007 31.0551 203.257 30.8501 203.87C30.6452 204.482 30.4232 204.125 30.3378 203.87L24.1898 189.837H21.1159C20.7743 189.667 20.04 189.122 19.835 188.306C19.6301 187.49 20.6035 187.115 21.1159 187.03H26.2392Z" fill="#EE6046"/>
</g>
<mask id="mask1_67_27251" style="mask-type:alpha" maskUnits="userSpaceOnUse" x="87" y="119" width="64" height="64">
<ellipse cx="119.397" cy="150.618" rx="31.5995" ry="31.4756" fill="#28BDEA"/>
</mask>
<g mask="url(#mask1_67_27251)">
<ellipse cx="119.397" cy="150.618" rx="31.5995" ry="31.4756" fill="#BB9BFF"/>
<path fill-rule="evenodd" clip-rule="evenodd" d="M109.573 137.13L121.788 133.691C122.319 133.78 123.222 134.273 122.584 135.543C121.947 136.813 121.08 136.601 120.726 136.336L123.912 147.71C131.79 149.385 145.899 155.275 139.314 165.432C135.33 168.87 131.415 170.1 126.833 171.251C120.107 172.939 113.342 174.516 110.37 172.838C102.403 168.341 105.59 161.729 115.149 150.355L111.963 139.246H110.104C108.617 139.246 109.13 137.835 109.573 137.13ZM113.291 138.188L114.884 143.743L120.726 142.156L118.867 136.602L113.291 138.188Z" fill="white"/>
<ellipse cx="113.556" cy="127.077" rx="1.59325" ry="1.58688" fill="white"/>
<ellipse cx="116.743" cy="130.249" rx="1.06217" ry="1.05792" fill="white"/>
</g>
<mask id="mask2_67_27251" style="mask-type:alpha" maskUnits="userSpaceOnUse" x="151" y="51" width="64" height="64">
<ellipse cx="182.663" cy="83.124" rx="31.6131" ry="31.4892" fill="#21D59A"/>
</mask>
<g mask="url(#mask2_67_27251)">
<ellipse cx="182.663" cy="83.124" rx="31.6131" ry="31.4892" fill="#4599F9"/>
<path d="M198.401 83.1239C198.401 91.8896 191.266 99.0009 182.458 99.0009C173.65 99.0009 166.515 91.8896 166.515 83.1239C166.515 74.3582 173.65 67.2469 182.458 67.2469C191.266 67.2469 198.401 74.3582 198.401 83.1239Z" stroke="white" stroke-width="1.58757"/>
<path d="M186.975 72.5387C189.313 70.8453 192.377 72.5387 193.617 73.5971L195.21 73.3325L198.398 79.1536C198.044 79.33 197.336 80.0532 197.336 81.5349C197.336 83.0166 194.856 83.9163 193.617 84.1808C193.351 84.6218 192.713 85.5567 192.288 85.7684C191.757 86.033 193.085 86.5622 192.82 88.4143C192.554 90.2665 190.96 90.7957 189.897 91.8541C189.047 92.7008 189.72 94.6764 190.163 95.5584L190.429 96.6168C190.074 96.7932 189.153 97.146 188.303 97.146C187.241 97.146 185.912 92.9124 184.85 92.6479C183.787 92.3833 182.99 88.1498 184.053 87.0914C185.115 86.033 190.163 83.6517 191.226 83.3871C192.288 83.1225 191.757 85.7684 192.288 85.2392C192.82 84.71 193.085 84.4454 193.085 83.6517C193.085 82.8579 193.617 82.8579 194.945 82.3287C195.582 82.117 194.679 80.8293 194.148 80.2119C193.528 81.1821 192.288 82.6991 192.288 81.0057C192.288 79.3123 188.746 77.3014 186.975 76.5076C186.798 76.4194 186.444 75.9784 186.444 74.9201C186.444 74.3178 186.788 73.9726 187.182 73.7869C186.051 73.9832 185.111 73.8893 186.975 72.5387Z" fill="white"/>
<path fill-rule="evenodd" clip-rule="evenodd" d="M173.161 74.9201C173.586 74.0734 172.275 73.1561 171.567 72.8033L169.707 73.5971L166.52 80.4765L167.848 88.9435C168.645 90.3547 170.611 93.3358 172.098 93.9708C173.219 94.4494 173.568 94.0624 174.017 93.5636C174.313 93.2351 174.653 92.858 175.286 92.6479C176.613 92.2074 175.363 88.2842 174.753 86.3707C174.631 85.9852 174.534 85.6813 174.489 85.5038C174.337 84.8962 175.06 84.7246 176.055 84.4884C176.794 84.3132 177.682 84.1024 178.474 83.6517C179.691 82.9593 178.292 80.9083 177.18 79.2762C176.592 78.4133 176.083 77.6674 176.083 77.3014C176.083 76.6867 175.725 76.6968 175.268 76.7096C174.938 76.7188 174.558 76.7295 174.224 76.5076C173.844 76.2556 174.067 76.0036 174.29 75.7516C174.535 75.4744 174.78 75.1972 174.224 74.9201C173.57 74.5944 173.117 75.0704 172.989 75.238C173.023 75.1831 173.079 75.0829 173.161 74.9201ZM173.161 81.0057C173.427 79.6827 171.567 79.6827 170.239 80.2119C169.796 79.8591 169.017 79.4711 169.442 80.7411C169.771 81.7249 170.508 81.7942 170.895 81.8306C171.132 81.8529 171.238 81.8628 171.036 82.0641C170.762 82.3364 170.559 82.1884 170.499 82.2328C170.442 82.2747 170.512 82.4879 170.77 83.3871C171.301 85.2392 172.895 82.3287 173.161 81.0057Z" fill="white"/>
<path d="M184.317 72.8036C183.255 73.0153 180.51 69.8931 179.27 68.3055L183.521 67.5117C183.255 67.7763 183.095 68.3584 184.583 68.5701C186.443 68.8347 187.505 70.9514 186.443 70.4223C185.593 69.9989 185.38 70.2459 185.38 70.4223C185.469 71.1278 185.38 72.5919 184.317 72.8036Z" fill="white"/>
</g>
<mask id="mask3_67_27251" style="mask-type:alpha" maskUnits="userSpaceOnUse" x="126" y="-37" width="67" height="68">
<path d="M192.426 -2.9693C192.426 15.1527 177.677 29.8457 159.48 29.8457C141.284 29.8457 126.535 15.1527 126.535 -2.9693C126.535 -21.0913 141.284 -35.7843 159.48 -35.7843C177.677 -35.7843 192.426 -21.0913 192.426 -2.9693Z" fill="#979221" stroke="white" stroke-width="0.669643"/>
</mask>
<g mask="url(#mask3_67_27251)">
<path d="M192.426 -2.9693C192.426 15.1527 177.677 29.8457 159.48 29.8457C141.284 29.8457 126.535 15.1527 126.535 -2.9693C126.535 -21.0913 141.284 -35.7843 159.48 -35.7843C177.677 -35.7843 192.426 -21.0913 192.426 -2.9693Z" fill="#FFA135" stroke="white" stroke-width="0.669643"/>
<path d="M171.918 -17.8765C171.919 -22.6246 168.376 -21.3777 167.248 -19.8213M167.248 -19.8213H153.626M167.248 -19.8213C166.337 -18.5639 166.176 -15.7774 169.194 -14.9634M170.362 -24.8789C171.608 -24.8789 172.957 -23.5822 173.476 -22.9338C176.901 -17.6432 173.865 -15.2831 171.918 -14.7643C170.809 -14.6879 169.912 -14.7699 169.194 -14.9634M170.362 -24.8789C169.117 -24.8789 156.351 -24.8789 150.124 -24.8789M170.362 -24.8789H150.124M150.124 -24.8789C149.346 -24.6196 147.633 -23.8675 147.01 -22.9338C146.232 -21.7668 143.897 -17.4874 148.567 -14.7643C149.632 -14.1435 150.539 -13.9815 151.291 -14.1212M153.626 -19.8213C152.459 -21.3777 148.567 -22.1556 148.956 -17.8765M153.626 -19.8213C154.597 -18.5273 153.837 -14.5943 151.291 -14.1212M151.291 -14.1212V7.79866M151.291 7.79866H169.194M151.291 7.79866C150.643 7.66899 149.423 8.18768 149.735 11.2998M169.194 7.79866V-14.9634M169.194 7.79866C169.713 7.53932 170.751 7.87647 170.751 11.2998M170.751 11.2998H149.735M170.751 11.2998C171.53 11.1702 173.086 12.0779 173.086 16.7461H147.399C147.399 13.0115 148.956 11.5592 149.735 11.2998" stroke="white" stroke-width="2.25"/>
<rect x="155.284" y="-11.6456" width="1.28472" height="14.1319" rx="0.642361" stroke="white" stroke-width="0.642361"/>
<rect x="159.138" y="-12.9308" width="1.92708" height="15.4167" rx="0.963542" stroke="white" stroke-width="0.642361"/>
<rect x="163.635" y="-11.6456" width="1.28472" height="14.1319" rx="0.642361" stroke="white" stroke-width="0.642361"/>
</g>
</g>
<defs>
<clipPath id="clip0_67_27251">
<rect width="374" height="223" fill="white" transform="translate(-136)"/>
</clipPath>
</defs>
</svg>
