<svg width="748" height="217" viewBox="0 0 748 217" fill="none" xmlns="http://www.w3.org/2000/svg">
<g opacity="0.2" clip-path="url(#clip0_41_13049)">
<ellipse cx="378.157" cy="-117.886" rx="233.271" ry="232.357" fill="white"/>
<ellipse cx="378.048" cy="-117.99" rx="178.947" ry="178.246" fill="#EDEDED"/>
<ellipse cx="267.25" cy="135.499" rx="9.41261" ry="8.70532" fill="#4599F9"/>
<ellipse cx="244.552" cy="190.066" rx="22.8592" ry="22.7678" fill="#FFEFD8"/>
<ellipse cx="646.185" cy="70.6339" rx="11.4296" ry="11.3839" fill="#4599F9"/>
<ellipse cx="725.024" cy="159.69" rx="13.4466" ry="13.3928" fill="white"/>
<ellipse cx="734.438" cy="175.765" rx="13.4466" ry="13.3928" fill="white"/>
<mask id="mask0_41_13049" style="mask-type:alpha" maskUnits="userSpaceOnUse" x="122" y="-13" width="130" height="129">
<ellipse cx="186.841" cy="51.6279" rx="64.597" ry="64.3438" fill="#FF806A"/>
</mask>
<g mask="url(#mask0_41_13049)">
<ellipse cx="186.841" cy="51.6279" rx="64.597" ry="64.3438" fill="#FFDFBA"/>
<path d="M181.953 47.4526C178.877 42.5866 170.554 33.071 161.868 33.9361" stroke="#D78528" stroke-width="2.16265" stroke-linecap="round"/>
<path d="M178.697 56.705C175.621 51.8391 167.298 42.3234 158.612 43.1885" stroke="#D78528" stroke-width="2.16265" stroke-linecap="round"/>
<path d="M175.442 65.9521C172.366 61.0861 164.043 51.5705 155.358 52.4356" stroke="#D78528" stroke-width="2.16265" stroke-linecap="round"/>
<path d="M192.269 37.1865C204.862 29.8329 223.21 37.7272 230.81 42.5936L215.067 85.3092C206.816 78.8207 185.574 80.4428 175.984 82.0649C173.812 76.8742 153.004 65.8438 142.871 60.9775C143.305 58.3821 152.823 31.7795 157.527 18.8026C175.332 17.0723 188.107 30.3376 192.269 37.1865Z" stroke="#D78528" stroke-width="3.24398"/>
<path d="M219.41 51.2435C213.801 48.5402 200.737 44.3231 193.354 49.0809" stroke="#D78528" stroke-width="2.16265" stroke-linecap="round"/>
<path d="M215.611 61.5072C210.002 58.8039 196.938 54.5868 189.555 59.3446" stroke="#D78528" stroke-width="2.16265" stroke-linecap="round"/>
<path d="M211.811 71.7748C206.201 69.0715 193.137 64.8543 185.755 69.6122" stroke="#D78528" stroke-width="2.16265" stroke-linecap="round"/>
<path d="M192.269 35.5615L175.984 82.0583" stroke="#D78528" stroke-width="2.16265"/>
</g>
<mask id="mask1_41_13049" style="mask-type:alpha" maskUnits="userSpaceOnUse" x="289" y="95" width="123" height="122">
<ellipse cx="350.43" cy="156.02" rx="60.9672" ry="60.7283" fill="#FFC440"/>
</mask>
<g mask="url(#mask1_41_13049)">
<ellipse cx="350.43" cy="156.02" rx="60.9672" ry="60.7283" fill="#FFD3CB"/>
<path d="M356.968 145.836L363.125 157.513L369.434 145.836H378.975L369.26 162.536L379.237 179.236H369.74L363.125 167.69L356.619 179.236H347.013L356.968 162.536L347.362 145.836H356.968Z" fill="#EE6046"/>
<path d="M324.478 145.561L332.163 162.4C332.536 163.216 337.442 143.349 339.848 133.314C339.438 131.681 371.442 131.953 387.495 132.293C391.594 134.334 389.203 137.226 387.495 138.417H344.972C341.385 151.514 334.11 178.014 333.7 179.239C333.29 180.464 332.846 179.749 332.676 179.239L320.38 151.174H314.232C313.549 150.833 312.08 149.745 311.67 148.112C311.26 146.479 313.207 145.731 314.232 145.561H324.478Z" fill="#EE6046"/>
</g>
<mask id="mask2_41_13049" style="mask-type:alpha" maskUnits="userSpaceOnUse" x="447" y="9" width="127" height="127">
<ellipse cx="510.795" cy="72.7364" rx="63.1989" ry="62.9512" fill="#28BDEA"/>
</mask>
<g mask="url(#mask2_41_13049)">
<ellipse cx="510.795" cy="72.7364" rx="63.1989" ry="62.9512" fill="#BB9BFF"/>
<path fill-rule="evenodd" clip-rule="evenodd" d="M491.146 45.7579L515.576 38.8809C516.638 39.0572 518.444 40.0447 517.169 42.5839C515.894 45.1231 514.159 44.6999 513.451 44.1709L519.824 66.918C535.58 70.2683 563.798 82.0474 550.627 102.361C542.661 109.238 534.829 111.699 525.666 113.999C512.214 117.376 498.685 120.529 492.739 117.173C476.807 108.18 483.18 94.9551 502.299 72.208L495.926 49.9899H492.208C489.234 49.9899 490.261 47.1686 491.146 45.7579ZM498.581 47.873L501.768 58.9811L513.451 55.8074L509.734 44.6992L498.581 47.873Z" fill="white"/>
<ellipse cx="499.111" cy="25.6542" rx="3.1865" ry="3.17376" fill="white"/>
<ellipse cx="505.486" cy="32.0001" rx="2.12433" ry="2.11584" fill="white"/>
</g>
<mask id="mask3_41_13049" style="mask-type:alpha" maskUnits="userSpaceOnUse" x="574" y="-126" width="127" height="127">
<ellipse cx="637.326" cy="-62.2501" rx="63.2263" ry="62.9784" fill="#21D59A"/>
</mask>
<g mask="url(#mask3_41_13049)">
<ellipse cx="637.326" cy="-62.2501" rx="63.2263" ry="62.9784" fill="#4599F9"/>
</g>
<mask id="mask4_41_13049" style="mask-type:alpha" maskUnits="userSpaceOnUse" x="235" y="-265" width="288" height="297">
<ellipse cx="379.1" cy="-116.723" rx="143.852" ry="148.012" fill="#FFA135"/>
</mask>
<g mask="url(#mask4_41_13049)">
<ellipse cx="379.1" cy="-116.723" rx="143.852" ry="148.012" fill="#FFA135"/>
<path d="M465.65 0.585459C461.224 -3.8234 441.675 -14.6356 432.453 -19.4906L412.693 -24.2144C397.939 -20.8027 364.558 -12.3262 349.067 -5.71291C333.575 0.900377 323.642 12.2637 320.613 17.1187L313.499 21.0551C333.654 26.9599 376.335 39.4779 385.82 42.3121C395.305 45.1464 444.573 24.3355 468.021 13.5758C469.075 11.0827 470.076 4.99431 465.65 0.585459Z" fill="#49451E"/>
<path d="M465.649 0.585459C461.223 -3.8234 441.674 -14.6356 432.452 -19.4906L412.693 -24.2144C406.022 -22.6719 395.544 -20.0942 384.634 -17.1215L383.053 42.3121H385.819C395.304 45.1464 444.572 24.3355 468.02 13.5758C469.074 11.0827 470.075 4.99431 465.649 0.585459Z" fill="#4C4820"/>
<path d="M364.873 -19.8873V-9.25962C363.951 -9.12841 362.107 -8.55111 362.107 -7.29154C362.107 -6.7667 362.209 -4.92976 362.209 -4.92976C362.834 -2.6993 364.636 1.60419 366.849 0.974403C369.616 0.187172 380.286 -2.96176 384.238 -6.11069C388.19 -9.25962 414.273 -27.7596 415.063 -28.9404C415.696 -29.8851 415.327 -31.4333 415.063 -32.0894H421.782C422.967 -32.0894 432.452 -21.4617 432.452 -19.8873L431.267 -19.1C429.291 -21.4617 422.019 -22.6426 408.74 -8.47239C392.142 9.24034 368.43 18.6871 364.873 15.9318C361.317 13.1765 353.63 12.3894 351.546 2.54895C351.546 2.54895 350.624 -0.900574 350.251 -2.96168C349.592 -7.94754 351.595 -18.3129 364.873 -19.8873Z" fill="#ECDC4B"/>
<path d="M414.274 -54.5288V-28.9417L416.645 -25.3989L411.507 -19.4942L364.874 5.30565V-0.992714V-35.2401L411.507 -54.5288H414.274Z" fill="#C98463"/>
<path d="M364.873 -9.25371V-19.8813C351.595 -18.3069 349.592 -7.94163 350.251 -2.95577C350.624 -0.894665 351.546 2.55486 351.546 2.55486L362.209 -4.92385C362.209 -4.92385 362.107 -6.76079 362.107 -7.28563C362.107 -8.5452 363.951 -9.12251 364.873 -9.25371Z" fill="#989433"/>
<path d="M351.546 2.55026L362.21 -4.92845C362.21 -4.92845 364.637 1.6055 366.85 0.975718C369.617 0.188486 380.287 -2.96045 384.239 -6.10938V10.2001C384.239 10.2001 371.508 18.7504 364.874 15.9331C351.11 10.0878 351.546 2.55026 351.546 2.55026Z" fill="#EDEA97"/>
</g>
</g>
<defs>
<clipPath id="clip0_41_13049">
<rect width="748" height="217" fill="white"/>
</clipPath>
</defs>
</svg>
